G04 #@! TF.GenerationSoftware,KiCad,Pcbnew,(5.1.7)-1*
G04 #@! TF.CreationDate,2020-12-10T13:09:13+02:00*
G04 #@! TF.ProjectId,Smart104.ua_V3,536d6172-7431-4303-942e-75615f56332e,1.0*
G04 #@! TF.SameCoordinates,Original*
G04 #@! TF.FileFunction,Soldermask,Top*
G04 #@! TF.FilePolarity,Negative*
%FSLAX46Y46*%
G04 Gerber Fmt 4.6, Leading zero omitted, Abs format (unit mm)*
G04 Created by KiCad (PCBNEW (5.1.7)-1) date 2020-12-10 13:09:13*
%MOMM*%
%LPD*%
G01*
G04 APERTURE LIST*
%ADD10C,0.830000*%
%ADD11R,1.200000X1.400000*%
%ADD12C,3.200000*%
%ADD13R,0.700000X0.450000*%
%ADD14R,0.450000X0.700000*%
%ADD15R,1.060000X0.650000*%
%ADD16C,2.100000*%
%ADD17R,2.100000X2.100000*%
%ADD18R,1.100000X1.000000*%
%ADD19R,3.000000X1.000000*%
%ADD20R,1.050000X1.000000*%
%ADD21R,2.200000X1.050000*%
%ADD22R,2.380000X1.650000*%
%ADD23R,1.000000X1.000000*%
%ADD24O,1.700000X1.700000*%
%ADD25R,1.700000X1.700000*%
%ADD26R,0.700000X0.600000*%
%ADD27R,0.600000X0.700000*%
%ADD28R,0.900000X0.800000*%
%ADD29R,0.800000X0.900000*%
%ADD30R,1.000000X1.800000*%
%ADD31R,1.600000X1.600000*%
%ADD32C,1.600000*%
%ADD33R,1.500000X2.400000*%
%ADD34R,1.400000X1.400000*%
G04 APERTURE END LIST*
D10*
X200650000Y-106600000D02*
X199310000Y-106600000D01*
X198290000Y-106600000D02*
X196300000Y-106600000D01*
G04 #@! TO.C,C24*
G36*
G01*
X112080000Y-119440000D02*
X112420000Y-119440000D01*
G75*
G02*
X112560000Y-119580000I0J-140000D01*
G01*
X112560000Y-119860000D01*
G75*
G02*
X112420000Y-120000000I-140000J0D01*
G01*
X112080000Y-120000000D01*
G75*
G02*
X111940000Y-119860000I0J140000D01*
G01*
X111940000Y-119580000D01*
G75*
G02*
X112080000Y-119440000I140000J0D01*
G01*
G37*
G36*
G01*
X112080000Y-120400000D02*
X112420000Y-120400000D01*
G75*
G02*
X112560000Y-120540000I0J-140000D01*
G01*
X112560000Y-120820000D01*
G75*
G02*
X112420000Y-120960000I-140000J0D01*
G01*
X112080000Y-120960000D01*
G75*
G02*
X111940000Y-120820000I0J140000D01*
G01*
X111940000Y-120540000D01*
G75*
G02*
X112080000Y-120400000I140000J0D01*
G01*
G37*
G04 #@! TD*
G04 #@! TO.C,R22*
G36*
G01*
X113065000Y-120440000D02*
X113435000Y-120440000D01*
G75*
G02*
X113570000Y-120575000I0J-135000D01*
G01*
X113570000Y-120845000D01*
G75*
G02*
X113435000Y-120980000I-135000J0D01*
G01*
X113065000Y-120980000D01*
G75*
G02*
X112930000Y-120845000I0J135000D01*
G01*
X112930000Y-120575000D01*
G75*
G02*
X113065000Y-120440000I135000J0D01*
G01*
G37*
G36*
G01*
X113065000Y-119420000D02*
X113435000Y-119420000D01*
G75*
G02*
X113570000Y-119555000I0J-135000D01*
G01*
X113570000Y-119825000D01*
G75*
G02*
X113435000Y-119960000I-135000J0D01*
G01*
X113065000Y-119960000D01*
G75*
G02*
X112930000Y-119825000I0J135000D01*
G01*
X112930000Y-119555000D01*
G75*
G02*
X113065000Y-119420000I135000J0D01*
G01*
G37*
G04 #@! TD*
G04 #@! TO.C,R20*
G36*
G01*
X111065000Y-120440000D02*
X111435000Y-120440000D01*
G75*
G02*
X111570000Y-120575000I0J-135000D01*
G01*
X111570000Y-120845000D01*
G75*
G02*
X111435000Y-120980000I-135000J0D01*
G01*
X111065000Y-120980000D01*
G75*
G02*
X110930000Y-120845000I0J135000D01*
G01*
X110930000Y-120575000D01*
G75*
G02*
X111065000Y-120440000I135000J0D01*
G01*
G37*
G36*
G01*
X111065000Y-119420000D02*
X111435000Y-119420000D01*
G75*
G02*
X111570000Y-119555000I0J-135000D01*
G01*
X111570000Y-119825000D01*
G75*
G02*
X111435000Y-119960000I-135000J0D01*
G01*
X111065000Y-119960000D01*
G75*
G02*
X110930000Y-119825000I0J135000D01*
G01*
X110930000Y-119555000D01*
G75*
G02*
X111065000Y-119420000I135000J0D01*
G01*
G37*
G04 #@! TD*
G04 #@! TO.C,D18*
G36*
G01*
X133056250Y-104025000D02*
X132543750Y-104025000D01*
G75*
G02*
X132325000Y-103806250I0J218750D01*
G01*
X132325000Y-103368750D01*
G75*
G02*
X132543750Y-103150000I218750J0D01*
G01*
X133056250Y-103150000D01*
G75*
G02*
X133275000Y-103368750I0J-218750D01*
G01*
X133275000Y-103806250D01*
G75*
G02*
X133056250Y-104025000I-218750J0D01*
G01*
G37*
G36*
G01*
X133056250Y-102450000D02*
X132543750Y-102450000D01*
G75*
G02*
X132325000Y-102231250I0J218750D01*
G01*
X132325000Y-101793750D01*
G75*
G02*
X132543750Y-101575000I218750J0D01*
G01*
X133056250Y-101575000D01*
G75*
G02*
X133275000Y-101793750I0J-218750D01*
G01*
X133275000Y-102231250D01*
G75*
G02*
X133056250Y-102450000I-218750J0D01*
G01*
G37*
G04 #@! TD*
G04 #@! TO.C,C43*
G36*
G01*
X148100000Y-115425000D02*
X148100000Y-114475000D01*
G75*
G02*
X148350000Y-114225000I250000J0D01*
G01*
X148850000Y-114225000D01*
G75*
G02*
X149100000Y-114475000I0J-250000D01*
G01*
X149100000Y-115425000D01*
G75*
G02*
X148850000Y-115675000I-250000J0D01*
G01*
X148350000Y-115675000D01*
G75*
G02*
X148100000Y-115425000I0J250000D01*
G01*
G37*
G36*
G01*
X150000000Y-115425000D02*
X150000000Y-114475000D01*
G75*
G02*
X150250000Y-114225000I250000J0D01*
G01*
X150750000Y-114225000D01*
G75*
G02*
X151000000Y-114475000I0J-250000D01*
G01*
X151000000Y-115425000D01*
G75*
G02*
X150750000Y-115675000I-250000J0D01*
G01*
X150250000Y-115675000D01*
G75*
G02*
X150000000Y-115425000I0J250000D01*
G01*
G37*
G04 #@! TD*
G04 #@! TO.C,C14*
G36*
G01*
X184450000Y-101875000D02*
X184450000Y-100925000D01*
G75*
G02*
X184700000Y-100675000I250000J0D01*
G01*
X185200000Y-100675000D01*
G75*
G02*
X185450000Y-100925000I0J-250000D01*
G01*
X185450000Y-101875000D01*
G75*
G02*
X185200000Y-102125000I-250000J0D01*
G01*
X184700000Y-102125000D01*
G75*
G02*
X184450000Y-101875000I0J250000D01*
G01*
G37*
G36*
G01*
X182550000Y-101875000D02*
X182550000Y-100925000D01*
G75*
G02*
X182800000Y-100675000I250000J0D01*
G01*
X183300000Y-100675000D01*
G75*
G02*
X183550000Y-100925000I0J-250000D01*
G01*
X183550000Y-101875000D01*
G75*
G02*
X183300000Y-102125000I-250000J0D01*
G01*
X182800000Y-102125000D01*
G75*
G02*
X182550000Y-101875000I0J250000D01*
G01*
G37*
G04 #@! TD*
G04 #@! TO.C,C46*
G36*
G01*
X147030000Y-114150000D02*
X147370000Y-114150000D01*
G75*
G02*
X147510000Y-114290000I0J-140000D01*
G01*
X147510000Y-114570000D01*
G75*
G02*
X147370000Y-114710000I-140000J0D01*
G01*
X147030000Y-114710000D01*
G75*
G02*
X146890000Y-114570000I0J140000D01*
G01*
X146890000Y-114290000D01*
G75*
G02*
X147030000Y-114150000I140000J0D01*
G01*
G37*
G36*
G01*
X147030000Y-113190000D02*
X147370000Y-113190000D01*
G75*
G02*
X147510000Y-113330000I0J-140000D01*
G01*
X147510000Y-113610000D01*
G75*
G02*
X147370000Y-113750000I-140000J0D01*
G01*
X147030000Y-113750000D01*
G75*
G02*
X146890000Y-113610000I0J140000D01*
G01*
X146890000Y-113330000D01*
G75*
G02*
X147030000Y-113190000I140000J0D01*
G01*
G37*
G04 #@! TD*
D11*
G04 #@! TO.C,Y2*
X143200000Y-113000000D03*
X143200000Y-115200000D03*
X141500000Y-115200000D03*
X141500000Y-113000000D03*
G04 #@! TD*
G04 #@! TO.C,R10*
G36*
G01*
X185465000Y-128570000D02*
X185835000Y-128570000D01*
G75*
G02*
X185970000Y-128705000I0J-135000D01*
G01*
X185970000Y-128975000D01*
G75*
G02*
X185835000Y-129110000I-135000J0D01*
G01*
X185465000Y-129110000D01*
G75*
G02*
X185330000Y-128975000I0J135000D01*
G01*
X185330000Y-128705000D01*
G75*
G02*
X185465000Y-128570000I135000J0D01*
G01*
G37*
G36*
G01*
X185465000Y-129590000D02*
X185835000Y-129590000D01*
G75*
G02*
X185970000Y-129725000I0J-135000D01*
G01*
X185970000Y-129995000D01*
G75*
G02*
X185835000Y-130130000I-135000J0D01*
G01*
X185465000Y-130130000D01*
G75*
G02*
X185330000Y-129995000I0J135000D01*
G01*
X185330000Y-129725000D01*
G75*
G02*
X185465000Y-129590000I135000J0D01*
G01*
G37*
G04 #@! TD*
D12*
G04 #@! TO.C,H1*
X199500000Y-135000000D03*
G04 #@! TD*
G04 #@! TO.C,R30*
G36*
G01*
X193415000Y-139720000D02*
X193785000Y-139720000D01*
G75*
G02*
X193920000Y-139855000I0J-135000D01*
G01*
X193920000Y-140125000D01*
G75*
G02*
X193785000Y-140260000I-135000J0D01*
G01*
X193415000Y-140260000D01*
G75*
G02*
X193280000Y-140125000I0J135000D01*
G01*
X193280000Y-139855000D01*
G75*
G02*
X193415000Y-139720000I135000J0D01*
G01*
G37*
G36*
G01*
X193415000Y-140740000D02*
X193785000Y-140740000D01*
G75*
G02*
X193920000Y-140875000I0J-135000D01*
G01*
X193920000Y-141145000D01*
G75*
G02*
X193785000Y-141280000I-135000J0D01*
G01*
X193415000Y-141280000D01*
G75*
G02*
X193280000Y-141145000I0J135000D01*
G01*
X193280000Y-140875000D01*
G75*
G02*
X193415000Y-140740000I135000J0D01*
G01*
G37*
G04 #@! TD*
D13*
G04 #@! TO.C,Q3*
X181300000Y-129250000D03*
X183300000Y-128600000D03*
X183300000Y-129900000D03*
G04 #@! TD*
G04 #@! TO.C,R16*
G36*
G01*
X192315000Y-134940000D02*
X192685000Y-134940000D01*
G75*
G02*
X192820000Y-135075000I0J-135000D01*
G01*
X192820000Y-135345000D01*
G75*
G02*
X192685000Y-135480000I-135000J0D01*
G01*
X192315000Y-135480000D01*
G75*
G02*
X192180000Y-135345000I0J135000D01*
G01*
X192180000Y-135075000D01*
G75*
G02*
X192315000Y-134940000I135000J0D01*
G01*
G37*
G36*
G01*
X192315000Y-133920000D02*
X192685000Y-133920000D01*
G75*
G02*
X192820000Y-134055000I0J-135000D01*
G01*
X192820000Y-134325000D01*
G75*
G02*
X192685000Y-134460000I-135000J0D01*
G01*
X192315000Y-134460000D01*
G75*
G02*
X192180000Y-134325000I0J135000D01*
G01*
X192180000Y-134055000D01*
G75*
G02*
X192315000Y-133920000I135000J0D01*
G01*
G37*
G04 #@! TD*
D14*
G04 #@! TO.C,Q5*
X194400000Y-136700000D03*
X195050000Y-138700000D03*
X193750000Y-138700000D03*
G04 #@! TD*
G04 #@! TO.C,R5*
G36*
G01*
X179015000Y-123440000D02*
X179385000Y-123440000D01*
G75*
G02*
X179520000Y-123575000I0J-135000D01*
G01*
X179520000Y-123845000D01*
G75*
G02*
X179385000Y-123980000I-135000J0D01*
G01*
X179015000Y-123980000D01*
G75*
G02*
X178880000Y-123845000I0J135000D01*
G01*
X178880000Y-123575000D01*
G75*
G02*
X179015000Y-123440000I135000J0D01*
G01*
G37*
G36*
G01*
X179015000Y-122420000D02*
X179385000Y-122420000D01*
G75*
G02*
X179520000Y-122555000I0J-135000D01*
G01*
X179520000Y-122825000D01*
G75*
G02*
X179385000Y-122960000I-135000J0D01*
G01*
X179015000Y-122960000D01*
G75*
G02*
X178880000Y-122825000I0J135000D01*
G01*
X178880000Y-122555000D01*
G75*
G02*
X179015000Y-122420000I135000J0D01*
G01*
G37*
G04 #@! TD*
G04 #@! TO.C,C12*
G36*
G01*
X180130000Y-126000000D02*
X180470000Y-126000000D01*
G75*
G02*
X180610000Y-126140000I0J-140000D01*
G01*
X180610000Y-126420000D01*
G75*
G02*
X180470000Y-126560000I-140000J0D01*
G01*
X180130000Y-126560000D01*
G75*
G02*
X179990000Y-126420000I0J140000D01*
G01*
X179990000Y-126140000D01*
G75*
G02*
X180130000Y-126000000I140000J0D01*
G01*
G37*
G36*
G01*
X180130000Y-125040000D02*
X180470000Y-125040000D01*
G75*
G02*
X180610000Y-125180000I0J-140000D01*
G01*
X180610000Y-125460000D01*
G75*
G02*
X180470000Y-125600000I-140000J0D01*
G01*
X180130000Y-125600000D01*
G75*
G02*
X179990000Y-125460000I0J140000D01*
G01*
X179990000Y-125180000D01*
G75*
G02*
X180130000Y-125040000I140000J0D01*
G01*
G37*
G04 #@! TD*
G04 #@! TO.C,C10*
G36*
G01*
X179030000Y-125040000D02*
X179370000Y-125040000D01*
G75*
G02*
X179510000Y-125180000I0J-140000D01*
G01*
X179510000Y-125460000D01*
G75*
G02*
X179370000Y-125600000I-140000J0D01*
G01*
X179030000Y-125600000D01*
G75*
G02*
X178890000Y-125460000I0J140000D01*
G01*
X178890000Y-125180000D01*
G75*
G02*
X179030000Y-125040000I140000J0D01*
G01*
G37*
G36*
G01*
X179030000Y-126000000D02*
X179370000Y-126000000D01*
G75*
G02*
X179510000Y-126140000I0J-140000D01*
G01*
X179510000Y-126420000D01*
G75*
G02*
X179370000Y-126560000I-140000J0D01*
G01*
X179030000Y-126560000D01*
G75*
G02*
X178890000Y-126420000I0J140000D01*
G01*
X178890000Y-126140000D01*
G75*
G02*
X179030000Y-126000000I140000J0D01*
G01*
G37*
G04 #@! TD*
G04 #@! TO.C,R6*
G36*
G01*
X180115000Y-122410000D02*
X180485000Y-122410000D01*
G75*
G02*
X180620000Y-122545000I0J-135000D01*
G01*
X180620000Y-122815000D01*
G75*
G02*
X180485000Y-122950000I-135000J0D01*
G01*
X180115000Y-122950000D01*
G75*
G02*
X179980000Y-122815000I0J135000D01*
G01*
X179980000Y-122545000D01*
G75*
G02*
X180115000Y-122410000I135000J0D01*
G01*
G37*
G36*
G01*
X180115000Y-123430000D02*
X180485000Y-123430000D01*
G75*
G02*
X180620000Y-123565000I0J-135000D01*
G01*
X180620000Y-123835000D01*
G75*
G02*
X180485000Y-123970000I-135000J0D01*
G01*
X180115000Y-123970000D01*
G75*
G02*
X179980000Y-123835000I0J135000D01*
G01*
X179980000Y-123565000D01*
G75*
G02*
X180115000Y-123430000I135000J0D01*
G01*
G37*
G04 #@! TD*
G04 #@! TO.C,R34*
G36*
G01*
X189520000Y-143885000D02*
X189520000Y-143515000D01*
G75*
G02*
X189655000Y-143380000I135000J0D01*
G01*
X189925000Y-143380000D01*
G75*
G02*
X190060000Y-143515000I0J-135000D01*
G01*
X190060000Y-143885000D01*
G75*
G02*
X189925000Y-144020000I-135000J0D01*
G01*
X189655000Y-144020000D01*
G75*
G02*
X189520000Y-143885000I0J135000D01*
G01*
G37*
G36*
G01*
X190540000Y-143885000D02*
X190540000Y-143515000D01*
G75*
G02*
X190675000Y-143380000I135000J0D01*
G01*
X190945000Y-143380000D01*
G75*
G02*
X191080000Y-143515000I0J-135000D01*
G01*
X191080000Y-143885000D01*
G75*
G02*
X190945000Y-144020000I-135000J0D01*
G01*
X190675000Y-144020000D01*
G75*
G02*
X190540000Y-143885000I0J135000D01*
G01*
G37*
G04 #@! TD*
D15*
G04 #@! TO.C,D1*
X182320000Y-125880000D03*
X182320000Y-126830000D03*
X182320000Y-124930000D03*
X184520000Y-124930000D03*
X184520000Y-125880000D03*
X184520000Y-126830000D03*
G04 #@! TD*
D16*
G04 #@! TO.C,J4*
X183200000Y-95600000D03*
D17*
X183200000Y-98140000D03*
G04 #@! TD*
D18*
G04 #@! TO.C,J5*
X179310000Y-139220000D03*
X179310000Y-136680000D03*
X179310000Y-134140000D03*
D19*
X185210000Y-141980000D03*
D18*
X191110000Y-139220000D03*
X191110000Y-136680000D03*
X191110000Y-134140000D03*
D19*
X185210000Y-131380000D03*
G04 #@! TD*
D16*
G04 #@! TO.C,J6*
X111100000Y-137850000D03*
X111100000Y-135310000D03*
D17*
X111100000Y-132770000D03*
G04 #@! TD*
D20*
G04 #@! TO.C,J9*
X200650000Y-106600000D03*
D21*
X202150000Y-105150000D03*
X202150000Y-108050000D03*
G04 #@! TD*
G04 #@! TO.C,L1*
G36*
G01*
X165125000Y-104500000D02*
X165125000Y-102800000D01*
G75*
G02*
X165375000Y-102550000I250000J0D01*
G01*
X166300000Y-102550000D01*
G75*
G02*
X166550000Y-102800000I0J-250000D01*
G01*
X166550000Y-104500000D01*
G75*
G02*
X166300000Y-104750000I-250000J0D01*
G01*
X165375000Y-104750000D01*
G75*
G02*
X165125000Y-104500000I0J250000D01*
G01*
G37*
G36*
G01*
X167450000Y-104500000D02*
X167450000Y-102800000D01*
G75*
G02*
X167700000Y-102550000I250000J0D01*
G01*
X168625000Y-102550000D01*
G75*
G02*
X168875000Y-102800000I0J-250000D01*
G01*
X168875000Y-104500000D01*
G75*
G02*
X168625000Y-104750000I-250000J0D01*
G01*
X167700000Y-104750000D01*
G75*
G02*
X167450000Y-104500000I0J250000D01*
G01*
G37*
G04 #@! TD*
G04 #@! TO.C,U3*
G36*
G01*
X166262500Y-110175000D02*
X166137500Y-110175000D01*
G75*
G02*
X166075000Y-110112500I0J62500D01*
G01*
X166075000Y-109387500D01*
G75*
G02*
X166137500Y-109325000I62500J0D01*
G01*
X166262500Y-109325000D01*
G75*
G02*
X166325000Y-109387500I0J-62500D01*
G01*
X166325000Y-110112500D01*
G75*
G02*
X166262500Y-110175000I-62500J0D01*
G01*
G37*
G36*
G01*
X166762500Y-110175000D02*
X166637500Y-110175000D01*
G75*
G02*
X166575000Y-110112500I0J62500D01*
G01*
X166575000Y-109387500D01*
G75*
G02*
X166637500Y-109325000I62500J0D01*
G01*
X166762500Y-109325000D01*
G75*
G02*
X166825000Y-109387500I0J-62500D01*
G01*
X166825000Y-110112500D01*
G75*
G02*
X166762500Y-110175000I-62500J0D01*
G01*
G37*
G36*
G01*
X167262500Y-110175000D02*
X167137500Y-110175000D01*
G75*
G02*
X167075000Y-110112500I0J62500D01*
G01*
X167075000Y-109387500D01*
G75*
G02*
X167137500Y-109325000I62500J0D01*
G01*
X167262500Y-109325000D01*
G75*
G02*
X167325000Y-109387500I0J-62500D01*
G01*
X167325000Y-110112500D01*
G75*
G02*
X167262500Y-110175000I-62500J0D01*
G01*
G37*
G36*
G01*
X167762500Y-110175000D02*
X167637500Y-110175000D01*
G75*
G02*
X167575000Y-110112500I0J62500D01*
G01*
X167575000Y-109387500D01*
G75*
G02*
X167637500Y-109325000I62500J0D01*
G01*
X167762500Y-109325000D01*
G75*
G02*
X167825000Y-109387500I0J-62500D01*
G01*
X167825000Y-110112500D01*
G75*
G02*
X167762500Y-110175000I-62500J0D01*
G01*
G37*
G36*
G01*
X168262500Y-110175000D02*
X168137500Y-110175000D01*
G75*
G02*
X168075000Y-110112500I0J62500D01*
G01*
X168075000Y-109387500D01*
G75*
G02*
X168137500Y-109325000I62500J0D01*
G01*
X168262500Y-109325000D01*
G75*
G02*
X168325000Y-109387500I0J-62500D01*
G01*
X168325000Y-110112500D01*
G75*
G02*
X168262500Y-110175000I-62500J0D01*
G01*
G37*
G36*
G01*
X168262500Y-107275000D02*
X168137500Y-107275000D01*
G75*
G02*
X168075000Y-107212500I0J62500D01*
G01*
X168075000Y-106487500D01*
G75*
G02*
X168137500Y-106425000I62500J0D01*
G01*
X168262500Y-106425000D01*
G75*
G02*
X168325000Y-106487500I0J-62500D01*
G01*
X168325000Y-107212500D01*
G75*
G02*
X168262500Y-107275000I-62500J0D01*
G01*
G37*
G36*
G01*
X167762500Y-107275000D02*
X167637500Y-107275000D01*
G75*
G02*
X167575000Y-107212500I0J62500D01*
G01*
X167575000Y-106487500D01*
G75*
G02*
X167637500Y-106425000I62500J0D01*
G01*
X167762500Y-106425000D01*
G75*
G02*
X167825000Y-106487500I0J-62500D01*
G01*
X167825000Y-107212500D01*
G75*
G02*
X167762500Y-107275000I-62500J0D01*
G01*
G37*
G36*
G01*
X167262500Y-107275000D02*
X167137500Y-107275000D01*
G75*
G02*
X167075000Y-107212500I0J62500D01*
G01*
X167075000Y-106487500D01*
G75*
G02*
X167137500Y-106425000I62500J0D01*
G01*
X167262500Y-106425000D01*
G75*
G02*
X167325000Y-106487500I0J-62500D01*
G01*
X167325000Y-107212500D01*
G75*
G02*
X167262500Y-107275000I-62500J0D01*
G01*
G37*
G36*
G01*
X166762500Y-107275000D02*
X166637500Y-107275000D01*
G75*
G02*
X166575000Y-107212500I0J62500D01*
G01*
X166575000Y-106487500D01*
G75*
G02*
X166637500Y-106425000I62500J0D01*
G01*
X166762500Y-106425000D01*
G75*
G02*
X166825000Y-106487500I0J-62500D01*
G01*
X166825000Y-107212500D01*
G75*
G02*
X166762500Y-107275000I-62500J0D01*
G01*
G37*
G36*
G01*
X166262500Y-107275000D02*
X166137500Y-107275000D01*
G75*
G02*
X166075000Y-107212500I0J62500D01*
G01*
X166075000Y-106487500D01*
G75*
G02*
X166137500Y-106425000I62500J0D01*
G01*
X166262500Y-106425000D01*
G75*
G02*
X166325000Y-106487500I0J-62500D01*
G01*
X166325000Y-107212500D01*
G75*
G02*
X166262500Y-107275000I-62500J0D01*
G01*
G37*
D22*
X167200000Y-108300000D03*
G04 #@! TD*
D23*
G04 #@! TO.C,U1*
X186850000Y-108700000D03*
X188650000Y-108700000D03*
X190450000Y-108700000D03*
X192250000Y-110500000D03*
X192250000Y-112300000D03*
X192250000Y-114100000D03*
X192250000Y-115900000D03*
X190450000Y-117700000D03*
X188650000Y-117700000D03*
X186850000Y-117700000D03*
X185050000Y-115900000D03*
X185050000Y-114100000D03*
X185050000Y-112300000D03*
X185050000Y-110500000D03*
G36*
G01*
X184075000Y-103350000D02*
X184425000Y-103350000D01*
G75*
G02*
X184600000Y-103525000I0J-175000D01*
G01*
X184600000Y-105675000D01*
G75*
G02*
X184425000Y-105850000I-175000J0D01*
G01*
X184075000Y-105850000D01*
G75*
G02*
X183900000Y-105675000I0J175000D01*
G01*
X183900000Y-103525000D01*
G75*
G02*
X184075000Y-103350000I175000J0D01*
G01*
G37*
G36*
G01*
X185175000Y-103350000D02*
X185525000Y-103350000D01*
G75*
G02*
X185700000Y-103525000I0J-175000D01*
G01*
X185700000Y-105675000D01*
G75*
G02*
X185525000Y-105850000I-175000J0D01*
G01*
X185175000Y-105850000D01*
G75*
G02*
X185000000Y-105675000I0J175000D01*
G01*
X185000000Y-103525000D01*
G75*
G02*
X185175000Y-103350000I175000J0D01*
G01*
G37*
G36*
G01*
X186275000Y-103350000D02*
X186625000Y-103350000D01*
G75*
G02*
X186800000Y-103525000I0J-175000D01*
G01*
X186800000Y-105675000D01*
G75*
G02*
X186625000Y-105850000I-175000J0D01*
G01*
X186275000Y-105850000D01*
G75*
G02*
X186100000Y-105675000I0J175000D01*
G01*
X186100000Y-103525000D01*
G75*
G02*
X186275000Y-103350000I175000J0D01*
G01*
G37*
G36*
G01*
X187375000Y-103350000D02*
X187725000Y-103350000D01*
G75*
G02*
X187900000Y-103525000I0J-175000D01*
G01*
X187900000Y-105675000D01*
G75*
G02*
X187725000Y-105850000I-175000J0D01*
G01*
X187375000Y-105850000D01*
G75*
G02*
X187200000Y-105675000I0J175000D01*
G01*
X187200000Y-103525000D01*
G75*
G02*
X187375000Y-103350000I175000J0D01*
G01*
G37*
G36*
G01*
X188475000Y-103350000D02*
X188825000Y-103350000D01*
G75*
G02*
X189000000Y-103525000I0J-175000D01*
G01*
X189000000Y-105675000D01*
G75*
G02*
X188825000Y-105850000I-175000J0D01*
G01*
X188475000Y-105850000D01*
G75*
G02*
X188300000Y-105675000I0J175000D01*
G01*
X188300000Y-103525000D01*
G75*
G02*
X188475000Y-103350000I175000J0D01*
G01*
G37*
G36*
G01*
X189575000Y-103350000D02*
X189925000Y-103350000D01*
G75*
G02*
X190100000Y-103525000I0J-175000D01*
G01*
X190100000Y-105675000D01*
G75*
G02*
X189925000Y-105850000I-175000J0D01*
G01*
X189575000Y-105850000D01*
G75*
G02*
X189400000Y-105675000I0J175000D01*
G01*
X189400000Y-103525000D01*
G75*
G02*
X189575000Y-103350000I175000J0D01*
G01*
G37*
G36*
G01*
X190675000Y-103350000D02*
X191025000Y-103350000D01*
G75*
G02*
X191200000Y-103525000I0J-175000D01*
G01*
X191200000Y-105675000D01*
G75*
G02*
X191025000Y-105850000I-175000J0D01*
G01*
X190675000Y-105850000D01*
G75*
G02*
X190500000Y-105675000I0J175000D01*
G01*
X190500000Y-103525000D01*
G75*
G02*
X190675000Y-103350000I175000J0D01*
G01*
G37*
G36*
G01*
X191775000Y-103350000D02*
X192125000Y-103350000D01*
G75*
G02*
X192300000Y-103525000I0J-175000D01*
G01*
X192300000Y-105675000D01*
G75*
G02*
X192125000Y-105850000I-175000J0D01*
G01*
X191775000Y-105850000D01*
G75*
G02*
X191600000Y-105675000I0J175000D01*
G01*
X191600000Y-103525000D01*
G75*
G02*
X191775000Y-103350000I175000J0D01*
G01*
G37*
G36*
G01*
X192875000Y-103350000D02*
X193225000Y-103350000D01*
G75*
G02*
X193400000Y-103525000I0J-175000D01*
G01*
X193400000Y-105675000D01*
G75*
G02*
X193225000Y-105850000I-175000J0D01*
G01*
X192875000Y-105850000D01*
G75*
G02*
X192700000Y-105675000I0J175000D01*
G01*
X192700000Y-103525000D01*
G75*
G02*
X192875000Y-103350000I175000J0D01*
G01*
G37*
G36*
G01*
X195050000Y-106775000D02*
X195050000Y-106425000D01*
G75*
G02*
X195225000Y-106250000I175000J0D01*
G01*
X197375000Y-106250000D01*
G75*
G02*
X197550000Y-106425000I0J-175000D01*
G01*
X197550000Y-106775000D01*
G75*
G02*
X197375000Y-106950000I-175000J0D01*
G01*
X195225000Y-106950000D01*
G75*
G02*
X195050000Y-106775000I0J175000D01*
G01*
G37*
G36*
G01*
X195050000Y-107875000D02*
X195050000Y-107525000D01*
G75*
G02*
X195225000Y-107350000I175000J0D01*
G01*
X197375000Y-107350000D01*
G75*
G02*
X197550000Y-107525000I0J-175000D01*
G01*
X197550000Y-107875000D01*
G75*
G02*
X197375000Y-108050000I-175000J0D01*
G01*
X195225000Y-108050000D01*
G75*
G02*
X195050000Y-107875000I0J175000D01*
G01*
G37*
G36*
G01*
X195050000Y-108975000D02*
X195050000Y-108625000D01*
G75*
G02*
X195225000Y-108450000I175000J0D01*
G01*
X197375000Y-108450000D01*
G75*
G02*
X197550000Y-108625000I0J-175000D01*
G01*
X197550000Y-108975000D01*
G75*
G02*
X197375000Y-109150000I-175000J0D01*
G01*
X195225000Y-109150000D01*
G75*
G02*
X195050000Y-108975000I0J175000D01*
G01*
G37*
G36*
G01*
X195050000Y-110075000D02*
X195050000Y-109725000D01*
G75*
G02*
X195225000Y-109550000I175000J0D01*
G01*
X197375000Y-109550000D01*
G75*
G02*
X197550000Y-109725000I0J-175000D01*
G01*
X197550000Y-110075000D01*
G75*
G02*
X197375000Y-110250000I-175000J0D01*
G01*
X195225000Y-110250000D01*
G75*
G02*
X195050000Y-110075000I0J175000D01*
G01*
G37*
G36*
G01*
X195050000Y-111175000D02*
X195050000Y-110825000D01*
G75*
G02*
X195225000Y-110650000I175000J0D01*
G01*
X197375000Y-110650000D01*
G75*
G02*
X197550000Y-110825000I0J-175000D01*
G01*
X197550000Y-111175000D01*
G75*
G02*
X197375000Y-111350000I-175000J0D01*
G01*
X195225000Y-111350000D01*
G75*
G02*
X195050000Y-111175000I0J175000D01*
G01*
G37*
G36*
G01*
X195050000Y-112275000D02*
X195050000Y-111925000D01*
G75*
G02*
X195225000Y-111750000I175000J0D01*
G01*
X197375000Y-111750000D01*
G75*
G02*
X197550000Y-111925000I0J-175000D01*
G01*
X197550000Y-112275000D01*
G75*
G02*
X197375000Y-112450000I-175000J0D01*
G01*
X195225000Y-112450000D01*
G75*
G02*
X195050000Y-112275000I0J175000D01*
G01*
G37*
G36*
G01*
X195050000Y-113375000D02*
X195050000Y-113025000D01*
G75*
G02*
X195225000Y-112850000I175000J0D01*
G01*
X197375000Y-112850000D01*
G75*
G02*
X197550000Y-113025000I0J-175000D01*
G01*
X197550000Y-113375000D01*
G75*
G02*
X197375000Y-113550000I-175000J0D01*
G01*
X195225000Y-113550000D01*
G75*
G02*
X195050000Y-113375000I0J175000D01*
G01*
G37*
G36*
G01*
X195050000Y-114475000D02*
X195050000Y-114125000D01*
G75*
G02*
X195225000Y-113950000I175000J0D01*
G01*
X197375000Y-113950000D01*
G75*
G02*
X197550000Y-114125000I0J-175000D01*
G01*
X197550000Y-114475000D01*
G75*
G02*
X197375000Y-114650000I-175000J0D01*
G01*
X195225000Y-114650000D01*
G75*
G02*
X195050000Y-114475000I0J175000D01*
G01*
G37*
G36*
G01*
X195050000Y-115575000D02*
X195050000Y-115225000D01*
G75*
G02*
X195225000Y-115050000I175000J0D01*
G01*
X197375000Y-115050000D01*
G75*
G02*
X197550000Y-115225000I0J-175000D01*
G01*
X197550000Y-115575000D01*
G75*
G02*
X197375000Y-115750000I-175000J0D01*
G01*
X195225000Y-115750000D01*
G75*
G02*
X195050000Y-115575000I0J175000D01*
G01*
G37*
G36*
G01*
X195050000Y-116675000D02*
X195050000Y-116325000D01*
G75*
G02*
X195225000Y-116150000I175000J0D01*
G01*
X197375000Y-116150000D01*
G75*
G02*
X197550000Y-116325000I0J-175000D01*
G01*
X197550000Y-116675000D01*
G75*
G02*
X197375000Y-116850000I-175000J0D01*
G01*
X195225000Y-116850000D01*
G75*
G02*
X195050000Y-116675000I0J175000D01*
G01*
G37*
G36*
G01*
X195050000Y-117775000D02*
X195050000Y-117425000D01*
G75*
G02*
X195225000Y-117250000I175000J0D01*
G01*
X197375000Y-117250000D01*
G75*
G02*
X197550000Y-117425000I0J-175000D01*
G01*
X197550000Y-117775000D01*
G75*
G02*
X197375000Y-117950000I-175000J0D01*
G01*
X195225000Y-117950000D01*
G75*
G02*
X195050000Y-117775000I0J175000D01*
G01*
G37*
G36*
G01*
X195050000Y-118875000D02*
X195050000Y-118525000D01*
G75*
G02*
X195225000Y-118350000I175000J0D01*
G01*
X197375000Y-118350000D01*
G75*
G02*
X197550000Y-118525000I0J-175000D01*
G01*
X197550000Y-118875000D01*
G75*
G02*
X197375000Y-119050000I-175000J0D01*
G01*
X195225000Y-119050000D01*
G75*
G02*
X195050000Y-118875000I0J175000D01*
G01*
G37*
G36*
G01*
X195050000Y-119975000D02*
X195050000Y-119625000D01*
G75*
G02*
X195225000Y-119450000I175000J0D01*
G01*
X197375000Y-119450000D01*
G75*
G02*
X197550000Y-119625000I0J-175000D01*
G01*
X197550000Y-119975000D01*
G75*
G02*
X197375000Y-120150000I-175000J0D01*
G01*
X195225000Y-120150000D01*
G75*
G02*
X195050000Y-119975000I0J175000D01*
G01*
G37*
G36*
G01*
X193225000Y-123050000D02*
X192875000Y-123050000D01*
G75*
G02*
X192700000Y-122875000I0J175000D01*
G01*
X192700000Y-120725000D01*
G75*
G02*
X192875000Y-120550000I175000J0D01*
G01*
X193225000Y-120550000D01*
G75*
G02*
X193400000Y-120725000I0J-175000D01*
G01*
X193400000Y-122875000D01*
G75*
G02*
X193225000Y-123050000I-175000J0D01*
G01*
G37*
G36*
G01*
X192125000Y-123050000D02*
X191775000Y-123050000D01*
G75*
G02*
X191600000Y-122875000I0J175000D01*
G01*
X191600000Y-120725000D01*
G75*
G02*
X191775000Y-120550000I175000J0D01*
G01*
X192125000Y-120550000D01*
G75*
G02*
X192300000Y-120725000I0J-175000D01*
G01*
X192300000Y-122875000D01*
G75*
G02*
X192125000Y-123050000I-175000J0D01*
G01*
G37*
G36*
G01*
X191025000Y-123050000D02*
X190675000Y-123050000D01*
G75*
G02*
X190500000Y-122875000I0J175000D01*
G01*
X190500000Y-120725000D01*
G75*
G02*
X190675000Y-120550000I175000J0D01*
G01*
X191025000Y-120550000D01*
G75*
G02*
X191200000Y-120725000I0J-175000D01*
G01*
X191200000Y-122875000D01*
G75*
G02*
X191025000Y-123050000I-175000J0D01*
G01*
G37*
G36*
G01*
X189925000Y-123050000D02*
X189575000Y-123050000D01*
G75*
G02*
X189400000Y-122875000I0J175000D01*
G01*
X189400000Y-120725000D01*
G75*
G02*
X189575000Y-120550000I175000J0D01*
G01*
X189925000Y-120550000D01*
G75*
G02*
X190100000Y-120725000I0J-175000D01*
G01*
X190100000Y-122875000D01*
G75*
G02*
X189925000Y-123050000I-175000J0D01*
G01*
G37*
G36*
G01*
X188825000Y-123050000D02*
X188475000Y-123050000D01*
G75*
G02*
X188300000Y-122875000I0J175000D01*
G01*
X188300000Y-120725000D01*
G75*
G02*
X188475000Y-120550000I175000J0D01*
G01*
X188825000Y-120550000D01*
G75*
G02*
X189000000Y-120725000I0J-175000D01*
G01*
X189000000Y-122875000D01*
G75*
G02*
X188825000Y-123050000I-175000J0D01*
G01*
G37*
G36*
G01*
X187725000Y-123050000D02*
X187375000Y-123050000D01*
G75*
G02*
X187200000Y-122875000I0J175000D01*
G01*
X187200000Y-120725000D01*
G75*
G02*
X187375000Y-120550000I175000J0D01*
G01*
X187725000Y-120550000D01*
G75*
G02*
X187900000Y-120725000I0J-175000D01*
G01*
X187900000Y-122875000D01*
G75*
G02*
X187725000Y-123050000I-175000J0D01*
G01*
G37*
G36*
G01*
X186625000Y-123050000D02*
X186275000Y-123050000D01*
G75*
G02*
X186100000Y-122875000I0J175000D01*
G01*
X186100000Y-120725000D01*
G75*
G02*
X186275000Y-120550000I175000J0D01*
G01*
X186625000Y-120550000D01*
G75*
G02*
X186800000Y-120725000I0J-175000D01*
G01*
X186800000Y-122875000D01*
G75*
G02*
X186625000Y-123050000I-175000J0D01*
G01*
G37*
G36*
G01*
X185525000Y-123050000D02*
X185175000Y-123050000D01*
G75*
G02*
X185000000Y-122875000I0J175000D01*
G01*
X185000000Y-120725000D01*
G75*
G02*
X185175000Y-120550000I175000J0D01*
G01*
X185525000Y-120550000D01*
G75*
G02*
X185700000Y-120725000I0J-175000D01*
G01*
X185700000Y-122875000D01*
G75*
G02*
X185525000Y-123050000I-175000J0D01*
G01*
G37*
G36*
G01*
X184425000Y-123050000D02*
X184075000Y-123050000D01*
G75*
G02*
X183900000Y-122875000I0J175000D01*
G01*
X183900000Y-120725000D01*
G75*
G02*
X184075000Y-120550000I175000J0D01*
G01*
X184425000Y-120550000D01*
G75*
G02*
X184600000Y-120725000I0J-175000D01*
G01*
X184600000Y-122875000D01*
G75*
G02*
X184425000Y-123050000I-175000J0D01*
G01*
G37*
G36*
G01*
X179750000Y-119975000D02*
X179750000Y-119625000D01*
G75*
G02*
X179925000Y-119450000I175000J0D01*
G01*
X182075000Y-119450000D01*
G75*
G02*
X182250000Y-119625000I0J-175000D01*
G01*
X182250000Y-119975000D01*
G75*
G02*
X182075000Y-120150000I-175000J0D01*
G01*
X179925000Y-120150000D01*
G75*
G02*
X179750000Y-119975000I0J175000D01*
G01*
G37*
G36*
G01*
X179750000Y-118875000D02*
X179750000Y-118525000D01*
G75*
G02*
X179925000Y-118350000I175000J0D01*
G01*
X182075000Y-118350000D01*
G75*
G02*
X182250000Y-118525000I0J-175000D01*
G01*
X182250000Y-118875000D01*
G75*
G02*
X182075000Y-119050000I-175000J0D01*
G01*
X179925000Y-119050000D01*
G75*
G02*
X179750000Y-118875000I0J175000D01*
G01*
G37*
G36*
G01*
X179750000Y-117775000D02*
X179750000Y-117425000D01*
G75*
G02*
X179925000Y-117250000I175000J0D01*
G01*
X182075000Y-117250000D01*
G75*
G02*
X182250000Y-117425000I0J-175000D01*
G01*
X182250000Y-117775000D01*
G75*
G02*
X182075000Y-117950000I-175000J0D01*
G01*
X179925000Y-117950000D01*
G75*
G02*
X179750000Y-117775000I0J175000D01*
G01*
G37*
G36*
G01*
X179750000Y-116675000D02*
X179750000Y-116325000D01*
G75*
G02*
X179925000Y-116150000I175000J0D01*
G01*
X182075000Y-116150000D01*
G75*
G02*
X182250000Y-116325000I0J-175000D01*
G01*
X182250000Y-116675000D01*
G75*
G02*
X182075000Y-116850000I-175000J0D01*
G01*
X179925000Y-116850000D01*
G75*
G02*
X179750000Y-116675000I0J175000D01*
G01*
G37*
G36*
G01*
X179750000Y-115575000D02*
X179750000Y-115225000D01*
G75*
G02*
X179925000Y-115050000I175000J0D01*
G01*
X182075000Y-115050000D01*
G75*
G02*
X182250000Y-115225000I0J-175000D01*
G01*
X182250000Y-115575000D01*
G75*
G02*
X182075000Y-115750000I-175000J0D01*
G01*
X179925000Y-115750000D01*
G75*
G02*
X179750000Y-115575000I0J175000D01*
G01*
G37*
G36*
G01*
X179750000Y-114475000D02*
X179750000Y-114125000D01*
G75*
G02*
X179925000Y-113950000I175000J0D01*
G01*
X182075000Y-113950000D01*
G75*
G02*
X182250000Y-114125000I0J-175000D01*
G01*
X182250000Y-114475000D01*
G75*
G02*
X182075000Y-114650000I-175000J0D01*
G01*
X179925000Y-114650000D01*
G75*
G02*
X179750000Y-114475000I0J175000D01*
G01*
G37*
G36*
G01*
X179750000Y-113375000D02*
X179750000Y-113025000D01*
G75*
G02*
X179925000Y-112850000I175000J0D01*
G01*
X182075000Y-112850000D01*
G75*
G02*
X182250000Y-113025000I0J-175000D01*
G01*
X182250000Y-113375000D01*
G75*
G02*
X182075000Y-113550000I-175000J0D01*
G01*
X179925000Y-113550000D01*
G75*
G02*
X179750000Y-113375000I0J175000D01*
G01*
G37*
G36*
G01*
X179750000Y-112275000D02*
X179750000Y-111925000D01*
G75*
G02*
X179925000Y-111750000I175000J0D01*
G01*
X182075000Y-111750000D01*
G75*
G02*
X182250000Y-111925000I0J-175000D01*
G01*
X182250000Y-112275000D01*
G75*
G02*
X182075000Y-112450000I-175000J0D01*
G01*
X179925000Y-112450000D01*
G75*
G02*
X179750000Y-112275000I0J175000D01*
G01*
G37*
G36*
G01*
X179750000Y-111175000D02*
X179750000Y-110825000D01*
G75*
G02*
X179925000Y-110650000I175000J0D01*
G01*
X182075000Y-110650000D01*
G75*
G02*
X182250000Y-110825000I0J-175000D01*
G01*
X182250000Y-111175000D01*
G75*
G02*
X182075000Y-111350000I-175000J0D01*
G01*
X179925000Y-111350000D01*
G75*
G02*
X179750000Y-111175000I0J175000D01*
G01*
G37*
G36*
G01*
X179750000Y-110075000D02*
X179750000Y-109725000D01*
G75*
G02*
X179925000Y-109550000I175000J0D01*
G01*
X182075000Y-109550000D01*
G75*
G02*
X182250000Y-109725000I0J-175000D01*
G01*
X182250000Y-110075000D01*
G75*
G02*
X182075000Y-110250000I-175000J0D01*
G01*
X179925000Y-110250000D01*
G75*
G02*
X179750000Y-110075000I0J175000D01*
G01*
G37*
G36*
G01*
X179750000Y-108975000D02*
X179750000Y-108625000D01*
G75*
G02*
X179925000Y-108450000I175000J0D01*
G01*
X182075000Y-108450000D01*
G75*
G02*
X182250000Y-108625000I0J-175000D01*
G01*
X182250000Y-108975000D01*
G75*
G02*
X182075000Y-109150000I-175000J0D01*
G01*
X179925000Y-109150000D01*
G75*
G02*
X179750000Y-108975000I0J175000D01*
G01*
G37*
G36*
G01*
X179750000Y-107875000D02*
X179750000Y-107525000D01*
G75*
G02*
X179925000Y-107350000I175000J0D01*
G01*
X182075000Y-107350000D01*
G75*
G02*
X182250000Y-107525000I0J-175000D01*
G01*
X182250000Y-107875000D01*
G75*
G02*
X182075000Y-108050000I-175000J0D01*
G01*
X179925000Y-108050000D01*
G75*
G02*
X179750000Y-107875000I0J175000D01*
G01*
G37*
G36*
G01*
X179750000Y-106775000D02*
X179750000Y-106425000D01*
G75*
G02*
X179925000Y-106250000I175000J0D01*
G01*
X182075000Y-106250000D01*
G75*
G02*
X182250000Y-106425000I0J-175000D01*
G01*
X182250000Y-106775000D01*
G75*
G02*
X182075000Y-106950000I-175000J0D01*
G01*
X179925000Y-106950000D01*
G75*
G02*
X179750000Y-106775000I0J175000D01*
G01*
G37*
G04 #@! TD*
D24*
G04 #@! TO.C,J1*
X109850000Y-95750000D03*
X112390000Y-95750000D03*
X114930000Y-95750000D03*
D25*
X117470000Y-95750000D03*
G04 #@! TD*
G04 #@! TO.C,J2*
X124680000Y-118350000D03*
D24*
X122140000Y-118350000D03*
X119600000Y-118350000D03*
X117060000Y-118350000D03*
G04 #@! TD*
G04 #@! TO.C,J3*
X121500000Y-95750000D03*
X124040000Y-95750000D03*
X126580000Y-95750000D03*
X129120000Y-95750000D03*
D25*
X131660000Y-95750000D03*
G04 #@! TD*
D24*
G04 #@! TO.C,J7*
X128520000Y-118350000D03*
X131060000Y-118350000D03*
X133600000Y-118350000D03*
D25*
X136140000Y-118350000D03*
G04 #@! TD*
D24*
G04 #@! TO.C,J8*
X110000000Y-126310000D03*
D25*
X110000000Y-128850000D03*
G04 #@! TD*
G04 #@! TO.C,F1*
G36*
G01*
X177125000Y-97525000D02*
X178375000Y-97525000D01*
G75*
G02*
X178625000Y-97775000I0J-250000D01*
G01*
X178625000Y-98525000D01*
G75*
G02*
X178375000Y-98775000I-250000J0D01*
G01*
X177125000Y-98775000D01*
G75*
G02*
X176875000Y-98525000I0J250000D01*
G01*
X176875000Y-97775000D01*
G75*
G02*
X177125000Y-97525000I250000J0D01*
G01*
G37*
G36*
G01*
X177125000Y-94725000D02*
X178375000Y-94725000D01*
G75*
G02*
X178625000Y-94975000I0J-250000D01*
G01*
X178625000Y-95725000D01*
G75*
G02*
X178375000Y-95975000I-250000J0D01*
G01*
X177125000Y-95975000D01*
G75*
G02*
X176875000Y-95725000I0J250000D01*
G01*
X176875000Y-94975000D01*
G75*
G02*
X177125000Y-94725000I250000J0D01*
G01*
G37*
G04 #@! TD*
G04 #@! TO.C,C15*
G36*
G01*
X177930000Y-125040000D02*
X178270000Y-125040000D01*
G75*
G02*
X178410000Y-125180000I0J-140000D01*
G01*
X178410000Y-125460000D01*
G75*
G02*
X178270000Y-125600000I-140000J0D01*
G01*
X177930000Y-125600000D01*
G75*
G02*
X177790000Y-125460000I0J140000D01*
G01*
X177790000Y-125180000D01*
G75*
G02*
X177930000Y-125040000I140000J0D01*
G01*
G37*
G36*
G01*
X177930000Y-126000000D02*
X178270000Y-126000000D01*
G75*
G02*
X178410000Y-126140000I0J-140000D01*
G01*
X178410000Y-126420000D01*
G75*
G02*
X178270000Y-126560000I-140000J0D01*
G01*
X177930000Y-126560000D01*
G75*
G02*
X177790000Y-126420000I0J140000D01*
G01*
X177790000Y-126140000D01*
G75*
G02*
X177930000Y-126000000I140000J0D01*
G01*
G37*
G04 #@! TD*
G04 #@! TO.C,C20*
G36*
G01*
X174775000Y-96750000D02*
X175725000Y-96750000D01*
G75*
G02*
X175975000Y-97000000I0J-250000D01*
G01*
X175975000Y-97500000D01*
G75*
G02*
X175725000Y-97750000I-250000J0D01*
G01*
X174775000Y-97750000D01*
G75*
G02*
X174525000Y-97500000I0J250000D01*
G01*
X174525000Y-97000000D01*
G75*
G02*
X174775000Y-96750000I250000J0D01*
G01*
G37*
G36*
G01*
X174775000Y-94850000D02*
X175725000Y-94850000D01*
G75*
G02*
X175975000Y-95100000I0J-250000D01*
G01*
X175975000Y-95600000D01*
G75*
G02*
X175725000Y-95850000I-250000J0D01*
G01*
X174775000Y-95850000D01*
G75*
G02*
X174525000Y-95600000I0J250000D01*
G01*
X174525000Y-95100000D01*
G75*
G02*
X174775000Y-94850000I250000J0D01*
G01*
G37*
G04 #@! TD*
G04 #@! TO.C,C22*
G36*
G01*
X114080000Y-120400000D02*
X114420000Y-120400000D01*
G75*
G02*
X114560000Y-120540000I0J-140000D01*
G01*
X114560000Y-120820000D01*
G75*
G02*
X114420000Y-120960000I-140000J0D01*
G01*
X114080000Y-120960000D01*
G75*
G02*
X113940000Y-120820000I0J140000D01*
G01*
X113940000Y-120540000D01*
G75*
G02*
X114080000Y-120400000I140000J0D01*
G01*
G37*
G36*
G01*
X114080000Y-119440000D02*
X114420000Y-119440000D01*
G75*
G02*
X114560000Y-119580000I0J-140000D01*
G01*
X114560000Y-119860000D01*
G75*
G02*
X114420000Y-120000000I-140000J0D01*
G01*
X114080000Y-120000000D01*
G75*
G02*
X113940000Y-119860000I0J140000D01*
G01*
X113940000Y-119580000D01*
G75*
G02*
X114080000Y-119440000I140000J0D01*
G01*
G37*
G04 #@! TD*
G04 #@! TO.C,C26*
G36*
G01*
X163150000Y-106675000D02*
X163150000Y-107625000D01*
G75*
G02*
X162900000Y-107875000I-250000J0D01*
G01*
X162400000Y-107875000D01*
G75*
G02*
X162150000Y-107625000I0J250000D01*
G01*
X162150000Y-106675000D01*
G75*
G02*
X162400000Y-106425000I250000J0D01*
G01*
X162900000Y-106425000D01*
G75*
G02*
X163150000Y-106675000I0J-250000D01*
G01*
G37*
G36*
G01*
X165050000Y-106675000D02*
X165050000Y-107625000D01*
G75*
G02*
X164800000Y-107875000I-250000J0D01*
G01*
X164300000Y-107875000D01*
G75*
G02*
X164050000Y-107625000I0J250000D01*
G01*
X164050000Y-106675000D01*
G75*
G02*
X164300000Y-106425000I250000J0D01*
G01*
X164800000Y-106425000D01*
G75*
G02*
X165050000Y-106675000I0J-250000D01*
G01*
G37*
G04 #@! TD*
G04 #@! TO.C,C29*
G36*
G01*
X110080000Y-119440000D02*
X110420000Y-119440000D01*
G75*
G02*
X110560000Y-119580000I0J-140000D01*
G01*
X110560000Y-119860000D01*
G75*
G02*
X110420000Y-120000000I-140000J0D01*
G01*
X110080000Y-120000000D01*
G75*
G02*
X109940000Y-119860000I0J140000D01*
G01*
X109940000Y-119580000D01*
G75*
G02*
X110080000Y-119440000I140000J0D01*
G01*
G37*
G36*
G01*
X110080000Y-120400000D02*
X110420000Y-120400000D01*
G75*
G02*
X110560000Y-120540000I0J-140000D01*
G01*
X110560000Y-120820000D01*
G75*
G02*
X110420000Y-120960000I-140000J0D01*
G01*
X110080000Y-120960000D01*
G75*
G02*
X109940000Y-120820000I0J140000D01*
G01*
X109940000Y-120540000D01*
G75*
G02*
X110080000Y-120400000I140000J0D01*
G01*
G37*
G04 #@! TD*
G04 #@! TO.C,C37*
G36*
G01*
X171850000Y-106725000D02*
X171850000Y-105775000D01*
G75*
G02*
X172100000Y-105525000I250000J0D01*
G01*
X172600000Y-105525000D01*
G75*
G02*
X172850000Y-105775000I0J-250000D01*
G01*
X172850000Y-106725000D01*
G75*
G02*
X172600000Y-106975000I-250000J0D01*
G01*
X172100000Y-106975000D01*
G75*
G02*
X171850000Y-106725000I0J250000D01*
G01*
G37*
G36*
G01*
X169950000Y-106725000D02*
X169950000Y-105775000D01*
G75*
G02*
X170200000Y-105525000I250000J0D01*
G01*
X170700000Y-105525000D01*
G75*
G02*
X170950000Y-105775000I0J-250000D01*
G01*
X170950000Y-106725000D01*
G75*
G02*
X170700000Y-106975000I-250000J0D01*
G01*
X170200000Y-106975000D01*
G75*
G02*
X169950000Y-106725000I0J250000D01*
G01*
G37*
G04 #@! TD*
G04 #@! TO.C,C36*
G36*
G01*
X157475000Y-109900000D02*
X156525000Y-109900000D01*
G75*
G02*
X156275000Y-109650000I0J250000D01*
G01*
X156275000Y-109150000D01*
G75*
G02*
X156525000Y-108900000I250000J0D01*
G01*
X157475000Y-108900000D01*
G75*
G02*
X157725000Y-109150000I0J-250000D01*
G01*
X157725000Y-109650000D01*
G75*
G02*
X157475000Y-109900000I-250000J0D01*
G01*
G37*
G36*
G01*
X157475000Y-108000000D02*
X156525000Y-108000000D01*
G75*
G02*
X156275000Y-107750000I0J250000D01*
G01*
X156275000Y-107250000D01*
G75*
G02*
X156525000Y-107000000I250000J0D01*
G01*
X157475000Y-107000000D01*
G75*
G02*
X157725000Y-107250000I0J-250000D01*
G01*
X157725000Y-107750000D01*
G75*
G02*
X157475000Y-108000000I-250000J0D01*
G01*
G37*
G04 #@! TD*
D26*
G04 #@! TO.C,D10*
X173000000Y-96050000D03*
X173000000Y-97450000D03*
G04 #@! TD*
G04 #@! TO.C,D14*
G36*
G01*
X192950000Y-143443750D02*
X192950000Y-143956250D01*
G75*
G02*
X192731250Y-144175000I-218750J0D01*
G01*
X192293750Y-144175000D01*
G75*
G02*
X192075000Y-143956250I0J218750D01*
G01*
X192075000Y-143443750D01*
G75*
G02*
X192293750Y-143225000I218750J0D01*
G01*
X192731250Y-143225000D01*
G75*
G02*
X192950000Y-143443750I0J-218750D01*
G01*
G37*
G36*
G01*
X194525000Y-143443750D02*
X194525000Y-143956250D01*
G75*
G02*
X194306250Y-144175000I-218750J0D01*
G01*
X193868750Y-144175000D01*
G75*
G02*
X193650000Y-143956250I0J218750D01*
G01*
X193650000Y-143443750D01*
G75*
G02*
X193868750Y-143225000I218750J0D01*
G01*
X194306250Y-143225000D01*
G75*
G02*
X194525000Y-143443750I0J-218750D01*
G01*
G37*
G04 #@! TD*
G04 #@! TO.C,R7*
G36*
G01*
X177915000Y-123440000D02*
X178285000Y-123440000D01*
G75*
G02*
X178420000Y-123575000I0J-135000D01*
G01*
X178420000Y-123845000D01*
G75*
G02*
X178285000Y-123980000I-135000J0D01*
G01*
X177915000Y-123980000D01*
G75*
G02*
X177780000Y-123845000I0J135000D01*
G01*
X177780000Y-123575000D01*
G75*
G02*
X177915000Y-123440000I135000J0D01*
G01*
G37*
G36*
G01*
X177915000Y-122420000D02*
X178285000Y-122420000D01*
G75*
G02*
X178420000Y-122555000I0J-135000D01*
G01*
X178420000Y-122825000D01*
G75*
G02*
X178285000Y-122960000I-135000J0D01*
G01*
X177915000Y-122960000D01*
G75*
G02*
X177780000Y-122825000I0J135000D01*
G01*
X177780000Y-122555000D01*
G75*
G02*
X177915000Y-122420000I135000J0D01*
G01*
G37*
G04 #@! TD*
G04 #@! TO.C,R18*
G36*
G01*
X185140000Y-143495000D02*
X185140000Y-143865000D01*
G75*
G02*
X185005000Y-144000000I-135000J0D01*
G01*
X184735000Y-144000000D01*
G75*
G02*
X184600000Y-143865000I0J135000D01*
G01*
X184600000Y-143495000D01*
G75*
G02*
X184735000Y-143360000I135000J0D01*
G01*
X185005000Y-143360000D01*
G75*
G02*
X185140000Y-143495000I0J-135000D01*
G01*
G37*
G36*
G01*
X184120000Y-143495000D02*
X184120000Y-143865000D01*
G75*
G02*
X183985000Y-144000000I-135000J0D01*
G01*
X183715000Y-144000000D01*
G75*
G02*
X183580000Y-143865000I0J135000D01*
G01*
X183580000Y-143495000D01*
G75*
G02*
X183715000Y-143360000I135000J0D01*
G01*
X183985000Y-143360000D01*
G75*
G02*
X184120000Y-143495000I0J-135000D01*
G01*
G37*
G04 #@! TD*
G04 #@! TO.C,R33*
G36*
G01*
X164160000Y-108565000D02*
X164160000Y-108935000D01*
G75*
G02*
X164025000Y-109070000I-135000J0D01*
G01*
X163755000Y-109070000D01*
G75*
G02*
X163620000Y-108935000I0J135000D01*
G01*
X163620000Y-108565000D01*
G75*
G02*
X163755000Y-108430000I135000J0D01*
G01*
X164025000Y-108430000D01*
G75*
G02*
X164160000Y-108565000I0J-135000D01*
G01*
G37*
G36*
G01*
X165180000Y-108565000D02*
X165180000Y-108935000D01*
G75*
G02*
X165045000Y-109070000I-135000J0D01*
G01*
X164775000Y-109070000D01*
G75*
G02*
X164640000Y-108935000I0J135000D01*
G01*
X164640000Y-108565000D01*
G75*
G02*
X164775000Y-108430000I135000J0D01*
G01*
X165045000Y-108430000D01*
G75*
G02*
X165180000Y-108565000I0J-135000D01*
G01*
G37*
G04 #@! TD*
G04 #@! TO.C,R35*
G36*
G01*
X165180000Y-109565000D02*
X165180000Y-109935000D01*
G75*
G02*
X165045000Y-110070000I-135000J0D01*
G01*
X164775000Y-110070000D01*
G75*
G02*
X164640000Y-109935000I0J135000D01*
G01*
X164640000Y-109565000D01*
G75*
G02*
X164775000Y-109430000I135000J0D01*
G01*
X165045000Y-109430000D01*
G75*
G02*
X165180000Y-109565000I0J-135000D01*
G01*
G37*
G36*
G01*
X164160000Y-109565000D02*
X164160000Y-109935000D01*
G75*
G02*
X164025000Y-110070000I-135000J0D01*
G01*
X163755000Y-110070000D01*
G75*
G02*
X163620000Y-109935000I0J135000D01*
G01*
X163620000Y-109565000D01*
G75*
G02*
X163755000Y-109430000I135000J0D01*
G01*
X164025000Y-109430000D01*
G75*
G02*
X164160000Y-109565000I0J-135000D01*
G01*
G37*
G04 #@! TD*
G04 #@! TO.C,R38*
G36*
G01*
X169820000Y-108035000D02*
X169820000Y-107665000D01*
G75*
G02*
X169955000Y-107530000I135000J0D01*
G01*
X170225000Y-107530000D01*
G75*
G02*
X170360000Y-107665000I0J-135000D01*
G01*
X170360000Y-108035000D01*
G75*
G02*
X170225000Y-108170000I-135000J0D01*
G01*
X169955000Y-108170000D01*
G75*
G02*
X169820000Y-108035000I0J135000D01*
G01*
G37*
G36*
G01*
X170840000Y-108035000D02*
X170840000Y-107665000D01*
G75*
G02*
X170975000Y-107530000I135000J0D01*
G01*
X171245000Y-107530000D01*
G75*
G02*
X171380000Y-107665000I0J-135000D01*
G01*
X171380000Y-108035000D01*
G75*
G02*
X171245000Y-108170000I-135000J0D01*
G01*
X170975000Y-108170000D01*
G75*
G02*
X170840000Y-108035000I0J135000D01*
G01*
G37*
G04 #@! TD*
G04 #@! TO.C,R40*
G36*
G01*
X170840000Y-109035000D02*
X170840000Y-108665000D01*
G75*
G02*
X170975000Y-108530000I135000J0D01*
G01*
X171245000Y-108530000D01*
G75*
G02*
X171380000Y-108665000I0J-135000D01*
G01*
X171380000Y-109035000D01*
G75*
G02*
X171245000Y-109170000I-135000J0D01*
G01*
X170975000Y-109170000D01*
G75*
G02*
X170840000Y-109035000I0J135000D01*
G01*
G37*
G36*
G01*
X169820000Y-109035000D02*
X169820000Y-108665000D01*
G75*
G02*
X169955000Y-108530000I135000J0D01*
G01*
X170225000Y-108530000D01*
G75*
G02*
X170360000Y-108665000I0J-135000D01*
G01*
X170360000Y-109035000D01*
G75*
G02*
X170225000Y-109170000I-135000J0D01*
G01*
X169955000Y-109170000D01*
G75*
G02*
X169820000Y-109035000I0J135000D01*
G01*
G37*
G04 #@! TD*
G04 #@! TO.C,R42*
G36*
G01*
X169820000Y-110035000D02*
X169820000Y-109665000D01*
G75*
G02*
X169955000Y-109530000I135000J0D01*
G01*
X170225000Y-109530000D01*
G75*
G02*
X170360000Y-109665000I0J-135000D01*
G01*
X170360000Y-110035000D01*
G75*
G02*
X170225000Y-110170000I-135000J0D01*
G01*
X169955000Y-110170000D01*
G75*
G02*
X169820000Y-110035000I0J135000D01*
G01*
G37*
G36*
G01*
X170840000Y-110035000D02*
X170840000Y-109665000D01*
G75*
G02*
X170975000Y-109530000I135000J0D01*
G01*
X171245000Y-109530000D01*
G75*
G02*
X171380000Y-109665000I0J-135000D01*
G01*
X171380000Y-110035000D01*
G75*
G02*
X171245000Y-110170000I-135000J0D01*
G01*
X170975000Y-110170000D01*
G75*
G02*
X170840000Y-110035000I0J135000D01*
G01*
G37*
G04 #@! TD*
G04 #@! TO.C,C1*
G36*
G01*
X110230000Y-99000000D02*
X110570000Y-99000000D01*
G75*
G02*
X110710000Y-99140000I0J-140000D01*
G01*
X110710000Y-99420000D01*
G75*
G02*
X110570000Y-99560000I-140000J0D01*
G01*
X110230000Y-99560000D01*
G75*
G02*
X110090000Y-99420000I0J140000D01*
G01*
X110090000Y-99140000D01*
G75*
G02*
X110230000Y-99000000I140000J0D01*
G01*
G37*
G36*
G01*
X110230000Y-98040000D02*
X110570000Y-98040000D01*
G75*
G02*
X110710000Y-98180000I0J-140000D01*
G01*
X110710000Y-98460000D01*
G75*
G02*
X110570000Y-98600000I-140000J0D01*
G01*
X110230000Y-98600000D01*
G75*
G02*
X110090000Y-98460000I0J140000D01*
G01*
X110090000Y-98180000D01*
G75*
G02*
X110230000Y-98040000I140000J0D01*
G01*
G37*
G04 #@! TD*
G04 #@! TO.C,C2*
G36*
G01*
X118770000Y-115200000D02*
X118430000Y-115200000D01*
G75*
G02*
X118290000Y-115060000I0J140000D01*
G01*
X118290000Y-114780000D01*
G75*
G02*
X118430000Y-114640000I140000J0D01*
G01*
X118770000Y-114640000D01*
G75*
G02*
X118910000Y-114780000I0J-140000D01*
G01*
X118910000Y-115060000D01*
G75*
G02*
X118770000Y-115200000I-140000J0D01*
G01*
G37*
G36*
G01*
X118770000Y-116160000D02*
X118430000Y-116160000D01*
G75*
G02*
X118290000Y-116020000I0J140000D01*
G01*
X118290000Y-115740000D01*
G75*
G02*
X118430000Y-115600000I140000J0D01*
G01*
X118770000Y-115600000D01*
G75*
G02*
X118910000Y-115740000I0J-140000D01*
G01*
X118910000Y-116020000D01*
G75*
G02*
X118770000Y-116160000I-140000J0D01*
G01*
G37*
G04 #@! TD*
G04 #@! TO.C,C3*
G36*
G01*
X173380000Y-110570000D02*
X173720000Y-110570000D01*
G75*
G02*
X173860000Y-110710000I0J-140000D01*
G01*
X173860000Y-110990000D01*
G75*
G02*
X173720000Y-111130000I-140000J0D01*
G01*
X173380000Y-111130000D01*
G75*
G02*
X173240000Y-110990000I0J140000D01*
G01*
X173240000Y-110710000D01*
G75*
G02*
X173380000Y-110570000I140000J0D01*
G01*
G37*
G36*
G01*
X173380000Y-109610000D02*
X173720000Y-109610000D01*
G75*
G02*
X173860000Y-109750000I0J-140000D01*
G01*
X173860000Y-110030000D01*
G75*
G02*
X173720000Y-110170000I-140000J0D01*
G01*
X173380000Y-110170000D01*
G75*
G02*
X173240000Y-110030000I0J140000D01*
G01*
X173240000Y-109750000D01*
G75*
G02*
X173380000Y-109610000I140000J0D01*
G01*
G37*
G04 #@! TD*
G04 #@! TO.C,C4*
G36*
G01*
X127570000Y-98600000D02*
X127230000Y-98600000D01*
G75*
G02*
X127090000Y-98460000I0J140000D01*
G01*
X127090000Y-98180000D01*
G75*
G02*
X127230000Y-98040000I140000J0D01*
G01*
X127570000Y-98040000D01*
G75*
G02*
X127710000Y-98180000I0J-140000D01*
G01*
X127710000Y-98460000D01*
G75*
G02*
X127570000Y-98600000I-140000J0D01*
G01*
G37*
G36*
G01*
X127570000Y-99560000D02*
X127230000Y-99560000D01*
G75*
G02*
X127090000Y-99420000I0J140000D01*
G01*
X127090000Y-99140000D01*
G75*
G02*
X127230000Y-99000000I140000J0D01*
G01*
X127570000Y-99000000D01*
G75*
G02*
X127710000Y-99140000I0J-140000D01*
G01*
X127710000Y-99420000D01*
G75*
G02*
X127570000Y-99560000I-140000J0D01*
G01*
G37*
G04 #@! TD*
G04 #@! TO.C,C5*
G36*
G01*
X112770000Y-98600000D02*
X112430000Y-98600000D01*
G75*
G02*
X112290000Y-98460000I0J140000D01*
G01*
X112290000Y-98180000D01*
G75*
G02*
X112430000Y-98040000I140000J0D01*
G01*
X112770000Y-98040000D01*
G75*
G02*
X112910000Y-98180000I0J-140000D01*
G01*
X112910000Y-98460000D01*
G75*
G02*
X112770000Y-98600000I-140000J0D01*
G01*
G37*
G36*
G01*
X112770000Y-99560000D02*
X112430000Y-99560000D01*
G75*
G02*
X112290000Y-99420000I0J140000D01*
G01*
X112290000Y-99140000D01*
G75*
G02*
X112430000Y-99000000I140000J0D01*
G01*
X112770000Y-99000000D01*
G75*
G02*
X112910000Y-99140000I0J-140000D01*
G01*
X112910000Y-99420000D01*
G75*
G02*
X112770000Y-99560000I-140000J0D01*
G01*
G37*
G04 #@! TD*
G04 #@! TO.C,C6*
G36*
G01*
X120430000Y-115600000D02*
X120770000Y-115600000D01*
G75*
G02*
X120910000Y-115740000I0J-140000D01*
G01*
X120910000Y-116020000D01*
G75*
G02*
X120770000Y-116160000I-140000J0D01*
G01*
X120430000Y-116160000D01*
G75*
G02*
X120290000Y-116020000I0J140000D01*
G01*
X120290000Y-115740000D01*
G75*
G02*
X120430000Y-115600000I140000J0D01*
G01*
G37*
G36*
G01*
X120430000Y-114640000D02*
X120770000Y-114640000D01*
G75*
G02*
X120910000Y-114780000I0J-140000D01*
G01*
X120910000Y-115060000D01*
G75*
G02*
X120770000Y-115200000I-140000J0D01*
G01*
X120430000Y-115200000D01*
G75*
G02*
X120290000Y-115060000I0J140000D01*
G01*
X120290000Y-114780000D01*
G75*
G02*
X120430000Y-114640000I140000J0D01*
G01*
G37*
G04 #@! TD*
G04 #@! TO.C,C7*
G36*
G01*
X113870000Y-99560000D02*
X113530000Y-99560000D01*
G75*
G02*
X113390000Y-99420000I0J140000D01*
G01*
X113390000Y-99140000D01*
G75*
G02*
X113530000Y-99000000I140000J0D01*
G01*
X113870000Y-99000000D01*
G75*
G02*
X114010000Y-99140000I0J-140000D01*
G01*
X114010000Y-99420000D01*
G75*
G02*
X113870000Y-99560000I-140000J0D01*
G01*
G37*
G36*
G01*
X113870000Y-98600000D02*
X113530000Y-98600000D01*
G75*
G02*
X113390000Y-98460000I0J140000D01*
G01*
X113390000Y-98180000D01*
G75*
G02*
X113530000Y-98040000I140000J0D01*
G01*
X113870000Y-98040000D01*
G75*
G02*
X114010000Y-98180000I0J-140000D01*
G01*
X114010000Y-98460000D01*
G75*
G02*
X113870000Y-98600000I-140000J0D01*
G01*
G37*
G04 #@! TD*
G04 #@! TO.C,C8*
G36*
G01*
X122430000Y-114640000D02*
X122770000Y-114640000D01*
G75*
G02*
X122910000Y-114780000I0J-140000D01*
G01*
X122910000Y-115060000D01*
G75*
G02*
X122770000Y-115200000I-140000J0D01*
G01*
X122430000Y-115200000D01*
G75*
G02*
X122290000Y-115060000I0J140000D01*
G01*
X122290000Y-114780000D01*
G75*
G02*
X122430000Y-114640000I140000J0D01*
G01*
G37*
G36*
G01*
X122430000Y-115600000D02*
X122770000Y-115600000D01*
G75*
G02*
X122910000Y-115740000I0J-140000D01*
G01*
X122910000Y-116020000D01*
G75*
G02*
X122770000Y-116160000I-140000J0D01*
G01*
X122430000Y-116160000D01*
G75*
G02*
X122290000Y-116020000I0J140000D01*
G01*
X122290000Y-115740000D01*
G75*
G02*
X122430000Y-115600000I140000J0D01*
G01*
G37*
G04 #@! TD*
G04 #@! TO.C,C9*
G36*
G01*
X122070000Y-99560000D02*
X121730000Y-99560000D01*
G75*
G02*
X121590000Y-99420000I0J140000D01*
G01*
X121590000Y-99140000D01*
G75*
G02*
X121730000Y-99000000I140000J0D01*
G01*
X122070000Y-99000000D01*
G75*
G02*
X122210000Y-99140000I0J-140000D01*
G01*
X122210000Y-99420000D01*
G75*
G02*
X122070000Y-99560000I-140000J0D01*
G01*
G37*
G36*
G01*
X122070000Y-98600000D02*
X121730000Y-98600000D01*
G75*
G02*
X121590000Y-98460000I0J140000D01*
G01*
X121590000Y-98180000D01*
G75*
G02*
X121730000Y-98040000I140000J0D01*
G01*
X122070000Y-98040000D01*
G75*
G02*
X122210000Y-98180000I0J-140000D01*
G01*
X122210000Y-98460000D01*
G75*
G02*
X122070000Y-98600000I-140000J0D01*
G01*
G37*
G04 #@! TD*
G04 #@! TO.C,C11*
G36*
G01*
X124270000Y-98600000D02*
X123930000Y-98600000D01*
G75*
G02*
X123790000Y-98460000I0J140000D01*
G01*
X123790000Y-98180000D01*
G75*
G02*
X123930000Y-98040000I140000J0D01*
G01*
X124270000Y-98040000D01*
G75*
G02*
X124410000Y-98180000I0J-140000D01*
G01*
X124410000Y-98460000D01*
G75*
G02*
X124270000Y-98600000I-140000J0D01*
G01*
G37*
G36*
G01*
X124270000Y-99560000D02*
X123930000Y-99560000D01*
G75*
G02*
X123790000Y-99420000I0J140000D01*
G01*
X123790000Y-99140000D01*
G75*
G02*
X123930000Y-99000000I140000J0D01*
G01*
X124270000Y-99000000D01*
G75*
G02*
X124410000Y-99140000I0J-140000D01*
G01*
X124410000Y-99420000D01*
G75*
G02*
X124270000Y-99560000I-140000J0D01*
G01*
G37*
G04 #@! TD*
G04 #@! TO.C,C13*
G36*
G01*
X126470000Y-99560000D02*
X126130000Y-99560000D01*
G75*
G02*
X125990000Y-99420000I0J140000D01*
G01*
X125990000Y-99140000D01*
G75*
G02*
X126130000Y-99000000I140000J0D01*
G01*
X126470000Y-99000000D01*
G75*
G02*
X126610000Y-99140000I0J-140000D01*
G01*
X126610000Y-99420000D01*
G75*
G02*
X126470000Y-99560000I-140000J0D01*
G01*
G37*
G36*
G01*
X126470000Y-98600000D02*
X126130000Y-98600000D01*
G75*
G02*
X125990000Y-98460000I0J140000D01*
G01*
X125990000Y-98180000D01*
G75*
G02*
X126130000Y-98040000I140000J0D01*
G01*
X126470000Y-98040000D01*
G75*
G02*
X126610000Y-98180000I0J-140000D01*
G01*
X126610000Y-98460000D01*
G75*
G02*
X126470000Y-98600000I-140000J0D01*
G01*
G37*
G04 #@! TD*
G04 #@! TO.C,C18*
G36*
G01*
X180435000Y-143920000D02*
X180435000Y-143420000D01*
G75*
G02*
X180660000Y-143195000I225000J0D01*
G01*
X181110000Y-143195000D01*
G75*
G02*
X181335000Y-143420000I0J-225000D01*
G01*
X181335000Y-143920000D01*
G75*
G02*
X181110000Y-144145000I-225000J0D01*
G01*
X180660000Y-144145000D01*
G75*
G02*
X180435000Y-143920000I0J225000D01*
G01*
G37*
G36*
G01*
X178885000Y-143920000D02*
X178885000Y-143420000D01*
G75*
G02*
X179110000Y-143195000I225000J0D01*
G01*
X179560000Y-143195000D01*
G75*
G02*
X179785000Y-143420000I0J-225000D01*
G01*
X179785000Y-143920000D01*
G75*
G02*
X179560000Y-144145000I-225000J0D01*
G01*
X179110000Y-144145000D01*
G75*
G02*
X178885000Y-143920000I0J225000D01*
G01*
G37*
G04 #@! TD*
G04 #@! TO.C,C19*
G36*
G01*
X106075000Y-135170000D02*
X106075000Y-134830000D01*
G75*
G02*
X106215000Y-134690000I140000J0D01*
G01*
X106495000Y-134690000D01*
G75*
G02*
X106635000Y-134830000I0J-140000D01*
G01*
X106635000Y-135170000D01*
G75*
G02*
X106495000Y-135310000I-140000J0D01*
G01*
X106215000Y-135310000D01*
G75*
G02*
X106075000Y-135170000I0J140000D01*
G01*
G37*
G36*
G01*
X105115000Y-135170000D02*
X105115000Y-134830000D01*
G75*
G02*
X105255000Y-134690000I140000J0D01*
G01*
X105535000Y-134690000D01*
G75*
G02*
X105675000Y-134830000I0J-140000D01*
G01*
X105675000Y-135170000D01*
G75*
G02*
X105535000Y-135310000I-140000J0D01*
G01*
X105255000Y-135310000D01*
G75*
G02*
X105115000Y-135170000I0J140000D01*
G01*
G37*
G04 #@! TD*
G04 #@! TO.C,C21*
G36*
G01*
X129370000Y-116160000D02*
X129030000Y-116160000D01*
G75*
G02*
X128890000Y-116020000I0J140000D01*
G01*
X128890000Y-115740000D01*
G75*
G02*
X129030000Y-115600000I140000J0D01*
G01*
X129370000Y-115600000D01*
G75*
G02*
X129510000Y-115740000I0J-140000D01*
G01*
X129510000Y-116020000D01*
G75*
G02*
X129370000Y-116160000I-140000J0D01*
G01*
G37*
G36*
G01*
X129370000Y-115200000D02*
X129030000Y-115200000D01*
G75*
G02*
X128890000Y-115060000I0J140000D01*
G01*
X128890000Y-114780000D01*
G75*
G02*
X129030000Y-114640000I140000J0D01*
G01*
X129370000Y-114640000D01*
G75*
G02*
X129510000Y-114780000I0J-140000D01*
G01*
X129510000Y-115060000D01*
G75*
G02*
X129370000Y-115200000I-140000J0D01*
G01*
G37*
G04 #@! TD*
G04 #@! TO.C,C23*
G36*
G01*
X199825000Y-117250000D02*
X198875000Y-117250000D01*
G75*
G02*
X198625000Y-117000000I0J250000D01*
G01*
X198625000Y-116500000D01*
G75*
G02*
X198875000Y-116250000I250000J0D01*
G01*
X199825000Y-116250000D01*
G75*
G02*
X200075000Y-116500000I0J-250000D01*
G01*
X200075000Y-117000000D01*
G75*
G02*
X199825000Y-117250000I-250000J0D01*
G01*
G37*
G36*
G01*
X199825000Y-119150000D02*
X198875000Y-119150000D01*
G75*
G02*
X198625000Y-118900000I0J250000D01*
G01*
X198625000Y-118400000D01*
G75*
G02*
X198875000Y-118150000I250000J0D01*
G01*
X199825000Y-118150000D01*
G75*
G02*
X200075000Y-118400000I0J-250000D01*
G01*
X200075000Y-118900000D01*
G75*
G02*
X199825000Y-119150000I-250000J0D01*
G01*
G37*
G04 #@! TD*
G04 #@! TO.C,C25*
G36*
G01*
X105140000Y-132270000D02*
X105140000Y-131930000D01*
G75*
G02*
X105280000Y-131790000I140000J0D01*
G01*
X105560000Y-131790000D01*
G75*
G02*
X105700000Y-131930000I0J-140000D01*
G01*
X105700000Y-132270000D01*
G75*
G02*
X105560000Y-132410000I-140000J0D01*
G01*
X105280000Y-132410000D01*
G75*
G02*
X105140000Y-132270000I0J140000D01*
G01*
G37*
G36*
G01*
X106100000Y-132270000D02*
X106100000Y-131930000D01*
G75*
G02*
X106240000Y-131790000I140000J0D01*
G01*
X106520000Y-131790000D01*
G75*
G02*
X106660000Y-131930000I0J-140000D01*
G01*
X106660000Y-132270000D01*
G75*
G02*
X106520000Y-132410000I-140000J0D01*
G01*
X106240000Y-132410000D01*
G75*
G02*
X106100000Y-132270000I0J140000D01*
G01*
G37*
G04 #@! TD*
G04 #@! TO.C,C27*
G36*
G01*
X131030000Y-114640000D02*
X131370000Y-114640000D01*
G75*
G02*
X131510000Y-114780000I0J-140000D01*
G01*
X131510000Y-115060000D01*
G75*
G02*
X131370000Y-115200000I-140000J0D01*
G01*
X131030000Y-115200000D01*
G75*
G02*
X130890000Y-115060000I0J140000D01*
G01*
X130890000Y-114780000D01*
G75*
G02*
X131030000Y-114640000I140000J0D01*
G01*
G37*
G36*
G01*
X131030000Y-115600000D02*
X131370000Y-115600000D01*
G75*
G02*
X131510000Y-115740000I0J-140000D01*
G01*
X131510000Y-116020000D01*
G75*
G02*
X131370000Y-116160000I-140000J0D01*
G01*
X131030000Y-116160000D01*
G75*
G02*
X130890000Y-116020000I0J140000D01*
G01*
X130890000Y-115740000D01*
G75*
G02*
X131030000Y-115600000I140000J0D01*
G01*
G37*
G04 #@! TD*
G04 #@! TO.C,C28*
G36*
G01*
X197870000Y-124460000D02*
X197530000Y-124460000D01*
G75*
G02*
X197390000Y-124320000I0J140000D01*
G01*
X197390000Y-124040000D01*
G75*
G02*
X197530000Y-123900000I140000J0D01*
G01*
X197870000Y-123900000D01*
G75*
G02*
X198010000Y-124040000I0J-140000D01*
G01*
X198010000Y-124320000D01*
G75*
G02*
X197870000Y-124460000I-140000J0D01*
G01*
G37*
G36*
G01*
X197870000Y-123500000D02*
X197530000Y-123500000D01*
G75*
G02*
X197390000Y-123360000I0J140000D01*
G01*
X197390000Y-123080000D01*
G75*
G02*
X197530000Y-122940000I140000J0D01*
G01*
X197870000Y-122940000D01*
G75*
G02*
X198010000Y-123080000I0J-140000D01*
G01*
X198010000Y-123360000D01*
G75*
G02*
X197870000Y-123500000I-140000J0D01*
G01*
G37*
G04 #@! TD*
G04 #@! TO.C,C30*
G36*
G01*
X132030000Y-114640000D02*
X132370000Y-114640000D01*
G75*
G02*
X132510000Y-114780000I0J-140000D01*
G01*
X132510000Y-115060000D01*
G75*
G02*
X132370000Y-115200000I-140000J0D01*
G01*
X132030000Y-115200000D01*
G75*
G02*
X131890000Y-115060000I0J140000D01*
G01*
X131890000Y-114780000D01*
G75*
G02*
X132030000Y-114640000I140000J0D01*
G01*
G37*
G36*
G01*
X132030000Y-115600000D02*
X132370000Y-115600000D01*
G75*
G02*
X132510000Y-115740000I0J-140000D01*
G01*
X132510000Y-116020000D01*
G75*
G02*
X132370000Y-116160000I-140000J0D01*
G01*
X132030000Y-116160000D01*
G75*
G02*
X131890000Y-116020000I0J140000D01*
G01*
X131890000Y-115740000D01*
G75*
G02*
X132030000Y-115600000I140000J0D01*
G01*
G37*
G04 #@! TD*
G04 #@! TO.C,C31*
G36*
G01*
X198470000Y-104850000D02*
X198130000Y-104850000D01*
G75*
G02*
X197990000Y-104710000I0J140000D01*
G01*
X197990000Y-104430000D01*
G75*
G02*
X198130000Y-104290000I140000J0D01*
G01*
X198470000Y-104290000D01*
G75*
G02*
X198610000Y-104430000I0J-140000D01*
G01*
X198610000Y-104710000D01*
G75*
G02*
X198470000Y-104850000I-140000J0D01*
G01*
G37*
G36*
G01*
X198470000Y-105810000D02*
X198130000Y-105810000D01*
G75*
G02*
X197990000Y-105670000I0J140000D01*
G01*
X197990000Y-105390000D01*
G75*
G02*
X198130000Y-105250000I140000J0D01*
G01*
X198470000Y-105250000D01*
G75*
G02*
X198610000Y-105390000I0J-140000D01*
G01*
X198610000Y-105670000D01*
G75*
G02*
X198470000Y-105810000I-140000J0D01*
G01*
G37*
G04 #@! TD*
G04 #@! TO.C,C32*
G36*
G01*
X194330000Y-123900000D02*
X194670000Y-123900000D01*
G75*
G02*
X194810000Y-124040000I0J-140000D01*
G01*
X194810000Y-124320000D01*
G75*
G02*
X194670000Y-124460000I-140000J0D01*
G01*
X194330000Y-124460000D01*
G75*
G02*
X194190000Y-124320000I0J140000D01*
G01*
X194190000Y-124040000D01*
G75*
G02*
X194330000Y-123900000I140000J0D01*
G01*
G37*
G36*
G01*
X194330000Y-122940000D02*
X194670000Y-122940000D01*
G75*
G02*
X194810000Y-123080000I0J-140000D01*
G01*
X194810000Y-123360000D01*
G75*
G02*
X194670000Y-123500000I-140000J0D01*
G01*
X194330000Y-123500000D01*
G75*
G02*
X194190000Y-123360000I0J140000D01*
G01*
X194190000Y-123080000D01*
G75*
G02*
X194330000Y-122940000I140000J0D01*
G01*
G37*
G04 #@! TD*
G04 #@! TO.C,C33*
G36*
G01*
X199470000Y-105810000D02*
X199130000Y-105810000D01*
G75*
G02*
X198990000Y-105670000I0J140000D01*
G01*
X198990000Y-105390000D01*
G75*
G02*
X199130000Y-105250000I140000J0D01*
G01*
X199470000Y-105250000D01*
G75*
G02*
X199610000Y-105390000I0J-140000D01*
G01*
X199610000Y-105670000D01*
G75*
G02*
X199470000Y-105810000I-140000J0D01*
G01*
G37*
G36*
G01*
X199470000Y-104850000D02*
X199130000Y-104850000D01*
G75*
G02*
X198990000Y-104710000I0J140000D01*
G01*
X198990000Y-104430000D01*
G75*
G02*
X199130000Y-104290000I140000J0D01*
G01*
X199470000Y-104290000D01*
G75*
G02*
X199610000Y-104430000I0J-140000D01*
G01*
X199610000Y-104710000D01*
G75*
G02*
X199470000Y-104850000I-140000J0D01*
G01*
G37*
G04 #@! TD*
G04 #@! TO.C,C34*
G36*
G01*
X168230000Y-115040000D02*
X168570000Y-115040000D01*
G75*
G02*
X168710000Y-115180000I0J-140000D01*
G01*
X168710000Y-115460000D01*
G75*
G02*
X168570000Y-115600000I-140000J0D01*
G01*
X168230000Y-115600000D01*
G75*
G02*
X168090000Y-115460000I0J140000D01*
G01*
X168090000Y-115180000D01*
G75*
G02*
X168230000Y-115040000I140000J0D01*
G01*
G37*
G36*
G01*
X168230000Y-116000000D02*
X168570000Y-116000000D01*
G75*
G02*
X168710000Y-116140000I0J-140000D01*
G01*
X168710000Y-116420000D01*
G75*
G02*
X168570000Y-116560000I-140000J0D01*
G01*
X168230000Y-116560000D01*
G75*
G02*
X168090000Y-116420000I0J140000D01*
G01*
X168090000Y-116140000D01*
G75*
G02*
X168230000Y-116000000I140000J0D01*
G01*
G37*
G04 #@! TD*
G04 #@! TO.C,C35*
G36*
G01*
X136490000Y-112470000D02*
X136490000Y-112130000D01*
G75*
G02*
X136630000Y-111990000I140000J0D01*
G01*
X136910000Y-111990000D01*
G75*
G02*
X137050000Y-112130000I0J-140000D01*
G01*
X137050000Y-112470000D01*
G75*
G02*
X136910000Y-112610000I-140000J0D01*
G01*
X136630000Y-112610000D01*
G75*
G02*
X136490000Y-112470000I0J140000D01*
G01*
G37*
G36*
G01*
X137450000Y-112470000D02*
X137450000Y-112130000D01*
G75*
G02*
X137590000Y-111990000I140000J0D01*
G01*
X137870000Y-111990000D01*
G75*
G02*
X138010000Y-112130000I0J-140000D01*
G01*
X138010000Y-112470000D01*
G75*
G02*
X137870000Y-112610000I-140000J0D01*
G01*
X137590000Y-112610000D01*
G75*
G02*
X137450000Y-112470000I0J140000D01*
G01*
G37*
G04 #@! TD*
G04 #@! TO.C,C38*
G36*
G01*
X139150000Y-112130000D02*
X139150000Y-112470000D01*
G75*
G02*
X139010000Y-112610000I-140000J0D01*
G01*
X138730000Y-112610000D01*
G75*
G02*
X138590000Y-112470000I0J140000D01*
G01*
X138590000Y-112130000D01*
G75*
G02*
X138730000Y-111990000I140000J0D01*
G01*
X139010000Y-111990000D01*
G75*
G02*
X139150000Y-112130000I0J-140000D01*
G01*
G37*
G36*
G01*
X140110000Y-112130000D02*
X140110000Y-112470000D01*
G75*
G02*
X139970000Y-112610000I-140000J0D01*
G01*
X139690000Y-112610000D01*
G75*
G02*
X139550000Y-112470000I0J140000D01*
G01*
X139550000Y-112130000D01*
G75*
G02*
X139690000Y-111990000I140000J0D01*
G01*
X139970000Y-111990000D01*
G75*
G02*
X140110000Y-112130000I0J-140000D01*
G01*
G37*
G04 #@! TD*
G04 #@! TO.C,C42*
G36*
G01*
X137450000Y-115770000D02*
X137450000Y-115430000D01*
G75*
G02*
X137590000Y-115290000I140000J0D01*
G01*
X137870000Y-115290000D01*
G75*
G02*
X138010000Y-115430000I0J-140000D01*
G01*
X138010000Y-115770000D01*
G75*
G02*
X137870000Y-115910000I-140000J0D01*
G01*
X137590000Y-115910000D01*
G75*
G02*
X137450000Y-115770000I0J140000D01*
G01*
G37*
G36*
G01*
X136490000Y-115770000D02*
X136490000Y-115430000D01*
G75*
G02*
X136630000Y-115290000I140000J0D01*
G01*
X136910000Y-115290000D01*
G75*
G02*
X137050000Y-115430000I0J-140000D01*
G01*
X137050000Y-115770000D01*
G75*
G02*
X136910000Y-115910000I-140000J0D01*
G01*
X136630000Y-115910000D01*
G75*
G02*
X136490000Y-115770000I0J140000D01*
G01*
G37*
G04 #@! TD*
G04 #@! TO.C,C45*
G36*
G01*
X141940000Y-110730000D02*
X141940000Y-111070000D01*
G75*
G02*
X141800000Y-111210000I-140000J0D01*
G01*
X141520000Y-111210000D01*
G75*
G02*
X141380000Y-111070000I0J140000D01*
G01*
X141380000Y-110730000D01*
G75*
G02*
X141520000Y-110590000I140000J0D01*
G01*
X141800000Y-110590000D01*
G75*
G02*
X141940000Y-110730000I0J-140000D01*
G01*
G37*
G36*
G01*
X140980000Y-110730000D02*
X140980000Y-111070000D01*
G75*
G02*
X140840000Y-111210000I-140000J0D01*
G01*
X140560000Y-111210000D01*
G75*
G02*
X140420000Y-111070000I0J140000D01*
G01*
X140420000Y-110730000D01*
G75*
G02*
X140560000Y-110590000I140000J0D01*
G01*
X140840000Y-110590000D01*
G75*
G02*
X140980000Y-110730000I0J-140000D01*
G01*
G37*
G04 #@! TD*
G04 #@! TO.C,C47*
G36*
G01*
X161970000Y-113760000D02*
X161630000Y-113760000D01*
G75*
G02*
X161490000Y-113620000I0J140000D01*
G01*
X161490000Y-113340000D01*
G75*
G02*
X161630000Y-113200000I140000J0D01*
G01*
X161970000Y-113200000D01*
G75*
G02*
X162110000Y-113340000I0J-140000D01*
G01*
X162110000Y-113620000D01*
G75*
G02*
X161970000Y-113760000I-140000J0D01*
G01*
G37*
G36*
G01*
X161970000Y-112800000D02*
X161630000Y-112800000D01*
G75*
G02*
X161490000Y-112660000I0J140000D01*
G01*
X161490000Y-112380000D01*
G75*
G02*
X161630000Y-112240000I140000J0D01*
G01*
X161970000Y-112240000D01*
G75*
G02*
X162110000Y-112380000I0J-140000D01*
G01*
X162110000Y-112660000D01*
G75*
G02*
X161970000Y-112800000I-140000J0D01*
G01*
G37*
G04 #@! TD*
G04 #@! TO.C,C50*
G36*
G01*
X148100000Y-117375000D02*
X148100000Y-116425000D01*
G75*
G02*
X148350000Y-116175000I250000J0D01*
G01*
X148850000Y-116175000D01*
G75*
G02*
X149100000Y-116425000I0J-250000D01*
G01*
X149100000Y-117375000D01*
G75*
G02*
X148850000Y-117625000I-250000J0D01*
G01*
X148350000Y-117625000D01*
G75*
G02*
X148100000Y-117375000I0J250000D01*
G01*
G37*
G36*
G01*
X150000000Y-117375000D02*
X150000000Y-116425000D01*
G75*
G02*
X150250000Y-116175000I250000J0D01*
G01*
X150750000Y-116175000D01*
G75*
G02*
X151000000Y-116425000I0J-250000D01*
G01*
X151000000Y-117375000D01*
G75*
G02*
X150750000Y-117625000I-250000J0D01*
G01*
X150250000Y-117625000D01*
G75*
G02*
X150000000Y-117375000I0J250000D01*
G01*
G37*
G04 #@! TD*
G04 #@! TO.C,C54*
G36*
G01*
X155860000Y-95030000D02*
X155860000Y-95370000D01*
G75*
G02*
X155720000Y-95510000I-140000J0D01*
G01*
X155440000Y-95510000D01*
G75*
G02*
X155300000Y-95370000I0J140000D01*
G01*
X155300000Y-95030000D01*
G75*
G02*
X155440000Y-94890000I140000J0D01*
G01*
X155720000Y-94890000D01*
G75*
G02*
X155860000Y-95030000I0J-140000D01*
G01*
G37*
G36*
G01*
X154900000Y-95030000D02*
X154900000Y-95370000D01*
G75*
G02*
X154760000Y-95510000I-140000J0D01*
G01*
X154480000Y-95510000D01*
G75*
G02*
X154340000Y-95370000I0J140000D01*
G01*
X154340000Y-95030000D01*
G75*
G02*
X154480000Y-94890000I140000J0D01*
G01*
X154760000Y-94890000D01*
G75*
G02*
X154900000Y-95030000I0J-140000D01*
G01*
G37*
G04 #@! TD*
G04 #@! TO.C,C56*
G36*
G01*
X147320000Y-96150000D02*
X146980000Y-96150000D01*
G75*
G02*
X146840000Y-96010000I0J140000D01*
G01*
X146840000Y-95730000D01*
G75*
G02*
X146980000Y-95590000I140000J0D01*
G01*
X147320000Y-95590000D01*
G75*
G02*
X147460000Y-95730000I0J-140000D01*
G01*
X147460000Y-96010000D01*
G75*
G02*
X147320000Y-96150000I-140000J0D01*
G01*
G37*
G36*
G01*
X147320000Y-97110000D02*
X146980000Y-97110000D01*
G75*
G02*
X146840000Y-96970000I0J140000D01*
G01*
X146840000Y-96690000D01*
G75*
G02*
X146980000Y-96550000I140000J0D01*
G01*
X147320000Y-96550000D01*
G75*
G02*
X147460000Y-96690000I0J-140000D01*
G01*
X147460000Y-96970000D01*
G75*
G02*
X147320000Y-97110000I-140000J0D01*
G01*
G37*
G04 #@! TD*
G04 #@! TO.C,C58*
G36*
G01*
X156230000Y-101900000D02*
X156570000Y-101900000D01*
G75*
G02*
X156710000Y-102040000I0J-140000D01*
G01*
X156710000Y-102320000D01*
G75*
G02*
X156570000Y-102460000I-140000J0D01*
G01*
X156230000Y-102460000D01*
G75*
G02*
X156090000Y-102320000I0J140000D01*
G01*
X156090000Y-102040000D01*
G75*
G02*
X156230000Y-101900000I140000J0D01*
G01*
G37*
G36*
G01*
X156230000Y-100940000D02*
X156570000Y-100940000D01*
G75*
G02*
X156710000Y-101080000I0J-140000D01*
G01*
X156710000Y-101360000D01*
G75*
G02*
X156570000Y-101500000I-140000J0D01*
G01*
X156230000Y-101500000D01*
G75*
G02*
X156090000Y-101360000I0J140000D01*
G01*
X156090000Y-101080000D01*
G75*
G02*
X156230000Y-100940000I140000J0D01*
G01*
G37*
G04 #@! TD*
G04 #@! TO.C,C59*
G36*
G01*
X140830000Y-97190000D02*
X141170000Y-97190000D01*
G75*
G02*
X141310000Y-97330000I0J-140000D01*
G01*
X141310000Y-97610000D01*
G75*
G02*
X141170000Y-97750000I-140000J0D01*
G01*
X140830000Y-97750000D01*
G75*
G02*
X140690000Y-97610000I0J140000D01*
G01*
X140690000Y-97330000D01*
G75*
G02*
X140830000Y-97190000I140000J0D01*
G01*
G37*
G36*
G01*
X140830000Y-98150000D02*
X141170000Y-98150000D01*
G75*
G02*
X141310000Y-98290000I0J-140000D01*
G01*
X141310000Y-98570000D01*
G75*
G02*
X141170000Y-98710000I-140000J0D01*
G01*
X140830000Y-98710000D01*
G75*
G02*
X140690000Y-98570000I0J140000D01*
G01*
X140690000Y-98290000D01*
G75*
G02*
X140830000Y-98150000I140000J0D01*
G01*
G37*
G04 #@! TD*
D27*
G04 #@! TO.C,D2*
X111900000Y-100600000D03*
X110500000Y-100600000D03*
G04 #@! TD*
G04 #@! TO.C,D3*
X120000000Y-113700000D03*
X118600000Y-113700000D03*
G04 #@! TD*
G04 #@! TO.C,D4*
X113300000Y-100600000D03*
X114700000Y-100600000D03*
G04 #@! TD*
G04 #@! TO.C,D5*
X122600000Y-113700000D03*
X121200000Y-113700000D03*
G04 #@! TD*
G04 #@! TO.C,D6*
X122200000Y-100600000D03*
X120800000Y-100600000D03*
G04 #@! TD*
G04 #@! TO.C,D7*
X123400000Y-100600000D03*
X124800000Y-100600000D03*
G04 #@! TD*
G04 #@! TO.C,D8*
X127400000Y-100600000D03*
X126000000Y-100600000D03*
G04 #@! TD*
G04 #@! TO.C,D9*
X176100000Y-106150000D03*
X174700000Y-106150000D03*
G04 #@! TD*
D26*
G04 #@! TO.C,D11*
X114000000Y-116900000D03*
X114000000Y-118300000D03*
G04 #@! TD*
D27*
G04 #@! TO.C,D12*
X129100000Y-113600000D03*
X130500000Y-113600000D03*
G04 #@! TD*
D26*
G04 #@! TO.C,D13*
X111650000Y-116900000D03*
X111650000Y-118300000D03*
G04 #@! TD*
D27*
G04 #@! TO.C,D15*
X131700000Y-113600000D03*
X133100000Y-113600000D03*
G04 #@! TD*
D26*
G04 #@! TO.C,D16*
X109400000Y-118300000D03*
X109400000Y-116900000D03*
G04 #@! TD*
G04 #@! TO.C,D17*
G36*
G01*
X131256250Y-102450000D02*
X130743750Y-102450000D01*
G75*
G02*
X130525000Y-102231250I0J218750D01*
G01*
X130525000Y-101793750D01*
G75*
G02*
X130743750Y-101575000I218750J0D01*
G01*
X131256250Y-101575000D01*
G75*
G02*
X131475000Y-101793750I0J-218750D01*
G01*
X131475000Y-102231250D01*
G75*
G02*
X131256250Y-102450000I-218750J0D01*
G01*
G37*
G36*
G01*
X131256250Y-104025000D02*
X130743750Y-104025000D01*
G75*
G02*
X130525000Y-103806250I0J218750D01*
G01*
X130525000Y-103368750D01*
G75*
G02*
X130743750Y-103150000I218750J0D01*
G01*
X131256250Y-103150000D01*
G75*
G02*
X131475000Y-103368750I0J-218750D01*
G01*
X131475000Y-103806250D01*
G75*
G02*
X131256250Y-104025000I-218750J0D01*
G01*
G37*
G04 #@! TD*
G04 #@! TO.C,FB1*
G36*
G01*
X146890000Y-115622500D02*
X146890000Y-115277500D01*
G75*
G02*
X147037500Y-115130000I147500J0D01*
G01*
X147332500Y-115130000D01*
G75*
G02*
X147480000Y-115277500I0J-147500D01*
G01*
X147480000Y-115622500D01*
G75*
G02*
X147332500Y-115770000I-147500J0D01*
G01*
X147037500Y-115770000D01*
G75*
G02*
X146890000Y-115622500I0J147500D01*
G01*
G37*
G36*
G01*
X145920000Y-115622500D02*
X145920000Y-115277500D01*
G75*
G02*
X146067500Y-115130000I147500J0D01*
G01*
X146362500Y-115130000D01*
G75*
G02*
X146510000Y-115277500I0J-147500D01*
G01*
X146510000Y-115622500D01*
G75*
G02*
X146362500Y-115770000I-147500J0D01*
G01*
X146067500Y-115770000D01*
G75*
G02*
X145920000Y-115622500I0J147500D01*
G01*
G37*
G04 #@! TD*
D14*
G04 #@! TO.C,Q1*
X172650000Y-112000000D03*
X173300000Y-114000000D03*
X172000000Y-114000000D03*
G04 #@! TD*
D28*
G04 #@! TO.C,Q2*
X174850000Y-107950000D03*
X174850000Y-109850000D03*
X176850000Y-108900000D03*
G04 #@! TD*
D13*
G04 #@! TO.C,Q4*
X176050000Y-113350000D03*
X176050000Y-114650000D03*
X178050000Y-114000000D03*
G04 #@! TD*
D29*
G04 #@! TO.C,Q6*
X164050000Y-115500000D03*
X165950000Y-115500000D03*
X165000000Y-113500000D03*
G04 #@! TD*
D13*
G04 #@! TO.C,Q7*
X164000000Y-118200000D03*
X166000000Y-117550000D03*
X166000000Y-118850000D03*
G04 #@! TD*
G04 #@! TO.C,R1*
G36*
G01*
X114985000Y-99580000D02*
X114615000Y-99580000D01*
G75*
G02*
X114480000Y-99445000I0J135000D01*
G01*
X114480000Y-99175000D01*
G75*
G02*
X114615000Y-99040000I135000J0D01*
G01*
X114985000Y-99040000D01*
G75*
G02*
X115120000Y-99175000I0J-135000D01*
G01*
X115120000Y-99445000D01*
G75*
G02*
X114985000Y-99580000I-135000J0D01*
G01*
G37*
G36*
G01*
X114985000Y-98560000D02*
X114615000Y-98560000D01*
G75*
G02*
X114480000Y-98425000I0J135000D01*
G01*
X114480000Y-98155000D01*
G75*
G02*
X114615000Y-98020000I135000J0D01*
G01*
X114985000Y-98020000D01*
G75*
G02*
X115120000Y-98155000I0J-135000D01*
G01*
X115120000Y-98425000D01*
G75*
G02*
X114985000Y-98560000I-135000J0D01*
G01*
G37*
G04 #@! TD*
G04 #@! TO.C,R2*
G36*
G01*
X111685000Y-99580000D02*
X111315000Y-99580000D01*
G75*
G02*
X111180000Y-99445000I0J135000D01*
G01*
X111180000Y-99175000D01*
G75*
G02*
X111315000Y-99040000I135000J0D01*
G01*
X111685000Y-99040000D01*
G75*
G02*
X111820000Y-99175000I0J-135000D01*
G01*
X111820000Y-99445000D01*
G75*
G02*
X111685000Y-99580000I-135000J0D01*
G01*
G37*
G36*
G01*
X111685000Y-98560000D02*
X111315000Y-98560000D01*
G75*
G02*
X111180000Y-98425000I0J135000D01*
G01*
X111180000Y-98155000D01*
G75*
G02*
X111315000Y-98020000I135000J0D01*
G01*
X111685000Y-98020000D01*
G75*
G02*
X111820000Y-98155000I0J-135000D01*
G01*
X111820000Y-98425000D01*
G75*
G02*
X111685000Y-98560000I-135000J0D01*
G01*
G37*
G04 #@! TD*
G04 #@! TO.C,R3*
G36*
G01*
X121415000Y-115640000D02*
X121785000Y-115640000D01*
G75*
G02*
X121920000Y-115775000I0J-135000D01*
G01*
X121920000Y-116045000D01*
G75*
G02*
X121785000Y-116180000I-135000J0D01*
G01*
X121415000Y-116180000D01*
G75*
G02*
X121280000Y-116045000I0J135000D01*
G01*
X121280000Y-115775000D01*
G75*
G02*
X121415000Y-115640000I135000J0D01*
G01*
G37*
G36*
G01*
X121415000Y-114620000D02*
X121785000Y-114620000D01*
G75*
G02*
X121920000Y-114755000I0J-135000D01*
G01*
X121920000Y-115025000D01*
G75*
G02*
X121785000Y-115160000I-135000J0D01*
G01*
X121415000Y-115160000D01*
G75*
G02*
X121280000Y-115025000I0J135000D01*
G01*
X121280000Y-114755000D01*
G75*
G02*
X121415000Y-114620000I135000J0D01*
G01*
G37*
G04 #@! TD*
G04 #@! TO.C,R4*
G36*
G01*
X119415000Y-114620000D02*
X119785000Y-114620000D01*
G75*
G02*
X119920000Y-114755000I0J-135000D01*
G01*
X119920000Y-115025000D01*
G75*
G02*
X119785000Y-115160000I-135000J0D01*
G01*
X119415000Y-115160000D01*
G75*
G02*
X119280000Y-115025000I0J135000D01*
G01*
X119280000Y-114755000D01*
G75*
G02*
X119415000Y-114620000I135000J0D01*
G01*
G37*
G36*
G01*
X119415000Y-115640000D02*
X119785000Y-115640000D01*
G75*
G02*
X119920000Y-115775000I0J-135000D01*
G01*
X119920000Y-116045000D01*
G75*
G02*
X119785000Y-116180000I-135000J0D01*
G01*
X119415000Y-116180000D01*
G75*
G02*
X119280000Y-116045000I0J135000D01*
G01*
X119280000Y-115775000D01*
G75*
G02*
X119415000Y-115640000I135000J0D01*
G01*
G37*
G04 #@! TD*
G04 #@! TO.C,R8*
G36*
G01*
X169320000Y-113385000D02*
X169320000Y-113015000D01*
G75*
G02*
X169455000Y-112880000I135000J0D01*
G01*
X169725000Y-112880000D01*
G75*
G02*
X169860000Y-113015000I0J-135000D01*
G01*
X169860000Y-113385000D01*
G75*
G02*
X169725000Y-113520000I-135000J0D01*
G01*
X169455000Y-113520000D01*
G75*
G02*
X169320000Y-113385000I0J135000D01*
G01*
G37*
G36*
G01*
X170340000Y-113385000D02*
X170340000Y-113015000D01*
G75*
G02*
X170475000Y-112880000I135000J0D01*
G01*
X170745000Y-112880000D01*
G75*
G02*
X170880000Y-113015000I0J-135000D01*
G01*
X170880000Y-113385000D01*
G75*
G02*
X170745000Y-113520000I-135000J0D01*
G01*
X170475000Y-113520000D01*
G75*
G02*
X170340000Y-113385000I0J135000D01*
G01*
G37*
G04 #@! TD*
G04 #@! TO.C,R9*
G36*
G01*
X173735000Y-108210000D02*
X173365000Y-108210000D01*
G75*
G02*
X173230000Y-108075000I0J135000D01*
G01*
X173230000Y-107805000D01*
G75*
G02*
X173365000Y-107670000I135000J0D01*
G01*
X173735000Y-107670000D01*
G75*
G02*
X173870000Y-107805000I0J-135000D01*
G01*
X173870000Y-108075000D01*
G75*
G02*
X173735000Y-108210000I-135000J0D01*
G01*
G37*
G36*
G01*
X173735000Y-109230000D02*
X173365000Y-109230000D01*
G75*
G02*
X173230000Y-109095000I0J135000D01*
G01*
X173230000Y-108825000D01*
G75*
G02*
X173365000Y-108690000I135000J0D01*
G01*
X173735000Y-108690000D01*
G75*
G02*
X173870000Y-108825000I0J-135000D01*
G01*
X173870000Y-109095000D01*
G75*
G02*
X173735000Y-109230000I-135000J0D01*
G01*
G37*
G04 #@! TD*
G04 #@! TO.C,R11*
G36*
G01*
X169860000Y-111815000D02*
X169860000Y-112185000D01*
G75*
G02*
X169725000Y-112320000I-135000J0D01*
G01*
X169455000Y-112320000D01*
G75*
G02*
X169320000Y-112185000I0J135000D01*
G01*
X169320000Y-111815000D01*
G75*
G02*
X169455000Y-111680000I135000J0D01*
G01*
X169725000Y-111680000D01*
G75*
G02*
X169860000Y-111815000I0J-135000D01*
G01*
G37*
G36*
G01*
X170880000Y-111815000D02*
X170880000Y-112185000D01*
G75*
G02*
X170745000Y-112320000I-135000J0D01*
G01*
X170475000Y-112320000D01*
G75*
G02*
X170340000Y-112185000I0J135000D01*
G01*
X170340000Y-111815000D01*
G75*
G02*
X170475000Y-111680000I135000J0D01*
G01*
X170745000Y-111680000D01*
G75*
G02*
X170880000Y-111815000I0J-135000D01*
G01*
G37*
G04 #@! TD*
G04 #@! TO.C,R12*
G36*
G01*
X125385000Y-99580000D02*
X125015000Y-99580000D01*
G75*
G02*
X124880000Y-99445000I0J135000D01*
G01*
X124880000Y-99175000D01*
G75*
G02*
X125015000Y-99040000I135000J0D01*
G01*
X125385000Y-99040000D01*
G75*
G02*
X125520000Y-99175000I0J-135000D01*
G01*
X125520000Y-99445000D01*
G75*
G02*
X125385000Y-99580000I-135000J0D01*
G01*
G37*
G36*
G01*
X125385000Y-98560000D02*
X125015000Y-98560000D01*
G75*
G02*
X124880000Y-98425000I0J135000D01*
G01*
X124880000Y-98155000D01*
G75*
G02*
X125015000Y-98020000I135000J0D01*
G01*
X125385000Y-98020000D01*
G75*
G02*
X125520000Y-98155000I0J-135000D01*
G01*
X125520000Y-98425000D01*
G75*
G02*
X125385000Y-98560000I-135000J0D01*
G01*
G37*
G04 #@! TD*
G04 #@! TO.C,R13*
G36*
G01*
X123185000Y-98560000D02*
X122815000Y-98560000D01*
G75*
G02*
X122680000Y-98425000I0J135000D01*
G01*
X122680000Y-98155000D01*
G75*
G02*
X122815000Y-98020000I135000J0D01*
G01*
X123185000Y-98020000D01*
G75*
G02*
X123320000Y-98155000I0J-135000D01*
G01*
X123320000Y-98425000D01*
G75*
G02*
X123185000Y-98560000I-135000J0D01*
G01*
G37*
G36*
G01*
X123185000Y-99580000D02*
X122815000Y-99580000D01*
G75*
G02*
X122680000Y-99445000I0J135000D01*
G01*
X122680000Y-99175000D01*
G75*
G02*
X122815000Y-99040000I135000J0D01*
G01*
X123185000Y-99040000D01*
G75*
G02*
X123320000Y-99175000I0J-135000D01*
G01*
X123320000Y-99445000D01*
G75*
G02*
X123185000Y-99580000I-135000J0D01*
G01*
G37*
G04 #@! TD*
G04 #@! TO.C,R14*
G36*
G01*
X120985000Y-98560000D02*
X120615000Y-98560000D01*
G75*
G02*
X120480000Y-98425000I0J135000D01*
G01*
X120480000Y-98155000D01*
G75*
G02*
X120615000Y-98020000I135000J0D01*
G01*
X120985000Y-98020000D01*
G75*
G02*
X121120000Y-98155000I0J-135000D01*
G01*
X121120000Y-98425000D01*
G75*
G02*
X120985000Y-98560000I-135000J0D01*
G01*
G37*
G36*
G01*
X120985000Y-99580000D02*
X120615000Y-99580000D01*
G75*
G02*
X120480000Y-99445000I0J135000D01*
G01*
X120480000Y-99175000D01*
G75*
G02*
X120615000Y-99040000I135000J0D01*
G01*
X120985000Y-99040000D01*
G75*
G02*
X121120000Y-99175000I0J-135000D01*
G01*
X121120000Y-99445000D01*
G75*
G02*
X120985000Y-99580000I-135000J0D01*
G01*
G37*
G04 #@! TD*
G04 #@! TO.C,R15*
G36*
G01*
X184785000Y-129110000D02*
X184415000Y-129110000D01*
G75*
G02*
X184280000Y-128975000I0J135000D01*
G01*
X184280000Y-128705000D01*
G75*
G02*
X184415000Y-128570000I135000J0D01*
G01*
X184785000Y-128570000D01*
G75*
G02*
X184920000Y-128705000I0J-135000D01*
G01*
X184920000Y-128975000D01*
G75*
G02*
X184785000Y-129110000I-135000J0D01*
G01*
G37*
G36*
G01*
X184785000Y-130130000D02*
X184415000Y-130130000D01*
G75*
G02*
X184280000Y-129995000I0J135000D01*
G01*
X184280000Y-129725000D01*
G75*
G02*
X184415000Y-129590000I135000J0D01*
G01*
X184785000Y-129590000D01*
G75*
G02*
X184920000Y-129725000I0J-135000D01*
G01*
X184920000Y-129995000D01*
G75*
G02*
X184785000Y-130130000I-135000J0D01*
G01*
G37*
G04 #@! TD*
G04 #@! TO.C,R17*
G36*
G01*
X170340000Y-114435000D02*
X170340000Y-114065000D01*
G75*
G02*
X170475000Y-113930000I135000J0D01*
G01*
X170745000Y-113930000D01*
G75*
G02*
X170880000Y-114065000I0J-135000D01*
G01*
X170880000Y-114435000D01*
G75*
G02*
X170745000Y-114570000I-135000J0D01*
G01*
X170475000Y-114570000D01*
G75*
G02*
X170340000Y-114435000I0J135000D01*
G01*
G37*
G36*
G01*
X169320000Y-114435000D02*
X169320000Y-114065000D01*
G75*
G02*
X169455000Y-113930000I135000J0D01*
G01*
X169725000Y-113930000D01*
G75*
G02*
X169860000Y-114065000I0J-135000D01*
G01*
X169860000Y-114435000D01*
G75*
G02*
X169725000Y-114570000I-135000J0D01*
G01*
X169455000Y-114570000D01*
G75*
G02*
X169320000Y-114435000I0J135000D01*
G01*
G37*
G04 #@! TD*
G04 #@! TO.C,R19*
G36*
G01*
X174515000Y-112870000D02*
X174885000Y-112870000D01*
G75*
G02*
X175020000Y-113005000I0J-135000D01*
G01*
X175020000Y-113275000D01*
G75*
G02*
X174885000Y-113410000I-135000J0D01*
G01*
X174515000Y-113410000D01*
G75*
G02*
X174380000Y-113275000I0J135000D01*
G01*
X174380000Y-113005000D01*
G75*
G02*
X174515000Y-112870000I135000J0D01*
G01*
G37*
G36*
G01*
X174515000Y-113890000D02*
X174885000Y-113890000D01*
G75*
G02*
X175020000Y-114025000I0J-135000D01*
G01*
X175020000Y-114295000D01*
G75*
G02*
X174885000Y-114430000I-135000J0D01*
G01*
X174515000Y-114430000D01*
G75*
G02*
X174380000Y-114295000I0J135000D01*
G01*
X174380000Y-114025000D01*
G75*
G02*
X174515000Y-113890000I135000J0D01*
G01*
G37*
G04 #@! TD*
G04 #@! TO.C,R21*
G36*
G01*
X105660000Y-135815000D02*
X105660000Y-136185000D01*
G75*
G02*
X105525000Y-136320000I-135000J0D01*
G01*
X105255000Y-136320000D01*
G75*
G02*
X105120000Y-136185000I0J135000D01*
G01*
X105120000Y-135815000D01*
G75*
G02*
X105255000Y-135680000I135000J0D01*
G01*
X105525000Y-135680000D01*
G75*
G02*
X105660000Y-135815000I0J-135000D01*
G01*
G37*
G36*
G01*
X106680000Y-135815000D02*
X106680000Y-136185000D01*
G75*
G02*
X106545000Y-136320000I-135000J0D01*
G01*
X106275000Y-136320000D01*
G75*
G02*
X106140000Y-136185000I0J135000D01*
G01*
X106140000Y-135815000D01*
G75*
G02*
X106275000Y-135680000I135000J0D01*
G01*
X106545000Y-135680000D01*
G75*
G02*
X106680000Y-135815000I0J-135000D01*
G01*
G37*
G04 #@! TD*
G04 #@! TO.C,R23*
G36*
G01*
X133015000Y-115640000D02*
X133385000Y-115640000D01*
G75*
G02*
X133520000Y-115775000I0J-135000D01*
G01*
X133520000Y-116045000D01*
G75*
G02*
X133385000Y-116180000I-135000J0D01*
G01*
X133015000Y-116180000D01*
G75*
G02*
X132880000Y-116045000I0J135000D01*
G01*
X132880000Y-115775000D01*
G75*
G02*
X133015000Y-115640000I135000J0D01*
G01*
G37*
G36*
G01*
X133015000Y-114620000D02*
X133385000Y-114620000D01*
G75*
G02*
X133520000Y-114755000I0J-135000D01*
G01*
X133520000Y-115025000D01*
G75*
G02*
X133385000Y-115160000I-135000J0D01*
G01*
X133015000Y-115160000D01*
G75*
G02*
X132880000Y-115025000I0J135000D01*
G01*
X132880000Y-114755000D01*
G75*
G02*
X133015000Y-114620000I135000J0D01*
G01*
G37*
G04 #@! TD*
G04 #@! TO.C,R24*
G36*
G01*
X130015000Y-114620000D02*
X130385000Y-114620000D01*
G75*
G02*
X130520000Y-114755000I0J-135000D01*
G01*
X130520000Y-115025000D01*
G75*
G02*
X130385000Y-115160000I-135000J0D01*
G01*
X130015000Y-115160000D01*
G75*
G02*
X129880000Y-115025000I0J135000D01*
G01*
X129880000Y-114755000D01*
G75*
G02*
X130015000Y-114620000I135000J0D01*
G01*
G37*
G36*
G01*
X130015000Y-115640000D02*
X130385000Y-115640000D01*
G75*
G02*
X130520000Y-115775000I0J-135000D01*
G01*
X130520000Y-116045000D01*
G75*
G02*
X130385000Y-116180000I-135000J0D01*
G01*
X130015000Y-116180000D01*
G75*
G02*
X129880000Y-116045000I0J135000D01*
G01*
X129880000Y-115775000D01*
G75*
G02*
X130015000Y-115640000I135000J0D01*
G01*
G37*
G04 #@! TD*
G04 #@! TO.C,R25*
G36*
G01*
X105660000Y-132915000D02*
X105660000Y-133285000D01*
G75*
G02*
X105525000Y-133420000I-135000J0D01*
G01*
X105255000Y-133420000D01*
G75*
G02*
X105120000Y-133285000I0J135000D01*
G01*
X105120000Y-132915000D01*
G75*
G02*
X105255000Y-132780000I135000J0D01*
G01*
X105525000Y-132780000D01*
G75*
G02*
X105660000Y-132915000I0J-135000D01*
G01*
G37*
G36*
G01*
X106680000Y-132915000D02*
X106680000Y-133285000D01*
G75*
G02*
X106545000Y-133420000I-135000J0D01*
G01*
X106275000Y-133420000D01*
G75*
G02*
X106140000Y-133285000I0J135000D01*
G01*
X106140000Y-132915000D01*
G75*
G02*
X106275000Y-132780000I135000J0D01*
G01*
X106545000Y-132780000D01*
G75*
G02*
X106680000Y-132915000I0J-135000D01*
G01*
G37*
G04 #@! TD*
G04 #@! TO.C,R26*
G36*
G01*
X109065000Y-120440000D02*
X109435000Y-120440000D01*
G75*
G02*
X109570000Y-120575000I0J-135000D01*
G01*
X109570000Y-120845000D01*
G75*
G02*
X109435000Y-120980000I-135000J0D01*
G01*
X109065000Y-120980000D01*
G75*
G02*
X108930000Y-120845000I0J135000D01*
G01*
X108930000Y-120575000D01*
G75*
G02*
X109065000Y-120440000I135000J0D01*
G01*
G37*
G36*
G01*
X109065000Y-119420000D02*
X109435000Y-119420000D01*
G75*
G02*
X109570000Y-119555000I0J-135000D01*
G01*
X109570000Y-119825000D01*
G75*
G02*
X109435000Y-119960000I-135000J0D01*
G01*
X109065000Y-119960000D01*
G75*
G02*
X108930000Y-119825000I0J135000D01*
G01*
X108930000Y-119555000D01*
G75*
G02*
X109065000Y-119420000I135000J0D01*
G01*
G37*
G04 #@! TD*
G04 #@! TO.C,R27*
G36*
G01*
X143835000Y-97080000D02*
X143465000Y-97080000D01*
G75*
G02*
X143330000Y-96945000I0J135000D01*
G01*
X143330000Y-96675000D01*
G75*
G02*
X143465000Y-96540000I135000J0D01*
G01*
X143835000Y-96540000D01*
G75*
G02*
X143970000Y-96675000I0J-135000D01*
G01*
X143970000Y-96945000D01*
G75*
G02*
X143835000Y-97080000I-135000J0D01*
G01*
G37*
G36*
G01*
X143835000Y-96060000D02*
X143465000Y-96060000D01*
G75*
G02*
X143330000Y-95925000I0J135000D01*
G01*
X143330000Y-95655000D01*
G75*
G02*
X143465000Y-95520000I135000J0D01*
G01*
X143835000Y-95520000D01*
G75*
G02*
X143970000Y-95655000I0J-135000D01*
G01*
X143970000Y-95925000D01*
G75*
G02*
X143835000Y-96060000I-135000J0D01*
G01*
G37*
G04 #@! TD*
G04 #@! TO.C,R28*
G36*
G01*
X193415000Y-134940000D02*
X193785000Y-134940000D01*
G75*
G02*
X193920000Y-135075000I0J-135000D01*
G01*
X193920000Y-135345000D01*
G75*
G02*
X193785000Y-135480000I-135000J0D01*
G01*
X193415000Y-135480000D01*
G75*
G02*
X193280000Y-135345000I0J135000D01*
G01*
X193280000Y-135075000D01*
G75*
G02*
X193415000Y-134940000I135000J0D01*
G01*
G37*
G36*
G01*
X193415000Y-133920000D02*
X193785000Y-133920000D01*
G75*
G02*
X193920000Y-134055000I0J-135000D01*
G01*
X193920000Y-134325000D01*
G75*
G02*
X193785000Y-134460000I-135000J0D01*
G01*
X193415000Y-134460000D01*
G75*
G02*
X193280000Y-134325000I0J135000D01*
G01*
X193280000Y-134055000D01*
G75*
G02*
X193415000Y-133920000I135000J0D01*
G01*
G37*
G04 #@! TD*
G04 #@! TO.C,R29*
G36*
G01*
X150485000Y-96060000D02*
X150115000Y-96060000D01*
G75*
G02*
X149980000Y-95925000I0J135000D01*
G01*
X149980000Y-95655000D01*
G75*
G02*
X150115000Y-95520000I135000J0D01*
G01*
X150485000Y-95520000D01*
G75*
G02*
X150620000Y-95655000I0J-135000D01*
G01*
X150620000Y-95925000D01*
G75*
G02*
X150485000Y-96060000I-135000J0D01*
G01*
G37*
G36*
G01*
X150485000Y-97080000D02*
X150115000Y-97080000D01*
G75*
G02*
X149980000Y-96945000I0J135000D01*
G01*
X149980000Y-96675000D01*
G75*
G02*
X150115000Y-96540000I135000J0D01*
G01*
X150485000Y-96540000D01*
G75*
G02*
X150620000Y-96675000I0J-135000D01*
G01*
X150620000Y-96945000D01*
G75*
G02*
X150485000Y-97080000I-135000J0D01*
G01*
G37*
G04 #@! TD*
G04 #@! TO.C,R31*
G36*
G01*
X137560000Y-107015000D02*
X137560000Y-107385000D01*
G75*
G02*
X137425000Y-107520000I-135000J0D01*
G01*
X137155000Y-107520000D01*
G75*
G02*
X137020000Y-107385000I0J135000D01*
G01*
X137020000Y-107015000D01*
G75*
G02*
X137155000Y-106880000I135000J0D01*
G01*
X137425000Y-106880000D01*
G75*
G02*
X137560000Y-107015000I0J-135000D01*
G01*
G37*
G36*
G01*
X138580000Y-107015000D02*
X138580000Y-107385000D01*
G75*
G02*
X138445000Y-107520000I-135000J0D01*
G01*
X138175000Y-107520000D01*
G75*
G02*
X138040000Y-107385000I0J135000D01*
G01*
X138040000Y-107015000D01*
G75*
G02*
X138175000Y-106880000I135000J0D01*
G01*
X138445000Y-106880000D01*
G75*
G02*
X138580000Y-107015000I0J-135000D01*
G01*
G37*
G04 #@! TD*
G04 #@! TO.C,R32*
G36*
G01*
X198560000Y-106415000D02*
X198560000Y-106785000D01*
G75*
G02*
X198425000Y-106920000I-135000J0D01*
G01*
X198155000Y-106920000D01*
G75*
G02*
X198020000Y-106785000I0J135000D01*
G01*
X198020000Y-106415000D01*
G75*
G02*
X198155000Y-106280000I135000J0D01*
G01*
X198425000Y-106280000D01*
G75*
G02*
X198560000Y-106415000I0J-135000D01*
G01*
G37*
G36*
G01*
X199580000Y-106415000D02*
X199580000Y-106785000D01*
G75*
G02*
X199445000Y-106920000I-135000J0D01*
G01*
X199175000Y-106920000D01*
G75*
G02*
X199040000Y-106785000I0J135000D01*
G01*
X199040000Y-106415000D01*
G75*
G02*
X199175000Y-106280000I135000J0D01*
G01*
X199445000Y-106280000D01*
G75*
G02*
X199580000Y-106415000I0J-135000D01*
G01*
G37*
G04 #@! TD*
G04 #@! TO.C,R39*
G36*
G01*
X167115000Y-116030000D02*
X167485000Y-116030000D01*
G75*
G02*
X167620000Y-116165000I0J-135000D01*
G01*
X167620000Y-116435000D01*
G75*
G02*
X167485000Y-116570000I-135000J0D01*
G01*
X167115000Y-116570000D01*
G75*
G02*
X166980000Y-116435000I0J135000D01*
G01*
X166980000Y-116165000D01*
G75*
G02*
X167115000Y-116030000I135000J0D01*
G01*
G37*
G36*
G01*
X167115000Y-115010000D02*
X167485000Y-115010000D01*
G75*
G02*
X167620000Y-115145000I0J-135000D01*
G01*
X167620000Y-115415000D01*
G75*
G02*
X167485000Y-115550000I-135000J0D01*
G01*
X167115000Y-115550000D01*
G75*
G02*
X166980000Y-115415000I0J135000D01*
G01*
X166980000Y-115145000D01*
G75*
G02*
X167115000Y-115010000I135000J0D01*
G01*
G37*
G04 #@! TD*
G04 #@! TO.C,R43*
G36*
G01*
X167485000Y-119080000D02*
X167115000Y-119080000D01*
G75*
G02*
X166980000Y-118945000I0J135000D01*
G01*
X166980000Y-118675000D01*
G75*
G02*
X167115000Y-118540000I135000J0D01*
G01*
X167485000Y-118540000D01*
G75*
G02*
X167620000Y-118675000I0J-135000D01*
G01*
X167620000Y-118945000D01*
G75*
G02*
X167485000Y-119080000I-135000J0D01*
G01*
G37*
G36*
G01*
X167485000Y-118060000D02*
X167115000Y-118060000D01*
G75*
G02*
X166980000Y-117925000I0J135000D01*
G01*
X166980000Y-117655000D01*
G75*
G02*
X167115000Y-117520000I135000J0D01*
G01*
X167485000Y-117520000D01*
G75*
G02*
X167620000Y-117655000I0J-135000D01*
G01*
X167620000Y-117925000D01*
G75*
G02*
X167485000Y-118060000I-135000J0D01*
G01*
G37*
G04 #@! TD*
G04 #@! TO.C,R36*
G36*
G01*
X155585000Y-109980000D02*
X155215000Y-109980000D01*
G75*
G02*
X155080000Y-109845000I0J135000D01*
G01*
X155080000Y-109575000D01*
G75*
G02*
X155215000Y-109440000I135000J0D01*
G01*
X155585000Y-109440000D01*
G75*
G02*
X155720000Y-109575000I0J-135000D01*
G01*
X155720000Y-109845000D01*
G75*
G02*
X155585000Y-109980000I-135000J0D01*
G01*
G37*
G36*
G01*
X155585000Y-108960000D02*
X155215000Y-108960000D01*
G75*
G02*
X155080000Y-108825000I0J135000D01*
G01*
X155080000Y-108555000D01*
G75*
G02*
X155215000Y-108420000I135000J0D01*
G01*
X155585000Y-108420000D01*
G75*
G02*
X155720000Y-108555000I0J-135000D01*
G01*
X155720000Y-108825000D01*
G75*
G02*
X155585000Y-108960000I-135000J0D01*
G01*
G37*
G04 #@! TD*
G04 #@! TO.C,R37*
G36*
G01*
X154215000Y-108420000D02*
X154585000Y-108420000D01*
G75*
G02*
X154720000Y-108555000I0J-135000D01*
G01*
X154720000Y-108825000D01*
G75*
G02*
X154585000Y-108960000I-135000J0D01*
G01*
X154215000Y-108960000D01*
G75*
G02*
X154080000Y-108825000I0J135000D01*
G01*
X154080000Y-108555000D01*
G75*
G02*
X154215000Y-108420000I135000J0D01*
G01*
G37*
G36*
G01*
X154215000Y-109440000D02*
X154585000Y-109440000D01*
G75*
G02*
X154720000Y-109575000I0J-135000D01*
G01*
X154720000Y-109845000D01*
G75*
G02*
X154585000Y-109980000I-135000J0D01*
G01*
X154215000Y-109980000D01*
G75*
G02*
X154080000Y-109845000I0J135000D01*
G01*
X154080000Y-109575000D01*
G75*
G02*
X154215000Y-109440000I135000J0D01*
G01*
G37*
G04 #@! TD*
G04 #@! TO.C,R44*
G36*
G01*
X138580000Y-103015000D02*
X138580000Y-103385000D01*
G75*
G02*
X138445000Y-103520000I-135000J0D01*
G01*
X138175000Y-103520000D01*
G75*
G02*
X138040000Y-103385000I0J135000D01*
G01*
X138040000Y-103015000D01*
G75*
G02*
X138175000Y-102880000I135000J0D01*
G01*
X138445000Y-102880000D01*
G75*
G02*
X138580000Y-103015000I0J-135000D01*
G01*
G37*
G36*
G01*
X137560000Y-103015000D02*
X137560000Y-103385000D01*
G75*
G02*
X137425000Y-103520000I-135000J0D01*
G01*
X137155000Y-103520000D01*
G75*
G02*
X137020000Y-103385000I0J135000D01*
G01*
X137020000Y-103015000D01*
G75*
G02*
X137155000Y-102880000I135000J0D01*
G01*
X137425000Y-102880000D01*
G75*
G02*
X137560000Y-103015000I0J-135000D01*
G01*
G37*
G04 #@! TD*
G04 #@! TO.C,R45*
G36*
G01*
X159615000Y-112220000D02*
X159985000Y-112220000D01*
G75*
G02*
X160120000Y-112355000I0J-135000D01*
G01*
X160120000Y-112625000D01*
G75*
G02*
X159985000Y-112760000I-135000J0D01*
G01*
X159615000Y-112760000D01*
G75*
G02*
X159480000Y-112625000I0J135000D01*
G01*
X159480000Y-112355000D01*
G75*
G02*
X159615000Y-112220000I135000J0D01*
G01*
G37*
G36*
G01*
X159615000Y-113240000D02*
X159985000Y-113240000D01*
G75*
G02*
X160120000Y-113375000I0J-135000D01*
G01*
X160120000Y-113645000D01*
G75*
G02*
X159985000Y-113780000I-135000J0D01*
G01*
X159615000Y-113780000D01*
G75*
G02*
X159480000Y-113645000I0J135000D01*
G01*
X159480000Y-113375000D01*
G75*
G02*
X159615000Y-113240000I135000J0D01*
G01*
G37*
G04 #@! TD*
G04 #@! TO.C,R46*
G36*
G01*
X158615000Y-113240000D02*
X158985000Y-113240000D01*
G75*
G02*
X159120000Y-113375000I0J-135000D01*
G01*
X159120000Y-113645000D01*
G75*
G02*
X158985000Y-113780000I-135000J0D01*
G01*
X158615000Y-113780000D01*
G75*
G02*
X158480000Y-113645000I0J135000D01*
G01*
X158480000Y-113375000D01*
G75*
G02*
X158615000Y-113240000I135000J0D01*
G01*
G37*
G36*
G01*
X158615000Y-112220000D02*
X158985000Y-112220000D01*
G75*
G02*
X159120000Y-112355000I0J-135000D01*
G01*
X159120000Y-112625000D01*
G75*
G02*
X158985000Y-112760000I-135000J0D01*
G01*
X158615000Y-112760000D01*
G75*
G02*
X158480000Y-112625000I0J135000D01*
G01*
X158480000Y-112355000D01*
G75*
G02*
X158615000Y-112220000I135000J0D01*
G01*
G37*
G04 #@! TD*
G04 #@! TO.C,R47*
G36*
G01*
X160615000Y-112220000D02*
X160985000Y-112220000D01*
G75*
G02*
X161120000Y-112355000I0J-135000D01*
G01*
X161120000Y-112625000D01*
G75*
G02*
X160985000Y-112760000I-135000J0D01*
G01*
X160615000Y-112760000D01*
G75*
G02*
X160480000Y-112625000I0J135000D01*
G01*
X160480000Y-112355000D01*
G75*
G02*
X160615000Y-112220000I135000J0D01*
G01*
G37*
G36*
G01*
X160615000Y-113240000D02*
X160985000Y-113240000D01*
G75*
G02*
X161120000Y-113375000I0J-135000D01*
G01*
X161120000Y-113645000D01*
G75*
G02*
X160985000Y-113780000I-135000J0D01*
G01*
X160615000Y-113780000D01*
G75*
G02*
X160480000Y-113645000I0J135000D01*
G01*
X160480000Y-113375000D01*
G75*
G02*
X160615000Y-113240000I135000J0D01*
G01*
G37*
G04 #@! TD*
G04 #@! TO.C,R48*
G36*
G01*
X157615000Y-113240000D02*
X157985000Y-113240000D01*
G75*
G02*
X158120000Y-113375000I0J-135000D01*
G01*
X158120000Y-113645000D01*
G75*
G02*
X157985000Y-113780000I-135000J0D01*
G01*
X157615000Y-113780000D01*
G75*
G02*
X157480000Y-113645000I0J135000D01*
G01*
X157480000Y-113375000D01*
G75*
G02*
X157615000Y-113240000I135000J0D01*
G01*
G37*
G36*
G01*
X157615000Y-112220000D02*
X157985000Y-112220000D01*
G75*
G02*
X158120000Y-112355000I0J-135000D01*
G01*
X158120000Y-112625000D01*
G75*
G02*
X157985000Y-112760000I-135000J0D01*
G01*
X157615000Y-112760000D01*
G75*
G02*
X157480000Y-112625000I0J135000D01*
G01*
X157480000Y-112355000D01*
G75*
G02*
X157615000Y-112220000I135000J0D01*
G01*
G37*
G04 #@! TD*
G04 #@! TO.C,R49*
G36*
G01*
X175840000Y-103835000D02*
X175840000Y-103465000D01*
G75*
G02*
X175975000Y-103330000I135000J0D01*
G01*
X176245000Y-103330000D01*
G75*
G02*
X176380000Y-103465000I0J-135000D01*
G01*
X176380000Y-103835000D01*
G75*
G02*
X176245000Y-103970000I-135000J0D01*
G01*
X175975000Y-103970000D01*
G75*
G02*
X175840000Y-103835000I0J135000D01*
G01*
G37*
G36*
G01*
X174820000Y-103835000D02*
X174820000Y-103465000D01*
G75*
G02*
X174955000Y-103330000I135000J0D01*
G01*
X175225000Y-103330000D01*
G75*
G02*
X175360000Y-103465000I0J-135000D01*
G01*
X175360000Y-103835000D01*
G75*
G02*
X175225000Y-103970000I-135000J0D01*
G01*
X174955000Y-103970000D01*
G75*
G02*
X174820000Y-103835000I0J135000D01*
G01*
G37*
G04 #@! TD*
G04 #@! TO.C,R50*
G36*
G01*
X149385000Y-96060000D02*
X149015000Y-96060000D01*
G75*
G02*
X148880000Y-95925000I0J135000D01*
G01*
X148880000Y-95655000D01*
G75*
G02*
X149015000Y-95520000I135000J0D01*
G01*
X149385000Y-95520000D01*
G75*
G02*
X149520000Y-95655000I0J-135000D01*
G01*
X149520000Y-95925000D01*
G75*
G02*
X149385000Y-96060000I-135000J0D01*
G01*
G37*
G36*
G01*
X149385000Y-97080000D02*
X149015000Y-97080000D01*
G75*
G02*
X148880000Y-96945000I0J135000D01*
G01*
X148880000Y-96675000D01*
G75*
G02*
X149015000Y-96540000I135000J0D01*
G01*
X149385000Y-96540000D01*
G75*
G02*
X149520000Y-96675000I0J-135000D01*
G01*
X149520000Y-96945000D01*
G75*
G02*
X149385000Y-97080000I-135000J0D01*
G01*
G37*
G04 #@! TD*
G04 #@! TO.C,R51*
G36*
G01*
X148385000Y-97080000D02*
X148015000Y-97080000D01*
G75*
G02*
X147880000Y-96945000I0J135000D01*
G01*
X147880000Y-96675000D01*
G75*
G02*
X148015000Y-96540000I135000J0D01*
G01*
X148385000Y-96540000D01*
G75*
G02*
X148520000Y-96675000I0J-135000D01*
G01*
X148520000Y-96945000D01*
G75*
G02*
X148385000Y-97080000I-135000J0D01*
G01*
G37*
G36*
G01*
X148385000Y-96060000D02*
X148015000Y-96060000D01*
G75*
G02*
X147880000Y-95925000I0J135000D01*
G01*
X147880000Y-95655000D01*
G75*
G02*
X148015000Y-95520000I135000J0D01*
G01*
X148385000Y-95520000D01*
G75*
G02*
X148520000Y-95655000I0J-135000D01*
G01*
X148520000Y-95925000D01*
G75*
G02*
X148385000Y-96060000I-135000J0D01*
G01*
G37*
G04 #@! TD*
G04 #@! TO.C,R53*
G36*
G01*
X157585000Y-101460000D02*
X157215000Y-101460000D01*
G75*
G02*
X157080000Y-101325000I0J135000D01*
G01*
X157080000Y-101055000D01*
G75*
G02*
X157215000Y-100920000I135000J0D01*
G01*
X157585000Y-100920000D01*
G75*
G02*
X157720000Y-101055000I0J-135000D01*
G01*
X157720000Y-101325000D01*
G75*
G02*
X157585000Y-101460000I-135000J0D01*
G01*
G37*
G36*
G01*
X157585000Y-102480000D02*
X157215000Y-102480000D01*
G75*
G02*
X157080000Y-102345000I0J135000D01*
G01*
X157080000Y-102075000D01*
G75*
G02*
X157215000Y-101940000I135000J0D01*
G01*
X157585000Y-101940000D01*
G75*
G02*
X157720000Y-102075000I0J-135000D01*
G01*
X157720000Y-102345000D01*
G75*
G02*
X157585000Y-102480000I-135000J0D01*
G01*
G37*
G04 #@! TD*
G04 #@! TO.C,R54*
G36*
G01*
X155585000Y-101460000D02*
X155215000Y-101460000D01*
G75*
G02*
X155080000Y-101325000I0J135000D01*
G01*
X155080000Y-101055000D01*
G75*
G02*
X155215000Y-100920000I135000J0D01*
G01*
X155585000Y-100920000D01*
G75*
G02*
X155720000Y-101055000I0J-135000D01*
G01*
X155720000Y-101325000D01*
G75*
G02*
X155585000Y-101460000I-135000J0D01*
G01*
G37*
G36*
G01*
X155585000Y-102480000D02*
X155215000Y-102480000D01*
G75*
G02*
X155080000Y-102345000I0J135000D01*
G01*
X155080000Y-102075000D01*
G75*
G02*
X155215000Y-101940000I135000J0D01*
G01*
X155585000Y-101940000D01*
G75*
G02*
X155720000Y-102075000I0J-135000D01*
G01*
X155720000Y-102345000D01*
G75*
G02*
X155585000Y-102480000I-135000J0D01*
G01*
G37*
G04 #@! TD*
G04 #@! TO.C,U2*
G36*
G01*
X196575000Y-125275000D02*
X196575000Y-125075000D01*
G75*
G02*
X196675000Y-124975000I100000J0D01*
G01*
X197950000Y-124975000D01*
G75*
G02*
X198050000Y-125075000I0J-100000D01*
G01*
X198050000Y-125275000D01*
G75*
G02*
X197950000Y-125375000I-100000J0D01*
G01*
X196675000Y-125375000D01*
G75*
G02*
X196575000Y-125275000I0J100000D01*
G01*
G37*
G36*
G01*
X196575000Y-125925000D02*
X196575000Y-125725000D01*
G75*
G02*
X196675000Y-125625000I100000J0D01*
G01*
X197950000Y-125625000D01*
G75*
G02*
X198050000Y-125725000I0J-100000D01*
G01*
X198050000Y-125925000D01*
G75*
G02*
X197950000Y-126025000I-100000J0D01*
G01*
X196675000Y-126025000D01*
G75*
G02*
X196575000Y-125925000I0J100000D01*
G01*
G37*
G36*
G01*
X196575000Y-126575000D02*
X196575000Y-126375000D01*
G75*
G02*
X196675000Y-126275000I100000J0D01*
G01*
X197950000Y-126275000D01*
G75*
G02*
X198050000Y-126375000I0J-100000D01*
G01*
X198050000Y-126575000D01*
G75*
G02*
X197950000Y-126675000I-100000J0D01*
G01*
X196675000Y-126675000D01*
G75*
G02*
X196575000Y-126575000I0J100000D01*
G01*
G37*
G36*
G01*
X196575000Y-127225000D02*
X196575000Y-127025000D01*
G75*
G02*
X196675000Y-126925000I100000J0D01*
G01*
X197950000Y-126925000D01*
G75*
G02*
X198050000Y-127025000I0J-100000D01*
G01*
X198050000Y-127225000D01*
G75*
G02*
X197950000Y-127325000I-100000J0D01*
G01*
X196675000Y-127325000D01*
G75*
G02*
X196575000Y-127225000I0J100000D01*
G01*
G37*
G36*
G01*
X196575000Y-127875000D02*
X196575000Y-127675000D01*
G75*
G02*
X196675000Y-127575000I100000J0D01*
G01*
X197950000Y-127575000D01*
G75*
G02*
X198050000Y-127675000I0J-100000D01*
G01*
X198050000Y-127875000D01*
G75*
G02*
X197950000Y-127975000I-100000J0D01*
G01*
X196675000Y-127975000D01*
G75*
G02*
X196575000Y-127875000I0J100000D01*
G01*
G37*
G36*
G01*
X196575000Y-128525000D02*
X196575000Y-128325000D01*
G75*
G02*
X196675000Y-128225000I100000J0D01*
G01*
X197950000Y-128225000D01*
G75*
G02*
X198050000Y-128325000I0J-100000D01*
G01*
X198050000Y-128525000D01*
G75*
G02*
X197950000Y-128625000I-100000J0D01*
G01*
X196675000Y-128625000D01*
G75*
G02*
X196575000Y-128525000I0J100000D01*
G01*
G37*
G36*
G01*
X196575000Y-129175000D02*
X196575000Y-128975000D01*
G75*
G02*
X196675000Y-128875000I100000J0D01*
G01*
X197950000Y-128875000D01*
G75*
G02*
X198050000Y-128975000I0J-100000D01*
G01*
X198050000Y-129175000D01*
G75*
G02*
X197950000Y-129275000I-100000J0D01*
G01*
X196675000Y-129275000D01*
G75*
G02*
X196575000Y-129175000I0J100000D01*
G01*
G37*
G36*
G01*
X196575000Y-129825000D02*
X196575000Y-129625000D01*
G75*
G02*
X196675000Y-129525000I100000J0D01*
G01*
X197950000Y-129525000D01*
G75*
G02*
X198050000Y-129625000I0J-100000D01*
G01*
X198050000Y-129825000D01*
G75*
G02*
X197950000Y-129925000I-100000J0D01*
G01*
X196675000Y-129925000D01*
G75*
G02*
X196575000Y-129825000I0J100000D01*
G01*
G37*
G36*
G01*
X196575000Y-130475000D02*
X196575000Y-130275000D01*
G75*
G02*
X196675000Y-130175000I100000J0D01*
G01*
X197950000Y-130175000D01*
G75*
G02*
X198050000Y-130275000I0J-100000D01*
G01*
X198050000Y-130475000D01*
G75*
G02*
X197950000Y-130575000I-100000J0D01*
G01*
X196675000Y-130575000D01*
G75*
G02*
X196575000Y-130475000I0J100000D01*
G01*
G37*
G36*
G01*
X196575000Y-131125000D02*
X196575000Y-130925000D01*
G75*
G02*
X196675000Y-130825000I100000J0D01*
G01*
X197950000Y-130825000D01*
G75*
G02*
X198050000Y-130925000I0J-100000D01*
G01*
X198050000Y-131125000D01*
G75*
G02*
X197950000Y-131225000I-100000J0D01*
G01*
X196675000Y-131225000D01*
G75*
G02*
X196575000Y-131125000I0J100000D01*
G01*
G37*
G36*
G01*
X190850000Y-131125000D02*
X190850000Y-130925000D01*
G75*
G02*
X190950000Y-130825000I100000J0D01*
G01*
X192225000Y-130825000D01*
G75*
G02*
X192325000Y-130925000I0J-100000D01*
G01*
X192325000Y-131125000D01*
G75*
G02*
X192225000Y-131225000I-100000J0D01*
G01*
X190950000Y-131225000D01*
G75*
G02*
X190850000Y-131125000I0J100000D01*
G01*
G37*
G36*
G01*
X190850000Y-130475000D02*
X190850000Y-130275000D01*
G75*
G02*
X190950000Y-130175000I100000J0D01*
G01*
X192225000Y-130175000D01*
G75*
G02*
X192325000Y-130275000I0J-100000D01*
G01*
X192325000Y-130475000D01*
G75*
G02*
X192225000Y-130575000I-100000J0D01*
G01*
X190950000Y-130575000D01*
G75*
G02*
X190850000Y-130475000I0J100000D01*
G01*
G37*
G36*
G01*
X190850000Y-129825000D02*
X190850000Y-129625000D01*
G75*
G02*
X190950000Y-129525000I100000J0D01*
G01*
X192225000Y-129525000D01*
G75*
G02*
X192325000Y-129625000I0J-100000D01*
G01*
X192325000Y-129825000D01*
G75*
G02*
X192225000Y-129925000I-100000J0D01*
G01*
X190950000Y-129925000D01*
G75*
G02*
X190850000Y-129825000I0J100000D01*
G01*
G37*
G36*
G01*
X190850000Y-129175000D02*
X190850000Y-128975000D01*
G75*
G02*
X190950000Y-128875000I100000J0D01*
G01*
X192225000Y-128875000D01*
G75*
G02*
X192325000Y-128975000I0J-100000D01*
G01*
X192325000Y-129175000D01*
G75*
G02*
X192225000Y-129275000I-100000J0D01*
G01*
X190950000Y-129275000D01*
G75*
G02*
X190850000Y-129175000I0J100000D01*
G01*
G37*
G36*
G01*
X190850000Y-128525000D02*
X190850000Y-128325000D01*
G75*
G02*
X190950000Y-128225000I100000J0D01*
G01*
X192225000Y-128225000D01*
G75*
G02*
X192325000Y-128325000I0J-100000D01*
G01*
X192325000Y-128525000D01*
G75*
G02*
X192225000Y-128625000I-100000J0D01*
G01*
X190950000Y-128625000D01*
G75*
G02*
X190850000Y-128525000I0J100000D01*
G01*
G37*
G36*
G01*
X190850000Y-127875000D02*
X190850000Y-127675000D01*
G75*
G02*
X190950000Y-127575000I100000J0D01*
G01*
X192225000Y-127575000D01*
G75*
G02*
X192325000Y-127675000I0J-100000D01*
G01*
X192325000Y-127875000D01*
G75*
G02*
X192225000Y-127975000I-100000J0D01*
G01*
X190950000Y-127975000D01*
G75*
G02*
X190850000Y-127875000I0J100000D01*
G01*
G37*
G36*
G01*
X190850000Y-127225000D02*
X190850000Y-127025000D01*
G75*
G02*
X190950000Y-126925000I100000J0D01*
G01*
X192225000Y-126925000D01*
G75*
G02*
X192325000Y-127025000I0J-100000D01*
G01*
X192325000Y-127225000D01*
G75*
G02*
X192225000Y-127325000I-100000J0D01*
G01*
X190950000Y-127325000D01*
G75*
G02*
X190850000Y-127225000I0J100000D01*
G01*
G37*
G36*
G01*
X190850000Y-126575000D02*
X190850000Y-126375000D01*
G75*
G02*
X190950000Y-126275000I100000J0D01*
G01*
X192225000Y-126275000D01*
G75*
G02*
X192325000Y-126375000I0J-100000D01*
G01*
X192325000Y-126575000D01*
G75*
G02*
X192225000Y-126675000I-100000J0D01*
G01*
X190950000Y-126675000D01*
G75*
G02*
X190850000Y-126575000I0J100000D01*
G01*
G37*
G36*
G01*
X190850000Y-125925000D02*
X190850000Y-125725000D01*
G75*
G02*
X190950000Y-125625000I100000J0D01*
G01*
X192225000Y-125625000D01*
G75*
G02*
X192325000Y-125725000I0J-100000D01*
G01*
X192325000Y-125925000D01*
G75*
G02*
X192225000Y-126025000I-100000J0D01*
G01*
X190950000Y-126025000D01*
G75*
G02*
X190850000Y-125925000I0J100000D01*
G01*
G37*
G36*
G01*
X190850000Y-125275000D02*
X190850000Y-125075000D01*
G75*
G02*
X190950000Y-124975000I100000J0D01*
G01*
X192225000Y-124975000D01*
G75*
G02*
X192325000Y-125075000I0J-100000D01*
G01*
X192325000Y-125275000D01*
G75*
G02*
X192225000Y-125375000I-100000J0D01*
G01*
X190950000Y-125375000D01*
G75*
G02*
X190850000Y-125275000I0J100000D01*
G01*
G37*
G04 #@! TD*
D30*
G04 #@! TO.C,Y1*
X139550000Y-110500000D03*
X137050000Y-110500000D03*
G04 #@! TD*
G04 #@! TO.C,C17*
G36*
G01*
X186680000Y-143840000D02*
X186680000Y-143500000D01*
G75*
G02*
X186820000Y-143360000I140000J0D01*
G01*
X187100000Y-143360000D01*
G75*
G02*
X187240000Y-143500000I0J-140000D01*
G01*
X187240000Y-143840000D01*
G75*
G02*
X187100000Y-143980000I-140000J0D01*
G01*
X186820000Y-143980000D01*
G75*
G02*
X186680000Y-143840000I0J140000D01*
G01*
G37*
G36*
G01*
X185720000Y-143840000D02*
X185720000Y-143500000D01*
G75*
G02*
X185860000Y-143360000I140000J0D01*
G01*
X186140000Y-143360000D01*
G75*
G02*
X186280000Y-143500000I0J-140000D01*
G01*
X186280000Y-143840000D01*
G75*
G02*
X186140000Y-143980000I-140000J0D01*
G01*
X185860000Y-143980000D01*
G75*
G02*
X185720000Y-143840000I0J140000D01*
G01*
G37*
G04 #@! TD*
G04 #@! TO.C,C16*
G36*
G01*
X182050000Y-100925000D02*
X182050000Y-101875000D01*
G75*
G02*
X181800000Y-102125000I-250000J0D01*
G01*
X181300000Y-102125000D01*
G75*
G02*
X181050000Y-101875000I0J250000D01*
G01*
X181050000Y-100925000D01*
G75*
G02*
X181300000Y-100675000I250000J0D01*
G01*
X181800000Y-100675000D01*
G75*
G02*
X182050000Y-100925000I0J-250000D01*
G01*
G37*
G36*
G01*
X180150000Y-100925000D02*
X180150000Y-101875000D01*
G75*
G02*
X179900000Y-102125000I-250000J0D01*
G01*
X179400000Y-102125000D01*
G75*
G02*
X179150000Y-101875000I0J250000D01*
G01*
X179150000Y-100925000D01*
G75*
G02*
X179400000Y-100675000I250000J0D01*
G01*
X179900000Y-100675000D01*
G75*
G02*
X180150000Y-100925000I0J-250000D01*
G01*
G37*
G04 #@! TD*
D12*
G04 #@! TO.C,H2*
X104500000Y-107000000D03*
G04 #@! TD*
G04 #@! TO.C,C39*
G36*
G01*
X139150000Y-115430000D02*
X139150000Y-115770000D01*
G75*
G02*
X139010000Y-115910000I-140000J0D01*
G01*
X138730000Y-115910000D01*
G75*
G02*
X138590000Y-115770000I0J140000D01*
G01*
X138590000Y-115430000D01*
G75*
G02*
X138730000Y-115290000I140000J0D01*
G01*
X139010000Y-115290000D01*
G75*
G02*
X139150000Y-115430000I0J-140000D01*
G01*
G37*
G36*
G01*
X140110000Y-115430000D02*
X140110000Y-115770000D01*
G75*
G02*
X139970000Y-115910000I-140000J0D01*
G01*
X139690000Y-115910000D01*
G75*
G02*
X139550000Y-115770000I0J140000D01*
G01*
X139550000Y-115430000D01*
G75*
G02*
X139690000Y-115290000I140000J0D01*
G01*
X139970000Y-115290000D01*
G75*
G02*
X140110000Y-115430000I0J-140000D01*
G01*
G37*
G04 #@! TD*
G04 #@! TO.C,C40*
G36*
G01*
X169900000Y-104675000D02*
X169900000Y-103725000D01*
G75*
G02*
X170150000Y-103475000I250000J0D01*
G01*
X170650000Y-103475000D01*
G75*
G02*
X170900000Y-103725000I0J-250000D01*
G01*
X170900000Y-104675000D01*
G75*
G02*
X170650000Y-104925000I-250000J0D01*
G01*
X170150000Y-104925000D01*
G75*
G02*
X169900000Y-104675000I0J250000D01*
G01*
G37*
G36*
G01*
X171800000Y-104675000D02*
X171800000Y-103725000D01*
G75*
G02*
X172050000Y-103475000I250000J0D01*
G01*
X172550000Y-103475000D01*
G75*
G02*
X172800000Y-103725000I0J-250000D01*
G01*
X172800000Y-104675000D01*
G75*
G02*
X172550000Y-104925000I-250000J0D01*
G01*
X172050000Y-104925000D01*
G75*
G02*
X171800000Y-104675000I0J250000D01*
G01*
G37*
G04 #@! TD*
D31*
G04 #@! TO.C,C41*
X167000000Y-98250000D03*
D32*
X163500000Y-98250000D03*
G04 #@! TD*
G04 #@! TO.C,C44*
G36*
G01*
X170900000Y-100825000D02*
X170400000Y-100825000D01*
G75*
G02*
X170175000Y-100600000I0J225000D01*
G01*
X170175000Y-100150000D01*
G75*
G02*
X170400000Y-99925000I225000J0D01*
G01*
X170900000Y-99925000D01*
G75*
G02*
X171125000Y-100150000I0J-225000D01*
G01*
X171125000Y-100600000D01*
G75*
G02*
X170900000Y-100825000I-225000J0D01*
G01*
G37*
G36*
G01*
X170900000Y-99275000D02*
X170400000Y-99275000D01*
G75*
G02*
X170175000Y-99050000I0J225000D01*
G01*
X170175000Y-98600000D01*
G75*
G02*
X170400000Y-98375000I225000J0D01*
G01*
X170900000Y-98375000D01*
G75*
G02*
X171125000Y-98600000I0J-225000D01*
G01*
X171125000Y-99050000D01*
G75*
G02*
X170900000Y-99275000I-225000J0D01*
G01*
G37*
G04 #@! TD*
G04 #@! TO.C,C48*
G36*
G01*
X156725000Y-104650000D02*
X156725000Y-104150000D01*
G75*
G02*
X156950000Y-103925000I225000J0D01*
G01*
X157400000Y-103925000D01*
G75*
G02*
X157625000Y-104150000I0J-225000D01*
G01*
X157625000Y-104650000D01*
G75*
G02*
X157400000Y-104875000I-225000J0D01*
G01*
X156950000Y-104875000D01*
G75*
G02*
X156725000Y-104650000I0J225000D01*
G01*
G37*
G36*
G01*
X155175000Y-104650000D02*
X155175000Y-104150000D01*
G75*
G02*
X155400000Y-103925000I225000J0D01*
G01*
X155850000Y-103925000D01*
G75*
G02*
X156075000Y-104150000I0J-225000D01*
G01*
X156075000Y-104650000D01*
G75*
G02*
X155850000Y-104875000I-225000J0D01*
G01*
X155400000Y-104875000D01*
G75*
G02*
X155175000Y-104650000I0J225000D01*
G01*
G37*
G04 #@! TD*
G04 #@! TO.C,C49*
G36*
G01*
X175925000Y-101700000D02*
X176875000Y-101700000D01*
G75*
G02*
X177125000Y-101950000I0J-250000D01*
G01*
X177125000Y-102450000D01*
G75*
G02*
X176875000Y-102700000I-250000J0D01*
G01*
X175925000Y-102700000D01*
G75*
G02*
X175675000Y-102450000I0J250000D01*
G01*
X175675000Y-101950000D01*
G75*
G02*
X175925000Y-101700000I250000J0D01*
G01*
G37*
G36*
G01*
X175925000Y-99800000D02*
X176875000Y-99800000D01*
G75*
G02*
X177125000Y-100050000I0J-250000D01*
G01*
X177125000Y-100550000D01*
G75*
G02*
X176875000Y-100800000I-250000J0D01*
G01*
X175925000Y-100800000D01*
G75*
G02*
X175675000Y-100550000I0J250000D01*
G01*
X175675000Y-100050000D01*
G75*
G02*
X175925000Y-99800000I250000J0D01*
G01*
G37*
G04 #@! TD*
G04 #@! TO.C,C51*
G36*
G01*
X138560000Y-104030000D02*
X138560000Y-104370000D01*
G75*
G02*
X138420000Y-104510000I-140000J0D01*
G01*
X138140000Y-104510000D01*
G75*
G02*
X138000000Y-104370000I0J140000D01*
G01*
X138000000Y-104030000D01*
G75*
G02*
X138140000Y-103890000I140000J0D01*
G01*
X138420000Y-103890000D01*
G75*
G02*
X138560000Y-104030000I0J-140000D01*
G01*
G37*
G36*
G01*
X137600000Y-104030000D02*
X137600000Y-104370000D01*
G75*
G02*
X137460000Y-104510000I-140000J0D01*
G01*
X137180000Y-104510000D01*
G75*
G02*
X137040000Y-104370000I0J140000D01*
G01*
X137040000Y-104030000D01*
G75*
G02*
X137180000Y-103890000I140000J0D01*
G01*
X137460000Y-103890000D01*
G75*
G02*
X137600000Y-104030000I0J-140000D01*
G01*
G37*
G04 #@! TD*
G04 #@! TO.C,C52*
G36*
G01*
X145980000Y-114150000D02*
X146320000Y-114150000D01*
G75*
G02*
X146460000Y-114290000I0J-140000D01*
G01*
X146460000Y-114570000D01*
G75*
G02*
X146320000Y-114710000I-140000J0D01*
G01*
X145980000Y-114710000D01*
G75*
G02*
X145840000Y-114570000I0J140000D01*
G01*
X145840000Y-114290000D01*
G75*
G02*
X145980000Y-114150000I140000J0D01*
G01*
G37*
G36*
G01*
X145980000Y-113190000D02*
X146320000Y-113190000D01*
G75*
G02*
X146460000Y-113330000I0J-140000D01*
G01*
X146460000Y-113610000D01*
G75*
G02*
X146320000Y-113750000I-140000J0D01*
G01*
X145980000Y-113750000D01*
G75*
G02*
X145840000Y-113610000I0J140000D01*
G01*
X145840000Y-113330000D01*
G75*
G02*
X145980000Y-113190000I140000J0D01*
G01*
G37*
G04 #@! TD*
G04 #@! TO.C,C55*
G36*
G01*
X155040000Y-105870000D02*
X155040000Y-105530000D01*
G75*
G02*
X155180000Y-105390000I140000J0D01*
G01*
X155460000Y-105390000D01*
G75*
G02*
X155600000Y-105530000I0J-140000D01*
G01*
X155600000Y-105870000D01*
G75*
G02*
X155460000Y-106010000I-140000J0D01*
G01*
X155180000Y-106010000D01*
G75*
G02*
X155040000Y-105870000I0J140000D01*
G01*
G37*
G36*
G01*
X156000000Y-105870000D02*
X156000000Y-105530000D01*
G75*
G02*
X156140000Y-105390000I140000J0D01*
G01*
X156420000Y-105390000D01*
G75*
G02*
X156560000Y-105530000I0J-140000D01*
G01*
X156560000Y-105870000D01*
G75*
G02*
X156420000Y-106010000I-140000J0D01*
G01*
X156140000Y-106010000D01*
G75*
G02*
X156000000Y-105870000I0J140000D01*
G01*
G37*
G04 #@! TD*
G04 #@! TO.C,U4*
G36*
G01*
X155950000Y-115145000D02*
X155950000Y-114845000D01*
G75*
G02*
X156100000Y-114695000I150000J0D01*
G01*
X157750000Y-114695000D01*
G75*
G02*
X157900000Y-114845000I0J-150000D01*
G01*
X157900000Y-115145000D01*
G75*
G02*
X157750000Y-115295000I-150000J0D01*
G01*
X156100000Y-115295000D01*
G75*
G02*
X155950000Y-115145000I0J150000D01*
G01*
G37*
G36*
G01*
X155950000Y-116415000D02*
X155950000Y-116115000D01*
G75*
G02*
X156100000Y-115965000I150000J0D01*
G01*
X157750000Y-115965000D01*
G75*
G02*
X157900000Y-116115000I0J-150000D01*
G01*
X157900000Y-116415000D01*
G75*
G02*
X157750000Y-116565000I-150000J0D01*
G01*
X156100000Y-116565000D01*
G75*
G02*
X155950000Y-116415000I0J150000D01*
G01*
G37*
G36*
G01*
X155950000Y-117685000D02*
X155950000Y-117385000D01*
G75*
G02*
X156100000Y-117235000I150000J0D01*
G01*
X157750000Y-117235000D01*
G75*
G02*
X157900000Y-117385000I0J-150000D01*
G01*
X157900000Y-117685000D01*
G75*
G02*
X157750000Y-117835000I-150000J0D01*
G01*
X156100000Y-117835000D01*
G75*
G02*
X155950000Y-117685000I0J150000D01*
G01*
G37*
G36*
G01*
X155950000Y-118955000D02*
X155950000Y-118655000D01*
G75*
G02*
X156100000Y-118505000I150000J0D01*
G01*
X157750000Y-118505000D01*
G75*
G02*
X157900000Y-118655000I0J-150000D01*
G01*
X157900000Y-118955000D01*
G75*
G02*
X157750000Y-119105000I-150000J0D01*
G01*
X156100000Y-119105000D01*
G75*
G02*
X155950000Y-118955000I0J150000D01*
G01*
G37*
G36*
G01*
X160900000Y-118955000D02*
X160900000Y-118655000D01*
G75*
G02*
X161050000Y-118505000I150000J0D01*
G01*
X162700000Y-118505000D01*
G75*
G02*
X162850000Y-118655000I0J-150000D01*
G01*
X162850000Y-118955000D01*
G75*
G02*
X162700000Y-119105000I-150000J0D01*
G01*
X161050000Y-119105000D01*
G75*
G02*
X160900000Y-118955000I0J150000D01*
G01*
G37*
G36*
G01*
X160900000Y-117685000D02*
X160900000Y-117385000D01*
G75*
G02*
X161050000Y-117235000I150000J0D01*
G01*
X162700000Y-117235000D01*
G75*
G02*
X162850000Y-117385000I0J-150000D01*
G01*
X162850000Y-117685000D01*
G75*
G02*
X162700000Y-117835000I-150000J0D01*
G01*
X161050000Y-117835000D01*
G75*
G02*
X160900000Y-117685000I0J150000D01*
G01*
G37*
G36*
G01*
X160900000Y-116415000D02*
X160900000Y-116115000D01*
G75*
G02*
X161050000Y-115965000I150000J0D01*
G01*
X162700000Y-115965000D01*
G75*
G02*
X162850000Y-116115000I0J-150000D01*
G01*
X162850000Y-116415000D01*
G75*
G02*
X162700000Y-116565000I-150000J0D01*
G01*
X161050000Y-116565000D01*
G75*
G02*
X160900000Y-116415000I0J150000D01*
G01*
G37*
G36*
G01*
X160900000Y-115145000D02*
X160900000Y-114845000D01*
G75*
G02*
X161050000Y-114695000I150000J0D01*
G01*
X162700000Y-114695000D01*
G75*
G02*
X162850000Y-114845000I0J-150000D01*
G01*
X162850000Y-115145000D01*
G75*
G02*
X162700000Y-115295000I-150000J0D01*
G01*
X161050000Y-115295000D01*
G75*
G02*
X160900000Y-115145000I0J150000D01*
G01*
G37*
G04 #@! TD*
D15*
G04 #@! TO.C,U5*
X174500000Y-100400000D03*
X174500000Y-102300000D03*
X172300000Y-102300000D03*
X172300000Y-101350000D03*
X172300000Y-100400000D03*
G04 #@! TD*
G04 #@! TO.C,U6*
G36*
G01*
X142500000Y-99950000D02*
X142500000Y-98625000D01*
G75*
G02*
X142575000Y-98550000I75000J0D01*
G01*
X142725000Y-98550000D01*
G75*
G02*
X142800000Y-98625000I0J-75000D01*
G01*
X142800000Y-99950000D01*
G75*
G02*
X142725000Y-100025000I-75000J0D01*
G01*
X142575000Y-100025000D01*
G75*
G02*
X142500000Y-99950000I0J75000D01*
G01*
G37*
G36*
G01*
X143000000Y-99950000D02*
X143000000Y-98625000D01*
G75*
G02*
X143075000Y-98550000I75000J0D01*
G01*
X143225000Y-98550000D01*
G75*
G02*
X143300000Y-98625000I0J-75000D01*
G01*
X143300000Y-99950000D01*
G75*
G02*
X143225000Y-100025000I-75000J0D01*
G01*
X143075000Y-100025000D01*
G75*
G02*
X143000000Y-99950000I0J75000D01*
G01*
G37*
G36*
G01*
X143500000Y-99950000D02*
X143500000Y-98625000D01*
G75*
G02*
X143575000Y-98550000I75000J0D01*
G01*
X143725000Y-98550000D01*
G75*
G02*
X143800000Y-98625000I0J-75000D01*
G01*
X143800000Y-99950000D01*
G75*
G02*
X143725000Y-100025000I-75000J0D01*
G01*
X143575000Y-100025000D01*
G75*
G02*
X143500000Y-99950000I0J75000D01*
G01*
G37*
G36*
G01*
X144000000Y-99950000D02*
X144000000Y-98625000D01*
G75*
G02*
X144075000Y-98550000I75000J0D01*
G01*
X144225000Y-98550000D01*
G75*
G02*
X144300000Y-98625000I0J-75000D01*
G01*
X144300000Y-99950000D01*
G75*
G02*
X144225000Y-100025000I-75000J0D01*
G01*
X144075000Y-100025000D01*
G75*
G02*
X144000000Y-99950000I0J75000D01*
G01*
G37*
G36*
G01*
X144500000Y-99950000D02*
X144500000Y-98625000D01*
G75*
G02*
X144575000Y-98550000I75000J0D01*
G01*
X144725000Y-98550000D01*
G75*
G02*
X144800000Y-98625000I0J-75000D01*
G01*
X144800000Y-99950000D01*
G75*
G02*
X144725000Y-100025000I-75000J0D01*
G01*
X144575000Y-100025000D01*
G75*
G02*
X144500000Y-99950000I0J75000D01*
G01*
G37*
G36*
G01*
X145000000Y-99950000D02*
X145000000Y-98625000D01*
G75*
G02*
X145075000Y-98550000I75000J0D01*
G01*
X145225000Y-98550000D01*
G75*
G02*
X145300000Y-98625000I0J-75000D01*
G01*
X145300000Y-99950000D01*
G75*
G02*
X145225000Y-100025000I-75000J0D01*
G01*
X145075000Y-100025000D01*
G75*
G02*
X145000000Y-99950000I0J75000D01*
G01*
G37*
G36*
G01*
X145500000Y-99950000D02*
X145500000Y-98625000D01*
G75*
G02*
X145575000Y-98550000I75000J0D01*
G01*
X145725000Y-98550000D01*
G75*
G02*
X145800000Y-98625000I0J-75000D01*
G01*
X145800000Y-99950000D01*
G75*
G02*
X145725000Y-100025000I-75000J0D01*
G01*
X145575000Y-100025000D01*
G75*
G02*
X145500000Y-99950000I0J75000D01*
G01*
G37*
G36*
G01*
X146000000Y-99950000D02*
X146000000Y-98625000D01*
G75*
G02*
X146075000Y-98550000I75000J0D01*
G01*
X146225000Y-98550000D01*
G75*
G02*
X146300000Y-98625000I0J-75000D01*
G01*
X146300000Y-99950000D01*
G75*
G02*
X146225000Y-100025000I-75000J0D01*
G01*
X146075000Y-100025000D01*
G75*
G02*
X146000000Y-99950000I0J75000D01*
G01*
G37*
G36*
G01*
X146500000Y-99950000D02*
X146500000Y-98625000D01*
G75*
G02*
X146575000Y-98550000I75000J0D01*
G01*
X146725000Y-98550000D01*
G75*
G02*
X146800000Y-98625000I0J-75000D01*
G01*
X146800000Y-99950000D01*
G75*
G02*
X146725000Y-100025000I-75000J0D01*
G01*
X146575000Y-100025000D01*
G75*
G02*
X146500000Y-99950000I0J75000D01*
G01*
G37*
G36*
G01*
X147000000Y-99950000D02*
X147000000Y-98625000D01*
G75*
G02*
X147075000Y-98550000I75000J0D01*
G01*
X147225000Y-98550000D01*
G75*
G02*
X147300000Y-98625000I0J-75000D01*
G01*
X147300000Y-99950000D01*
G75*
G02*
X147225000Y-100025000I-75000J0D01*
G01*
X147075000Y-100025000D01*
G75*
G02*
X147000000Y-99950000I0J75000D01*
G01*
G37*
G36*
G01*
X147500000Y-99950000D02*
X147500000Y-98625000D01*
G75*
G02*
X147575000Y-98550000I75000J0D01*
G01*
X147725000Y-98550000D01*
G75*
G02*
X147800000Y-98625000I0J-75000D01*
G01*
X147800000Y-99950000D01*
G75*
G02*
X147725000Y-100025000I-75000J0D01*
G01*
X147575000Y-100025000D01*
G75*
G02*
X147500000Y-99950000I0J75000D01*
G01*
G37*
G36*
G01*
X148000000Y-99950000D02*
X148000000Y-98625000D01*
G75*
G02*
X148075000Y-98550000I75000J0D01*
G01*
X148225000Y-98550000D01*
G75*
G02*
X148300000Y-98625000I0J-75000D01*
G01*
X148300000Y-99950000D01*
G75*
G02*
X148225000Y-100025000I-75000J0D01*
G01*
X148075000Y-100025000D01*
G75*
G02*
X148000000Y-99950000I0J75000D01*
G01*
G37*
G36*
G01*
X148500000Y-99950000D02*
X148500000Y-98625000D01*
G75*
G02*
X148575000Y-98550000I75000J0D01*
G01*
X148725000Y-98550000D01*
G75*
G02*
X148800000Y-98625000I0J-75000D01*
G01*
X148800000Y-99950000D01*
G75*
G02*
X148725000Y-100025000I-75000J0D01*
G01*
X148575000Y-100025000D01*
G75*
G02*
X148500000Y-99950000I0J75000D01*
G01*
G37*
G36*
G01*
X149000000Y-99950000D02*
X149000000Y-98625000D01*
G75*
G02*
X149075000Y-98550000I75000J0D01*
G01*
X149225000Y-98550000D01*
G75*
G02*
X149300000Y-98625000I0J-75000D01*
G01*
X149300000Y-99950000D01*
G75*
G02*
X149225000Y-100025000I-75000J0D01*
G01*
X149075000Y-100025000D01*
G75*
G02*
X149000000Y-99950000I0J75000D01*
G01*
G37*
G36*
G01*
X149500000Y-99950000D02*
X149500000Y-98625000D01*
G75*
G02*
X149575000Y-98550000I75000J0D01*
G01*
X149725000Y-98550000D01*
G75*
G02*
X149800000Y-98625000I0J-75000D01*
G01*
X149800000Y-99950000D01*
G75*
G02*
X149725000Y-100025000I-75000J0D01*
G01*
X149575000Y-100025000D01*
G75*
G02*
X149500000Y-99950000I0J75000D01*
G01*
G37*
G36*
G01*
X150000000Y-99950000D02*
X150000000Y-98625000D01*
G75*
G02*
X150075000Y-98550000I75000J0D01*
G01*
X150225000Y-98550000D01*
G75*
G02*
X150300000Y-98625000I0J-75000D01*
G01*
X150300000Y-99950000D01*
G75*
G02*
X150225000Y-100025000I-75000J0D01*
G01*
X150075000Y-100025000D01*
G75*
G02*
X150000000Y-99950000I0J75000D01*
G01*
G37*
G36*
G01*
X151325000Y-101275000D02*
X151325000Y-101125000D01*
G75*
G02*
X151400000Y-101050000I75000J0D01*
G01*
X152725000Y-101050000D01*
G75*
G02*
X152800000Y-101125000I0J-75000D01*
G01*
X152800000Y-101275000D01*
G75*
G02*
X152725000Y-101350000I-75000J0D01*
G01*
X151400000Y-101350000D01*
G75*
G02*
X151325000Y-101275000I0J75000D01*
G01*
G37*
G36*
G01*
X151325000Y-101775000D02*
X151325000Y-101625000D01*
G75*
G02*
X151400000Y-101550000I75000J0D01*
G01*
X152725000Y-101550000D01*
G75*
G02*
X152800000Y-101625000I0J-75000D01*
G01*
X152800000Y-101775000D01*
G75*
G02*
X152725000Y-101850000I-75000J0D01*
G01*
X151400000Y-101850000D01*
G75*
G02*
X151325000Y-101775000I0J75000D01*
G01*
G37*
G36*
G01*
X151325000Y-102275000D02*
X151325000Y-102125000D01*
G75*
G02*
X151400000Y-102050000I75000J0D01*
G01*
X152725000Y-102050000D01*
G75*
G02*
X152800000Y-102125000I0J-75000D01*
G01*
X152800000Y-102275000D01*
G75*
G02*
X152725000Y-102350000I-75000J0D01*
G01*
X151400000Y-102350000D01*
G75*
G02*
X151325000Y-102275000I0J75000D01*
G01*
G37*
G36*
G01*
X151325000Y-102775000D02*
X151325000Y-102625000D01*
G75*
G02*
X151400000Y-102550000I75000J0D01*
G01*
X152725000Y-102550000D01*
G75*
G02*
X152800000Y-102625000I0J-75000D01*
G01*
X152800000Y-102775000D01*
G75*
G02*
X152725000Y-102850000I-75000J0D01*
G01*
X151400000Y-102850000D01*
G75*
G02*
X151325000Y-102775000I0J75000D01*
G01*
G37*
G36*
G01*
X151325000Y-103275000D02*
X151325000Y-103125000D01*
G75*
G02*
X151400000Y-103050000I75000J0D01*
G01*
X152725000Y-103050000D01*
G75*
G02*
X152800000Y-103125000I0J-75000D01*
G01*
X152800000Y-103275000D01*
G75*
G02*
X152725000Y-103350000I-75000J0D01*
G01*
X151400000Y-103350000D01*
G75*
G02*
X151325000Y-103275000I0J75000D01*
G01*
G37*
G36*
G01*
X151325000Y-103775000D02*
X151325000Y-103625000D01*
G75*
G02*
X151400000Y-103550000I75000J0D01*
G01*
X152725000Y-103550000D01*
G75*
G02*
X152800000Y-103625000I0J-75000D01*
G01*
X152800000Y-103775000D01*
G75*
G02*
X152725000Y-103850000I-75000J0D01*
G01*
X151400000Y-103850000D01*
G75*
G02*
X151325000Y-103775000I0J75000D01*
G01*
G37*
G36*
G01*
X151325000Y-104275000D02*
X151325000Y-104125000D01*
G75*
G02*
X151400000Y-104050000I75000J0D01*
G01*
X152725000Y-104050000D01*
G75*
G02*
X152800000Y-104125000I0J-75000D01*
G01*
X152800000Y-104275000D01*
G75*
G02*
X152725000Y-104350000I-75000J0D01*
G01*
X151400000Y-104350000D01*
G75*
G02*
X151325000Y-104275000I0J75000D01*
G01*
G37*
G36*
G01*
X151325000Y-104775000D02*
X151325000Y-104625000D01*
G75*
G02*
X151400000Y-104550000I75000J0D01*
G01*
X152725000Y-104550000D01*
G75*
G02*
X152800000Y-104625000I0J-75000D01*
G01*
X152800000Y-104775000D01*
G75*
G02*
X152725000Y-104850000I-75000J0D01*
G01*
X151400000Y-104850000D01*
G75*
G02*
X151325000Y-104775000I0J75000D01*
G01*
G37*
G36*
G01*
X151325000Y-105275000D02*
X151325000Y-105125000D01*
G75*
G02*
X151400000Y-105050000I75000J0D01*
G01*
X152725000Y-105050000D01*
G75*
G02*
X152800000Y-105125000I0J-75000D01*
G01*
X152800000Y-105275000D01*
G75*
G02*
X152725000Y-105350000I-75000J0D01*
G01*
X151400000Y-105350000D01*
G75*
G02*
X151325000Y-105275000I0J75000D01*
G01*
G37*
G36*
G01*
X151325000Y-105775000D02*
X151325000Y-105625000D01*
G75*
G02*
X151400000Y-105550000I75000J0D01*
G01*
X152725000Y-105550000D01*
G75*
G02*
X152800000Y-105625000I0J-75000D01*
G01*
X152800000Y-105775000D01*
G75*
G02*
X152725000Y-105850000I-75000J0D01*
G01*
X151400000Y-105850000D01*
G75*
G02*
X151325000Y-105775000I0J75000D01*
G01*
G37*
G36*
G01*
X151325000Y-106275000D02*
X151325000Y-106125000D01*
G75*
G02*
X151400000Y-106050000I75000J0D01*
G01*
X152725000Y-106050000D01*
G75*
G02*
X152800000Y-106125000I0J-75000D01*
G01*
X152800000Y-106275000D01*
G75*
G02*
X152725000Y-106350000I-75000J0D01*
G01*
X151400000Y-106350000D01*
G75*
G02*
X151325000Y-106275000I0J75000D01*
G01*
G37*
G36*
G01*
X151325000Y-106775000D02*
X151325000Y-106625000D01*
G75*
G02*
X151400000Y-106550000I75000J0D01*
G01*
X152725000Y-106550000D01*
G75*
G02*
X152800000Y-106625000I0J-75000D01*
G01*
X152800000Y-106775000D01*
G75*
G02*
X152725000Y-106850000I-75000J0D01*
G01*
X151400000Y-106850000D01*
G75*
G02*
X151325000Y-106775000I0J75000D01*
G01*
G37*
G36*
G01*
X151325000Y-107275000D02*
X151325000Y-107125000D01*
G75*
G02*
X151400000Y-107050000I75000J0D01*
G01*
X152725000Y-107050000D01*
G75*
G02*
X152800000Y-107125000I0J-75000D01*
G01*
X152800000Y-107275000D01*
G75*
G02*
X152725000Y-107350000I-75000J0D01*
G01*
X151400000Y-107350000D01*
G75*
G02*
X151325000Y-107275000I0J75000D01*
G01*
G37*
G36*
G01*
X151325000Y-107775000D02*
X151325000Y-107625000D01*
G75*
G02*
X151400000Y-107550000I75000J0D01*
G01*
X152725000Y-107550000D01*
G75*
G02*
X152800000Y-107625000I0J-75000D01*
G01*
X152800000Y-107775000D01*
G75*
G02*
X152725000Y-107850000I-75000J0D01*
G01*
X151400000Y-107850000D01*
G75*
G02*
X151325000Y-107775000I0J75000D01*
G01*
G37*
G36*
G01*
X151325000Y-108275000D02*
X151325000Y-108125000D01*
G75*
G02*
X151400000Y-108050000I75000J0D01*
G01*
X152725000Y-108050000D01*
G75*
G02*
X152800000Y-108125000I0J-75000D01*
G01*
X152800000Y-108275000D01*
G75*
G02*
X152725000Y-108350000I-75000J0D01*
G01*
X151400000Y-108350000D01*
G75*
G02*
X151325000Y-108275000I0J75000D01*
G01*
G37*
G36*
G01*
X151325000Y-108775000D02*
X151325000Y-108625000D01*
G75*
G02*
X151400000Y-108550000I75000J0D01*
G01*
X152725000Y-108550000D01*
G75*
G02*
X152800000Y-108625000I0J-75000D01*
G01*
X152800000Y-108775000D01*
G75*
G02*
X152725000Y-108850000I-75000J0D01*
G01*
X151400000Y-108850000D01*
G75*
G02*
X151325000Y-108775000I0J75000D01*
G01*
G37*
G36*
G01*
X150000000Y-111275000D02*
X150000000Y-109950000D01*
G75*
G02*
X150075000Y-109875000I75000J0D01*
G01*
X150225000Y-109875000D01*
G75*
G02*
X150300000Y-109950000I0J-75000D01*
G01*
X150300000Y-111275000D01*
G75*
G02*
X150225000Y-111350000I-75000J0D01*
G01*
X150075000Y-111350000D01*
G75*
G02*
X150000000Y-111275000I0J75000D01*
G01*
G37*
G36*
G01*
X149500000Y-111275000D02*
X149500000Y-109950000D01*
G75*
G02*
X149575000Y-109875000I75000J0D01*
G01*
X149725000Y-109875000D01*
G75*
G02*
X149800000Y-109950000I0J-75000D01*
G01*
X149800000Y-111275000D01*
G75*
G02*
X149725000Y-111350000I-75000J0D01*
G01*
X149575000Y-111350000D01*
G75*
G02*
X149500000Y-111275000I0J75000D01*
G01*
G37*
G36*
G01*
X149000000Y-111275000D02*
X149000000Y-109950000D01*
G75*
G02*
X149075000Y-109875000I75000J0D01*
G01*
X149225000Y-109875000D01*
G75*
G02*
X149300000Y-109950000I0J-75000D01*
G01*
X149300000Y-111275000D01*
G75*
G02*
X149225000Y-111350000I-75000J0D01*
G01*
X149075000Y-111350000D01*
G75*
G02*
X149000000Y-111275000I0J75000D01*
G01*
G37*
G36*
G01*
X148500000Y-111275000D02*
X148500000Y-109950000D01*
G75*
G02*
X148575000Y-109875000I75000J0D01*
G01*
X148725000Y-109875000D01*
G75*
G02*
X148800000Y-109950000I0J-75000D01*
G01*
X148800000Y-111275000D01*
G75*
G02*
X148725000Y-111350000I-75000J0D01*
G01*
X148575000Y-111350000D01*
G75*
G02*
X148500000Y-111275000I0J75000D01*
G01*
G37*
G36*
G01*
X148000000Y-111275000D02*
X148000000Y-109950000D01*
G75*
G02*
X148075000Y-109875000I75000J0D01*
G01*
X148225000Y-109875000D01*
G75*
G02*
X148300000Y-109950000I0J-75000D01*
G01*
X148300000Y-111275000D01*
G75*
G02*
X148225000Y-111350000I-75000J0D01*
G01*
X148075000Y-111350000D01*
G75*
G02*
X148000000Y-111275000I0J75000D01*
G01*
G37*
G36*
G01*
X147500000Y-111275000D02*
X147500000Y-109950000D01*
G75*
G02*
X147575000Y-109875000I75000J0D01*
G01*
X147725000Y-109875000D01*
G75*
G02*
X147800000Y-109950000I0J-75000D01*
G01*
X147800000Y-111275000D01*
G75*
G02*
X147725000Y-111350000I-75000J0D01*
G01*
X147575000Y-111350000D01*
G75*
G02*
X147500000Y-111275000I0J75000D01*
G01*
G37*
G36*
G01*
X147000000Y-111275000D02*
X147000000Y-109950000D01*
G75*
G02*
X147075000Y-109875000I75000J0D01*
G01*
X147225000Y-109875000D01*
G75*
G02*
X147300000Y-109950000I0J-75000D01*
G01*
X147300000Y-111275000D01*
G75*
G02*
X147225000Y-111350000I-75000J0D01*
G01*
X147075000Y-111350000D01*
G75*
G02*
X147000000Y-111275000I0J75000D01*
G01*
G37*
G36*
G01*
X146500000Y-111275000D02*
X146500000Y-109950000D01*
G75*
G02*
X146575000Y-109875000I75000J0D01*
G01*
X146725000Y-109875000D01*
G75*
G02*
X146800000Y-109950000I0J-75000D01*
G01*
X146800000Y-111275000D01*
G75*
G02*
X146725000Y-111350000I-75000J0D01*
G01*
X146575000Y-111350000D01*
G75*
G02*
X146500000Y-111275000I0J75000D01*
G01*
G37*
G36*
G01*
X146000000Y-111275000D02*
X146000000Y-109950000D01*
G75*
G02*
X146075000Y-109875000I75000J0D01*
G01*
X146225000Y-109875000D01*
G75*
G02*
X146300000Y-109950000I0J-75000D01*
G01*
X146300000Y-111275000D01*
G75*
G02*
X146225000Y-111350000I-75000J0D01*
G01*
X146075000Y-111350000D01*
G75*
G02*
X146000000Y-111275000I0J75000D01*
G01*
G37*
G36*
G01*
X145500000Y-111275000D02*
X145500000Y-109950000D01*
G75*
G02*
X145575000Y-109875000I75000J0D01*
G01*
X145725000Y-109875000D01*
G75*
G02*
X145800000Y-109950000I0J-75000D01*
G01*
X145800000Y-111275000D01*
G75*
G02*
X145725000Y-111350000I-75000J0D01*
G01*
X145575000Y-111350000D01*
G75*
G02*
X145500000Y-111275000I0J75000D01*
G01*
G37*
G36*
G01*
X145000000Y-111275000D02*
X145000000Y-109950000D01*
G75*
G02*
X145075000Y-109875000I75000J0D01*
G01*
X145225000Y-109875000D01*
G75*
G02*
X145300000Y-109950000I0J-75000D01*
G01*
X145300000Y-111275000D01*
G75*
G02*
X145225000Y-111350000I-75000J0D01*
G01*
X145075000Y-111350000D01*
G75*
G02*
X145000000Y-111275000I0J75000D01*
G01*
G37*
G36*
G01*
X144500000Y-111275000D02*
X144500000Y-109950000D01*
G75*
G02*
X144575000Y-109875000I75000J0D01*
G01*
X144725000Y-109875000D01*
G75*
G02*
X144800000Y-109950000I0J-75000D01*
G01*
X144800000Y-111275000D01*
G75*
G02*
X144725000Y-111350000I-75000J0D01*
G01*
X144575000Y-111350000D01*
G75*
G02*
X144500000Y-111275000I0J75000D01*
G01*
G37*
G36*
G01*
X144000000Y-111275000D02*
X144000000Y-109950000D01*
G75*
G02*
X144075000Y-109875000I75000J0D01*
G01*
X144225000Y-109875000D01*
G75*
G02*
X144300000Y-109950000I0J-75000D01*
G01*
X144300000Y-111275000D01*
G75*
G02*
X144225000Y-111350000I-75000J0D01*
G01*
X144075000Y-111350000D01*
G75*
G02*
X144000000Y-111275000I0J75000D01*
G01*
G37*
G36*
G01*
X143500000Y-111275000D02*
X143500000Y-109950000D01*
G75*
G02*
X143575000Y-109875000I75000J0D01*
G01*
X143725000Y-109875000D01*
G75*
G02*
X143800000Y-109950000I0J-75000D01*
G01*
X143800000Y-111275000D01*
G75*
G02*
X143725000Y-111350000I-75000J0D01*
G01*
X143575000Y-111350000D01*
G75*
G02*
X143500000Y-111275000I0J75000D01*
G01*
G37*
G36*
G01*
X143000000Y-111275000D02*
X143000000Y-109950000D01*
G75*
G02*
X143075000Y-109875000I75000J0D01*
G01*
X143225000Y-109875000D01*
G75*
G02*
X143300000Y-109950000I0J-75000D01*
G01*
X143300000Y-111275000D01*
G75*
G02*
X143225000Y-111350000I-75000J0D01*
G01*
X143075000Y-111350000D01*
G75*
G02*
X143000000Y-111275000I0J75000D01*
G01*
G37*
G36*
G01*
X142500000Y-111275000D02*
X142500000Y-109950000D01*
G75*
G02*
X142575000Y-109875000I75000J0D01*
G01*
X142725000Y-109875000D01*
G75*
G02*
X142800000Y-109950000I0J-75000D01*
G01*
X142800000Y-111275000D01*
G75*
G02*
X142725000Y-111350000I-75000J0D01*
G01*
X142575000Y-111350000D01*
G75*
G02*
X142500000Y-111275000I0J75000D01*
G01*
G37*
G36*
G01*
X140000000Y-108775000D02*
X140000000Y-108625000D01*
G75*
G02*
X140075000Y-108550000I75000J0D01*
G01*
X141400000Y-108550000D01*
G75*
G02*
X141475000Y-108625000I0J-75000D01*
G01*
X141475000Y-108775000D01*
G75*
G02*
X141400000Y-108850000I-75000J0D01*
G01*
X140075000Y-108850000D01*
G75*
G02*
X140000000Y-108775000I0J75000D01*
G01*
G37*
G36*
G01*
X140000000Y-108275000D02*
X140000000Y-108125000D01*
G75*
G02*
X140075000Y-108050000I75000J0D01*
G01*
X141400000Y-108050000D01*
G75*
G02*
X141475000Y-108125000I0J-75000D01*
G01*
X141475000Y-108275000D01*
G75*
G02*
X141400000Y-108350000I-75000J0D01*
G01*
X140075000Y-108350000D01*
G75*
G02*
X140000000Y-108275000I0J75000D01*
G01*
G37*
G36*
G01*
X140000000Y-107775000D02*
X140000000Y-107625000D01*
G75*
G02*
X140075000Y-107550000I75000J0D01*
G01*
X141400000Y-107550000D01*
G75*
G02*
X141475000Y-107625000I0J-75000D01*
G01*
X141475000Y-107775000D01*
G75*
G02*
X141400000Y-107850000I-75000J0D01*
G01*
X140075000Y-107850000D01*
G75*
G02*
X140000000Y-107775000I0J75000D01*
G01*
G37*
G36*
G01*
X140000000Y-107275000D02*
X140000000Y-107125000D01*
G75*
G02*
X140075000Y-107050000I75000J0D01*
G01*
X141400000Y-107050000D01*
G75*
G02*
X141475000Y-107125000I0J-75000D01*
G01*
X141475000Y-107275000D01*
G75*
G02*
X141400000Y-107350000I-75000J0D01*
G01*
X140075000Y-107350000D01*
G75*
G02*
X140000000Y-107275000I0J75000D01*
G01*
G37*
G36*
G01*
X140000000Y-106775000D02*
X140000000Y-106625000D01*
G75*
G02*
X140075000Y-106550000I75000J0D01*
G01*
X141400000Y-106550000D01*
G75*
G02*
X141475000Y-106625000I0J-75000D01*
G01*
X141475000Y-106775000D01*
G75*
G02*
X141400000Y-106850000I-75000J0D01*
G01*
X140075000Y-106850000D01*
G75*
G02*
X140000000Y-106775000I0J75000D01*
G01*
G37*
G36*
G01*
X140000000Y-106275000D02*
X140000000Y-106125000D01*
G75*
G02*
X140075000Y-106050000I75000J0D01*
G01*
X141400000Y-106050000D01*
G75*
G02*
X141475000Y-106125000I0J-75000D01*
G01*
X141475000Y-106275000D01*
G75*
G02*
X141400000Y-106350000I-75000J0D01*
G01*
X140075000Y-106350000D01*
G75*
G02*
X140000000Y-106275000I0J75000D01*
G01*
G37*
G36*
G01*
X140000000Y-105775000D02*
X140000000Y-105625000D01*
G75*
G02*
X140075000Y-105550000I75000J0D01*
G01*
X141400000Y-105550000D01*
G75*
G02*
X141475000Y-105625000I0J-75000D01*
G01*
X141475000Y-105775000D01*
G75*
G02*
X141400000Y-105850000I-75000J0D01*
G01*
X140075000Y-105850000D01*
G75*
G02*
X140000000Y-105775000I0J75000D01*
G01*
G37*
G36*
G01*
X140000000Y-105275000D02*
X140000000Y-105125000D01*
G75*
G02*
X140075000Y-105050000I75000J0D01*
G01*
X141400000Y-105050000D01*
G75*
G02*
X141475000Y-105125000I0J-75000D01*
G01*
X141475000Y-105275000D01*
G75*
G02*
X141400000Y-105350000I-75000J0D01*
G01*
X140075000Y-105350000D01*
G75*
G02*
X140000000Y-105275000I0J75000D01*
G01*
G37*
G36*
G01*
X140000000Y-104775000D02*
X140000000Y-104625000D01*
G75*
G02*
X140075000Y-104550000I75000J0D01*
G01*
X141400000Y-104550000D01*
G75*
G02*
X141475000Y-104625000I0J-75000D01*
G01*
X141475000Y-104775000D01*
G75*
G02*
X141400000Y-104850000I-75000J0D01*
G01*
X140075000Y-104850000D01*
G75*
G02*
X140000000Y-104775000I0J75000D01*
G01*
G37*
G36*
G01*
X140000000Y-104275000D02*
X140000000Y-104125000D01*
G75*
G02*
X140075000Y-104050000I75000J0D01*
G01*
X141400000Y-104050000D01*
G75*
G02*
X141475000Y-104125000I0J-75000D01*
G01*
X141475000Y-104275000D01*
G75*
G02*
X141400000Y-104350000I-75000J0D01*
G01*
X140075000Y-104350000D01*
G75*
G02*
X140000000Y-104275000I0J75000D01*
G01*
G37*
G36*
G01*
X140000000Y-103775000D02*
X140000000Y-103625000D01*
G75*
G02*
X140075000Y-103550000I75000J0D01*
G01*
X141400000Y-103550000D01*
G75*
G02*
X141475000Y-103625000I0J-75000D01*
G01*
X141475000Y-103775000D01*
G75*
G02*
X141400000Y-103850000I-75000J0D01*
G01*
X140075000Y-103850000D01*
G75*
G02*
X140000000Y-103775000I0J75000D01*
G01*
G37*
G36*
G01*
X140000000Y-103275000D02*
X140000000Y-103125000D01*
G75*
G02*
X140075000Y-103050000I75000J0D01*
G01*
X141400000Y-103050000D01*
G75*
G02*
X141475000Y-103125000I0J-75000D01*
G01*
X141475000Y-103275000D01*
G75*
G02*
X141400000Y-103350000I-75000J0D01*
G01*
X140075000Y-103350000D01*
G75*
G02*
X140000000Y-103275000I0J75000D01*
G01*
G37*
G36*
G01*
X140000000Y-102775000D02*
X140000000Y-102625000D01*
G75*
G02*
X140075000Y-102550000I75000J0D01*
G01*
X141400000Y-102550000D01*
G75*
G02*
X141475000Y-102625000I0J-75000D01*
G01*
X141475000Y-102775000D01*
G75*
G02*
X141400000Y-102850000I-75000J0D01*
G01*
X140075000Y-102850000D01*
G75*
G02*
X140000000Y-102775000I0J75000D01*
G01*
G37*
G36*
G01*
X140000000Y-102275000D02*
X140000000Y-102125000D01*
G75*
G02*
X140075000Y-102050000I75000J0D01*
G01*
X141400000Y-102050000D01*
G75*
G02*
X141475000Y-102125000I0J-75000D01*
G01*
X141475000Y-102275000D01*
G75*
G02*
X141400000Y-102350000I-75000J0D01*
G01*
X140075000Y-102350000D01*
G75*
G02*
X140000000Y-102275000I0J75000D01*
G01*
G37*
G36*
G01*
X140000000Y-101775000D02*
X140000000Y-101625000D01*
G75*
G02*
X140075000Y-101550000I75000J0D01*
G01*
X141400000Y-101550000D01*
G75*
G02*
X141475000Y-101625000I0J-75000D01*
G01*
X141475000Y-101775000D01*
G75*
G02*
X141400000Y-101850000I-75000J0D01*
G01*
X140075000Y-101850000D01*
G75*
G02*
X140000000Y-101775000I0J75000D01*
G01*
G37*
G36*
G01*
X140000000Y-101275000D02*
X140000000Y-101125000D01*
G75*
G02*
X140075000Y-101050000I75000J0D01*
G01*
X141400000Y-101050000D01*
G75*
G02*
X141475000Y-101125000I0J-75000D01*
G01*
X141475000Y-101275000D01*
G75*
G02*
X141400000Y-101350000I-75000J0D01*
G01*
X140075000Y-101350000D01*
G75*
G02*
X140000000Y-101275000I0J75000D01*
G01*
G37*
G04 #@! TD*
G04 #@! TO.C,U7*
G36*
G01*
X153425000Y-96462500D02*
X153425000Y-96087500D01*
G75*
G02*
X153512500Y-96000000I87500J0D01*
G01*
X153687500Y-96000000D01*
G75*
G02*
X153775000Y-96087500I0J-87500D01*
G01*
X153775000Y-96462500D01*
G75*
G02*
X153687500Y-96550000I-87500J0D01*
G01*
X153512500Y-96550000D01*
G75*
G02*
X153425000Y-96462500I0J87500D01*
G01*
G37*
G36*
G01*
X153925000Y-96462500D02*
X153925000Y-96087500D01*
G75*
G02*
X154012500Y-96000000I87500J0D01*
G01*
X154187500Y-96000000D01*
G75*
G02*
X154275000Y-96087500I0J-87500D01*
G01*
X154275000Y-96462500D01*
G75*
G02*
X154187500Y-96550000I-87500J0D01*
G01*
X154012500Y-96550000D01*
G75*
G02*
X153925000Y-96462500I0J87500D01*
G01*
G37*
G36*
G01*
X154425000Y-96462500D02*
X154425000Y-96087500D01*
G75*
G02*
X154512500Y-96000000I87500J0D01*
G01*
X154687500Y-96000000D01*
G75*
G02*
X154775000Y-96087500I0J-87500D01*
G01*
X154775000Y-96462500D01*
G75*
G02*
X154687500Y-96550000I-87500J0D01*
G01*
X154512500Y-96550000D01*
G75*
G02*
X154425000Y-96462500I0J87500D01*
G01*
G37*
G36*
G01*
X155050000Y-96587500D02*
X155050000Y-96412500D01*
G75*
G02*
X155137500Y-96325000I87500J0D01*
G01*
X155512500Y-96325000D01*
G75*
G02*
X155600000Y-96412500I0J-87500D01*
G01*
X155600000Y-96587500D01*
G75*
G02*
X155512500Y-96675000I-87500J0D01*
G01*
X155137500Y-96675000D01*
G75*
G02*
X155050000Y-96587500I0J87500D01*
G01*
G37*
G36*
G01*
X155050000Y-97087500D02*
X155050000Y-96912500D01*
G75*
G02*
X155137500Y-96825000I87500J0D01*
G01*
X155512500Y-96825000D01*
G75*
G02*
X155600000Y-96912500I0J-87500D01*
G01*
X155600000Y-97087500D01*
G75*
G02*
X155512500Y-97175000I-87500J0D01*
G01*
X155137500Y-97175000D01*
G75*
G02*
X155050000Y-97087500I0J87500D01*
G01*
G37*
G36*
G01*
X155050000Y-97587500D02*
X155050000Y-97412500D01*
G75*
G02*
X155137500Y-97325000I87500J0D01*
G01*
X155512500Y-97325000D01*
G75*
G02*
X155600000Y-97412500I0J-87500D01*
G01*
X155600000Y-97587500D01*
G75*
G02*
X155512500Y-97675000I-87500J0D01*
G01*
X155137500Y-97675000D01*
G75*
G02*
X155050000Y-97587500I0J87500D01*
G01*
G37*
G36*
G01*
X155050000Y-98087500D02*
X155050000Y-97912500D01*
G75*
G02*
X155137500Y-97825000I87500J0D01*
G01*
X155512500Y-97825000D01*
G75*
G02*
X155600000Y-97912500I0J-87500D01*
G01*
X155600000Y-98087500D01*
G75*
G02*
X155512500Y-98175000I-87500J0D01*
G01*
X155137500Y-98175000D01*
G75*
G02*
X155050000Y-98087500I0J87500D01*
G01*
G37*
G36*
G01*
X155050000Y-98587500D02*
X155050000Y-98412500D01*
G75*
G02*
X155137500Y-98325000I87500J0D01*
G01*
X155512500Y-98325000D01*
G75*
G02*
X155600000Y-98412500I0J-87500D01*
G01*
X155600000Y-98587500D01*
G75*
G02*
X155512500Y-98675000I-87500J0D01*
G01*
X155137500Y-98675000D01*
G75*
G02*
X155050000Y-98587500I0J87500D01*
G01*
G37*
G36*
G01*
X154425000Y-98912500D02*
X154425000Y-98537500D01*
G75*
G02*
X154512500Y-98450000I87500J0D01*
G01*
X154687500Y-98450000D01*
G75*
G02*
X154775000Y-98537500I0J-87500D01*
G01*
X154775000Y-98912500D01*
G75*
G02*
X154687500Y-99000000I-87500J0D01*
G01*
X154512500Y-99000000D01*
G75*
G02*
X154425000Y-98912500I0J87500D01*
G01*
G37*
G36*
G01*
X153925000Y-98912500D02*
X153925000Y-98537500D01*
G75*
G02*
X154012500Y-98450000I87500J0D01*
G01*
X154187500Y-98450000D01*
G75*
G02*
X154275000Y-98537500I0J-87500D01*
G01*
X154275000Y-98912500D01*
G75*
G02*
X154187500Y-99000000I-87500J0D01*
G01*
X154012500Y-99000000D01*
G75*
G02*
X153925000Y-98912500I0J87500D01*
G01*
G37*
G36*
G01*
X153425000Y-98912500D02*
X153425000Y-98537500D01*
G75*
G02*
X153512500Y-98450000I87500J0D01*
G01*
X153687500Y-98450000D01*
G75*
G02*
X153775000Y-98537500I0J-87500D01*
G01*
X153775000Y-98912500D01*
G75*
G02*
X153687500Y-99000000I-87500J0D01*
G01*
X153512500Y-99000000D01*
G75*
G02*
X153425000Y-98912500I0J87500D01*
G01*
G37*
G36*
G01*
X152600000Y-98587500D02*
X152600000Y-98412500D01*
G75*
G02*
X152687500Y-98325000I87500J0D01*
G01*
X153062500Y-98325000D01*
G75*
G02*
X153150000Y-98412500I0J-87500D01*
G01*
X153150000Y-98587500D01*
G75*
G02*
X153062500Y-98675000I-87500J0D01*
G01*
X152687500Y-98675000D01*
G75*
G02*
X152600000Y-98587500I0J87500D01*
G01*
G37*
G36*
G01*
X152600000Y-98087500D02*
X152600000Y-97912500D01*
G75*
G02*
X152687500Y-97825000I87500J0D01*
G01*
X153062500Y-97825000D01*
G75*
G02*
X153150000Y-97912500I0J-87500D01*
G01*
X153150000Y-98087500D01*
G75*
G02*
X153062500Y-98175000I-87500J0D01*
G01*
X152687500Y-98175000D01*
G75*
G02*
X152600000Y-98087500I0J87500D01*
G01*
G37*
G36*
G01*
X152600000Y-97587500D02*
X152600000Y-97412500D01*
G75*
G02*
X152687500Y-97325000I87500J0D01*
G01*
X153062500Y-97325000D01*
G75*
G02*
X153150000Y-97412500I0J-87500D01*
G01*
X153150000Y-97587500D01*
G75*
G02*
X153062500Y-97675000I-87500J0D01*
G01*
X152687500Y-97675000D01*
G75*
G02*
X152600000Y-97587500I0J87500D01*
G01*
G37*
G36*
G01*
X152600000Y-97087500D02*
X152600000Y-96912500D01*
G75*
G02*
X152687500Y-96825000I87500J0D01*
G01*
X153062500Y-96825000D01*
G75*
G02*
X153150000Y-96912500I0J-87500D01*
G01*
X153150000Y-97087500D01*
G75*
G02*
X153062500Y-97175000I-87500J0D01*
G01*
X152687500Y-97175000D01*
G75*
G02*
X152600000Y-97087500I0J87500D01*
G01*
G37*
G36*
G01*
X152600000Y-96587500D02*
X152600000Y-96412500D01*
G75*
G02*
X152687500Y-96325000I87500J0D01*
G01*
X153062500Y-96325000D01*
G75*
G02*
X153150000Y-96412500I0J-87500D01*
G01*
X153150000Y-96587500D01*
G75*
G02*
X153062500Y-96675000I-87500J0D01*
G01*
X152687500Y-96675000D01*
G75*
G02*
X152600000Y-96587500I0J87500D01*
G01*
G37*
G04 #@! TD*
D33*
G04 #@! TO.C,U8*
X138250000Y-97200000D03*
G36*
G01*
X139300000Y-96300000D02*
X139300000Y-96100000D01*
G75*
G02*
X139400000Y-96000000I100000J0D01*
G01*
X140000000Y-96000000D01*
G75*
G02*
X140100000Y-96100000I0J-100000D01*
G01*
X140100000Y-96300000D01*
G75*
G02*
X140000000Y-96400000I-100000J0D01*
G01*
X139400000Y-96400000D01*
G75*
G02*
X139300000Y-96300000I0J100000D01*
G01*
G37*
G36*
G01*
X139300000Y-97300000D02*
X139300000Y-97100000D01*
G75*
G02*
X139400000Y-97000000I100000J0D01*
G01*
X140000000Y-97000000D01*
G75*
G02*
X140100000Y-97100000I0J-100000D01*
G01*
X140100000Y-97300000D01*
G75*
G02*
X140000000Y-97400000I-100000J0D01*
G01*
X139400000Y-97400000D01*
G75*
G02*
X139300000Y-97300000I0J100000D01*
G01*
G37*
G36*
G01*
X139300000Y-98300000D02*
X139300000Y-98100000D01*
G75*
G02*
X139400000Y-98000000I100000J0D01*
G01*
X140000000Y-98000000D01*
G75*
G02*
X140100000Y-98100000I0J-100000D01*
G01*
X140100000Y-98300000D01*
G75*
G02*
X140000000Y-98400000I-100000J0D01*
G01*
X139400000Y-98400000D01*
G75*
G02*
X139300000Y-98300000I0J100000D01*
G01*
G37*
G36*
G01*
X136400000Y-98300000D02*
X136400000Y-98100000D01*
G75*
G02*
X136500000Y-98000000I100000J0D01*
G01*
X137100000Y-98000000D01*
G75*
G02*
X137200000Y-98100000I0J-100000D01*
G01*
X137200000Y-98300000D01*
G75*
G02*
X137100000Y-98400000I-100000J0D01*
G01*
X136500000Y-98400000D01*
G75*
G02*
X136400000Y-98300000I0J100000D01*
G01*
G37*
G36*
G01*
X136400000Y-97300000D02*
X136400000Y-97100000D01*
G75*
G02*
X136500000Y-97000000I100000J0D01*
G01*
X137100000Y-97000000D01*
G75*
G02*
X137200000Y-97100000I0J-100000D01*
G01*
X137200000Y-97300000D01*
G75*
G02*
X137100000Y-97400000I-100000J0D01*
G01*
X136500000Y-97400000D01*
G75*
G02*
X136400000Y-97300000I0J100000D01*
G01*
G37*
G36*
G01*
X136400000Y-96300000D02*
X136400000Y-96100000D01*
G75*
G02*
X136500000Y-96000000I100000J0D01*
G01*
X137100000Y-96000000D01*
G75*
G02*
X137200000Y-96100000I0J-100000D01*
G01*
X137200000Y-96300000D01*
G75*
G02*
X137100000Y-96400000I-100000J0D01*
G01*
X136500000Y-96400000D01*
G75*
G02*
X136400000Y-96300000I0J100000D01*
G01*
G37*
G04 #@! TD*
G04 #@! TO.C,C53*
G36*
G01*
X156550000Y-96325000D02*
X157050000Y-96325000D01*
G75*
G02*
X157275000Y-96550000I0J-225000D01*
G01*
X157275000Y-97000000D01*
G75*
G02*
X157050000Y-97225000I-225000J0D01*
G01*
X156550000Y-97225000D01*
G75*
G02*
X156325000Y-97000000I0J225000D01*
G01*
X156325000Y-96550000D01*
G75*
G02*
X156550000Y-96325000I225000J0D01*
G01*
G37*
G36*
G01*
X156550000Y-94775000D02*
X157050000Y-94775000D01*
G75*
G02*
X157275000Y-95000000I0J-225000D01*
G01*
X157275000Y-95450000D01*
G75*
G02*
X157050000Y-95675000I-225000J0D01*
G01*
X156550000Y-95675000D01*
G75*
G02*
X156325000Y-95450000I0J225000D01*
G01*
X156325000Y-95000000D01*
G75*
G02*
X156550000Y-94775000I225000J0D01*
G01*
G37*
G04 #@! TD*
D34*
G04 #@! TO.C,C57*
X159600000Y-106900000D03*
X159600000Y-109100000D03*
G04 #@! TD*
G04 #@! TO.C,R41*
G36*
G01*
X155140000Y-107885000D02*
X155140000Y-107515000D01*
G75*
G02*
X155275000Y-107380000I135000J0D01*
G01*
X155545000Y-107380000D01*
G75*
G02*
X155680000Y-107515000I0J-135000D01*
G01*
X155680000Y-107885000D01*
G75*
G02*
X155545000Y-108020000I-135000J0D01*
G01*
X155275000Y-108020000D01*
G75*
G02*
X155140000Y-107885000I0J135000D01*
G01*
G37*
G36*
G01*
X154120000Y-107885000D02*
X154120000Y-107515000D01*
G75*
G02*
X154255000Y-107380000I135000J0D01*
G01*
X154525000Y-107380000D01*
G75*
G02*
X154660000Y-107515000I0J-135000D01*
G01*
X154660000Y-107885000D01*
G75*
G02*
X154525000Y-108020000I-135000J0D01*
G01*
X154255000Y-108020000D01*
G75*
G02*
X154120000Y-107885000I0J135000D01*
G01*
G37*
G04 #@! TD*
G04 #@! TO.C,R52*
G36*
G01*
X160480000Y-105115000D02*
X160480000Y-105485000D01*
G75*
G02*
X160345000Y-105620000I-135000J0D01*
G01*
X160075000Y-105620000D01*
G75*
G02*
X159940000Y-105485000I0J135000D01*
G01*
X159940000Y-105115000D01*
G75*
G02*
X160075000Y-104980000I135000J0D01*
G01*
X160345000Y-104980000D01*
G75*
G02*
X160480000Y-105115000I0J-135000D01*
G01*
G37*
G36*
G01*
X159460000Y-105115000D02*
X159460000Y-105485000D01*
G75*
G02*
X159325000Y-105620000I-135000J0D01*
G01*
X159055000Y-105620000D01*
G75*
G02*
X158920000Y-105485000I0J135000D01*
G01*
X158920000Y-105115000D01*
G75*
G02*
X159055000Y-104980000I135000J0D01*
G01*
X159325000Y-104980000D01*
G75*
G02*
X159460000Y-105115000I0J-135000D01*
G01*
G37*
G04 #@! TD*
M02*
