G04 #@! TF.GenerationSoftware,KiCad,Pcbnew,(5.1.7)-1*
G04 #@! TF.CreationDate,2020-12-10T13:09:13+02:00*
G04 #@! TF.ProjectId,Smart104.ua_V3,536d6172-7431-4303-942e-75615f56332e,1.0*
G04 #@! TF.SameCoordinates,Original*
G04 #@! TF.FileFunction,Legend,Bot*
G04 #@! TF.FilePolarity,Positive*
%FSLAX46Y46*%
G04 Gerber Fmt 4.6, Leading zero omitted, Abs format (unit mm)*
G04 Created by KiCad (PCBNEW (5.1.7)-1) date 2020-12-10 13:09:13*
%MOMM*%
%LPD*%
G01*
G04 APERTURE LIST*
%ADD10C,0.120000*%
%ADD11C,0.200000*%
%ADD12C,0.150000*%
G04 APERTURE END LIST*
D10*
X112200000Y-126400000D02*
X111800000Y-126400000D01*
X112200000Y-129200000D02*
X111800000Y-129200000D01*
X112200000Y-124200000D02*
X112200000Y-129200000D01*
X110600000Y-124200000D02*
X112200000Y-124200000D01*
X110600000Y-123200000D02*
X110600000Y-124200000D01*
D11*
X113438095Y-130161904D02*
X112638095Y-129895238D01*
X113438095Y-129628571D01*
X112942857Y-129361904D02*
X112942857Y-128752380D01*
X112638095Y-129057142D02*
X113247619Y-129057142D01*
X114766666Y-122566666D02*
X114290476Y-122566666D01*
X114861904Y-122852380D02*
X114528571Y-121852380D01*
X114195238Y-122852380D01*
X113861904Y-121852380D02*
X113861904Y-122661904D01*
X113814285Y-122757142D01*
X113766666Y-122804761D01*
X113671428Y-122852380D01*
X113480952Y-122852380D01*
X113385714Y-122804761D01*
X113338095Y-122757142D01*
X113290476Y-122661904D01*
X113290476Y-121852380D01*
X112909523Y-121852380D02*
X112242857Y-122852380D01*
X112242857Y-121852380D02*
X112909523Y-122852380D01*
X110528571Y-122757142D02*
X110576190Y-122804761D01*
X110719047Y-122852380D01*
X110814285Y-122852380D01*
X110957142Y-122804761D01*
X111052380Y-122709523D01*
X111100000Y-122614285D01*
X111147619Y-122423809D01*
X111147619Y-122280952D01*
X111100000Y-122090476D01*
X111052380Y-121995238D01*
X110957142Y-121900000D01*
X110814285Y-121852380D01*
X110719047Y-121852380D01*
X110576190Y-121900000D01*
X110528571Y-121947619D01*
X109909523Y-121852380D02*
X109719047Y-121852380D01*
X109623809Y-121900000D01*
X109528571Y-121995238D01*
X109480952Y-122185714D01*
X109480952Y-122519047D01*
X109528571Y-122709523D01*
X109623809Y-122804761D01*
X109719047Y-122852380D01*
X109909523Y-122852380D01*
X110004761Y-122804761D01*
X110100000Y-122709523D01*
X110147619Y-122519047D01*
X110147619Y-122185714D01*
X110100000Y-121995238D01*
X110004761Y-121900000D01*
X109909523Y-121852380D01*
X109052380Y-122852380D02*
X109052380Y-121852380D01*
X108480952Y-122852380D01*
X108480952Y-121852380D01*
X112676190Y-128085714D02*
X112638095Y-127971428D01*
X112638095Y-127780952D01*
X112676190Y-127704761D01*
X112714285Y-127666666D01*
X112790476Y-127628571D01*
X112866666Y-127628571D01*
X112942857Y-127666666D01*
X112980952Y-127704761D01*
X113019047Y-127780952D01*
X113057142Y-127933333D01*
X113095238Y-128009523D01*
X113133333Y-128047619D01*
X113209523Y-128085714D01*
X113285714Y-128085714D01*
X113361904Y-128047619D01*
X113400000Y-128009523D01*
X113438095Y-127933333D01*
X113438095Y-127742857D01*
X113400000Y-127628571D01*
X113057142Y-127285714D02*
X113057142Y-127019047D01*
X112638095Y-126904761D02*
X112638095Y-127285714D01*
X113438095Y-127285714D01*
X113438095Y-126904761D01*
X112638095Y-126104761D02*
X113019047Y-126371428D01*
X112638095Y-126561904D02*
X113438095Y-126561904D01*
X113438095Y-126257142D01*
X113400000Y-126180952D01*
X113361904Y-126142857D01*
X113285714Y-126104761D01*
X113171428Y-126104761D01*
X113095238Y-126142857D01*
X113057142Y-126180952D01*
X113019047Y-126257142D01*
X113019047Y-126561904D01*
X113438095Y-125876190D02*
X112638095Y-125609523D01*
X113438095Y-125342857D01*
X112638095Y-125076190D02*
X113438095Y-125076190D01*
X112714285Y-124238095D02*
X112676190Y-124276190D01*
X112638095Y-124390476D01*
X112638095Y-124466666D01*
X112676190Y-124580952D01*
X112752380Y-124657142D01*
X112828571Y-124695238D01*
X112980952Y-124733333D01*
X113095238Y-124733333D01*
X113247619Y-124695238D01*
X113323809Y-124657142D01*
X113400000Y-124580952D01*
X113438095Y-124466666D01*
X113438095Y-124390476D01*
X113400000Y-124276190D01*
X113361904Y-124238095D01*
X113057142Y-123895238D02*
X113057142Y-123628571D01*
X112638095Y-123514285D02*
X112638095Y-123895238D01*
X113438095Y-123895238D01*
X113438095Y-123514285D01*
X180561904Y-97761904D02*
X180295238Y-98561904D01*
X180028571Y-97761904D01*
X179761904Y-98257142D02*
X179152380Y-98257142D01*
X179457142Y-98561904D02*
X179457142Y-97952380D01*
X176728571Y-96061904D02*
X176776190Y-96204761D01*
X176823809Y-96252380D01*
X176919047Y-96300000D01*
X177061904Y-96300000D01*
X177157142Y-96252380D01*
X177204761Y-96204761D01*
X177252380Y-96109523D01*
X177252380Y-95728571D01*
X176252380Y-95728571D01*
X176252380Y-96061904D01*
X176300000Y-96157142D01*
X176347619Y-96204761D01*
X176442857Y-96252380D01*
X176538095Y-96252380D01*
X176633333Y-96204761D01*
X176680952Y-96157142D01*
X176728571Y-96061904D01*
X176728571Y-95728571D01*
X176966666Y-96680952D02*
X176966666Y-97157142D01*
X177252380Y-96585714D02*
X176252380Y-96919047D01*
X177252380Y-97252380D01*
X176252380Y-97442857D02*
X176252380Y-98014285D01*
X177252380Y-97728571D02*
X176252380Y-97728571D01*
X180009523Y-95200000D02*
X180085714Y-95161904D01*
X180200000Y-95161904D01*
X180314285Y-95200000D01*
X180390476Y-95276190D01*
X180428571Y-95352380D01*
X180466666Y-95504761D01*
X180466666Y-95619047D01*
X180428571Y-95771428D01*
X180390476Y-95847619D01*
X180314285Y-95923809D01*
X180200000Y-95961904D01*
X180123809Y-95961904D01*
X180009523Y-95923809D01*
X179971428Y-95885714D01*
X179971428Y-95619047D01*
X180123809Y-95619047D01*
X179628571Y-95961904D02*
X179628571Y-95161904D01*
X179171428Y-95961904D01*
X179171428Y-95161904D01*
X178790476Y-95961904D02*
X178790476Y-95161904D01*
X178600000Y-95161904D01*
X178485714Y-95200000D01*
X178409523Y-95276190D01*
X178371428Y-95352380D01*
X178333333Y-95504761D01*
X178333333Y-95619047D01*
X178371428Y-95771428D01*
X178409523Y-95847619D01*
X178485714Y-95923809D01*
X178600000Y-95961904D01*
X178790476Y-95961904D01*
D10*
X175800000Y-100200000D02*
X175800000Y-94000000D01*
X175800000Y-94000000D02*
X181200000Y-94000000D01*
X181200000Y-100200000D02*
X181200000Y-94000000D01*
X175800000Y-100200000D02*
X181200000Y-100200000D01*
X177600000Y-94000000D02*
X177600000Y-100200000D01*
X103200000Y-131200000D02*
X103200000Y-139400000D01*
X106800000Y-139400000D02*
X106800000Y-131200000D01*
D11*
X106000000Y-138123809D02*
X105885714Y-138161904D01*
X105695238Y-138161904D01*
X105619047Y-138123809D01*
X105580952Y-138085714D01*
X105542857Y-138009523D01*
X105542857Y-137933333D01*
X105580952Y-137857142D01*
X105619047Y-137819047D01*
X105695238Y-137780952D01*
X105847619Y-137742857D01*
X105923809Y-137704761D01*
X105961904Y-137666666D01*
X106000000Y-137590476D01*
X106000000Y-137514285D01*
X105961904Y-137438095D01*
X105923809Y-137400000D01*
X105847619Y-137361904D01*
X105657142Y-137361904D01*
X105542857Y-137400000D01*
X105200000Y-138161904D02*
X105200000Y-137361904D01*
X104400000Y-137400000D02*
X104476190Y-137361904D01*
X104590476Y-137361904D01*
X104704761Y-137400000D01*
X104780952Y-137476190D01*
X104819047Y-137552380D01*
X104857142Y-137704761D01*
X104857142Y-137819047D01*
X104819047Y-137971428D01*
X104780952Y-138047619D01*
X104704761Y-138123809D01*
X104590476Y-138161904D01*
X104514285Y-138161904D01*
X104400000Y-138123809D01*
X104361904Y-138085714D01*
X104361904Y-137819047D01*
X104514285Y-137819047D01*
X104057142Y-137438095D02*
X104019047Y-137400000D01*
X103942857Y-137361904D01*
X103752380Y-137361904D01*
X103676190Y-137400000D01*
X103638095Y-137438095D01*
X103600000Y-137514285D01*
X103600000Y-137590476D01*
X103638095Y-137704761D01*
X104095238Y-138161904D01*
X103600000Y-138161904D01*
D12*
X135838095Y-115533333D02*
X136219047Y-115800000D01*
X135838095Y-115990476D02*
X136638095Y-115990476D01*
X136638095Y-115685714D01*
X136600000Y-115609523D01*
X136561904Y-115571428D01*
X136485714Y-115533333D01*
X136371428Y-115533333D01*
X136295238Y-115571428D01*
X136257142Y-115609523D01*
X136219047Y-115685714D01*
X136219047Y-115990476D01*
X136638095Y-115266666D02*
X135838095Y-114733333D01*
X136638095Y-114733333D02*
X135838095Y-115266666D01*
X133800000Y-115609523D02*
X133838095Y-115685714D01*
X133838095Y-115800000D01*
X133800000Y-115914285D01*
X133723809Y-115990476D01*
X133647619Y-116028571D01*
X133495238Y-116066666D01*
X133380952Y-116066666D01*
X133228571Y-116028571D01*
X133152380Y-115990476D01*
X133076190Y-115914285D01*
X133038095Y-115800000D01*
X133038095Y-115723809D01*
X133076190Y-115609523D01*
X133114285Y-115571428D01*
X133380952Y-115571428D01*
X133380952Y-115723809D01*
X133038095Y-115228571D02*
X133838095Y-115228571D01*
X133038095Y-114771428D01*
X133838095Y-114771428D01*
X133038095Y-114390476D02*
X133838095Y-114390476D01*
X133838095Y-114200000D01*
X133800000Y-114085714D01*
X133723809Y-114009523D01*
X133647619Y-113971428D01*
X133495238Y-113933333D01*
X133380952Y-113933333D01*
X133228571Y-113971428D01*
X133152380Y-114009523D01*
X133076190Y-114085714D01*
X133038095Y-114200000D01*
X133038095Y-114390476D01*
D11*
X131238095Y-115809523D02*
X131238095Y-115352380D01*
X130438095Y-115580952D02*
X131238095Y-115580952D01*
X131238095Y-115161904D02*
X130438095Y-114628571D01*
X131238095Y-114628571D02*
X130438095Y-115161904D01*
X128838095Y-115961904D02*
X128038095Y-115695238D01*
X128838095Y-115428571D01*
X128342857Y-115161904D02*
X128342857Y-114552380D01*
X128038095Y-114857142D02*
X128647619Y-114857142D01*
X134961904Y-113252380D02*
X135438095Y-113252380D01*
X135438095Y-112252380D01*
X134628571Y-113252380D02*
X134628571Y-112252380D01*
X134152380Y-113252380D02*
X134152380Y-112252380D01*
X133580952Y-113252380D01*
X133580952Y-112252380D01*
X133104761Y-113252380D02*
X133104761Y-112252380D01*
X132533333Y-113252380D02*
X132961904Y-112680952D01*
X132533333Y-112252380D02*
X133104761Y-112823809D01*
X131390476Y-112966666D02*
X130914285Y-112966666D01*
X131485714Y-113252380D02*
X131152380Y-112252380D01*
X130819047Y-113252380D01*
X130485714Y-112252380D02*
X130485714Y-113061904D01*
X130438095Y-113157142D01*
X130390476Y-113204761D01*
X130295238Y-113252380D01*
X130104761Y-113252380D01*
X130009523Y-113204761D01*
X129961904Y-113157142D01*
X129914285Y-113061904D01*
X129914285Y-112252380D01*
X129533333Y-112252380D02*
X128866666Y-113252380D01*
X128866666Y-112252380D02*
X129533333Y-113252380D01*
D10*
X126600000Y-111800000D02*
X126600000Y-116400000D01*
D11*
X102852380Y-134104761D02*
X102376190Y-133771428D01*
X102852380Y-133533333D02*
X101852380Y-133533333D01*
X101852380Y-133914285D01*
X101900000Y-134009523D01*
X101947619Y-134057142D01*
X102042857Y-134104761D01*
X102185714Y-134104761D01*
X102280952Y-134057142D01*
X102328571Y-134009523D01*
X102376190Y-133914285D01*
X102376190Y-133533333D01*
X102328571Y-134533333D02*
X102328571Y-134866666D01*
X102852380Y-135009523D02*
X102852380Y-134533333D01*
X101852380Y-134533333D01*
X101852380Y-135009523D01*
X102328571Y-135438095D02*
X102328571Y-135771428D01*
X102852380Y-135914285D02*
X102852380Y-135438095D01*
X101852380Y-135438095D01*
X101852380Y-135914285D01*
X102852380Y-136342857D02*
X101852380Y-136342857D01*
X101852380Y-136580952D01*
X101900000Y-136723809D01*
X101995238Y-136819047D01*
X102090476Y-136866666D01*
X102280952Y-136914285D01*
X102423809Y-136914285D01*
X102614285Y-136866666D01*
X102709523Y-136819047D01*
X102804761Y-136723809D01*
X102852380Y-136580952D01*
X102852380Y-136342857D01*
X106161904Y-134961904D02*
X105895238Y-135761904D01*
X105628571Y-134961904D01*
X105361904Y-135457142D02*
X104752380Y-135457142D01*
X105057142Y-135761904D02*
X105057142Y-135152380D01*
X106200000Y-133123809D02*
X106085714Y-133161904D01*
X105895238Y-133161904D01*
X105819047Y-133123809D01*
X105780952Y-133085714D01*
X105742857Y-133009523D01*
X105742857Y-132933333D01*
X105780952Y-132857142D01*
X105819047Y-132819047D01*
X105895238Y-132780952D01*
X106047619Y-132742857D01*
X106123809Y-132704761D01*
X106161904Y-132666666D01*
X106200000Y-132590476D01*
X106200000Y-132514285D01*
X106161904Y-132438095D01*
X106123809Y-132400000D01*
X106047619Y-132361904D01*
X105857142Y-132361904D01*
X105742857Y-132400000D01*
X105400000Y-133161904D02*
X105400000Y-132361904D01*
X104600000Y-132400000D02*
X104676190Y-132361904D01*
X104790476Y-132361904D01*
X104904761Y-132400000D01*
X104980952Y-132476190D01*
X105019047Y-132552380D01*
X105057142Y-132704761D01*
X105057142Y-132819047D01*
X105019047Y-132971428D01*
X104980952Y-133047619D01*
X104904761Y-133123809D01*
X104790476Y-133161904D01*
X104714285Y-133161904D01*
X104600000Y-133123809D01*
X104561904Y-133085714D01*
X104561904Y-132819047D01*
X104714285Y-132819047D01*
X103800000Y-133161904D02*
X104257142Y-133161904D01*
X104028571Y-133161904D02*
X104028571Y-132361904D01*
X104104761Y-132476190D01*
X104180952Y-132552380D01*
X104257142Y-132590476D01*
D10*
X101400000Y-139400000D02*
X101400000Y-131200000D01*
X101400000Y-131200000D02*
X106800000Y-131200000D01*
X101400000Y-139400000D02*
X106800000Y-139400000D01*
D11*
X124095238Y-113252380D02*
X124571428Y-113252380D01*
X124571428Y-112252380D01*
X123761904Y-113252380D02*
X123761904Y-112252380D01*
X123285714Y-113252380D02*
X123285714Y-112252380D01*
X122714285Y-113252380D01*
X122714285Y-112252380D01*
X122238095Y-113252380D02*
X122238095Y-112252380D01*
X121666666Y-113252380D02*
X122095238Y-112680952D01*
X121666666Y-112252380D02*
X122238095Y-112823809D01*
X120476190Y-113252380D02*
X120476190Y-112252380D01*
X120142857Y-112966666D01*
X119809523Y-112252380D01*
X119809523Y-113252380D01*
X119380952Y-112966666D02*
X118904761Y-112966666D01*
X119476190Y-113252380D02*
X119142857Y-112252380D01*
X118809523Y-113252380D01*
X118476190Y-113252380D02*
X118476190Y-112252380D01*
X118000000Y-113252380D02*
X118000000Y-112252380D01*
X117428571Y-113252380D01*
X117428571Y-112252380D01*
X117438095Y-115961904D02*
X116638095Y-115695238D01*
X117438095Y-115428571D01*
X116942857Y-115161904D02*
X116942857Y-114552380D01*
X116638095Y-114857142D02*
X117247619Y-114857142D01*
X119838095Y-115809523D02*
X119838095Y-115352380D01*
X119038095Y-115580952D02*
X119838095Y-115580952D01*
X119838095Y-115161904D02*
X119038095Y-114628571D01*
X119838095Y-114628571D02*
X119038095Y-115161904D01*
D12*
X122400000Y-115609523D02*
X122438095Y-115685714D01*
X122438095Y-115800000D01*
X122400000Y-115914285D01*
X122323809Y-115990476D01*
X122247619Y-116028571D01*
X122095238Y-116066666D01*
X121980952Y-116066666D01*
X121828571Y-116028571D01*
X121752380Y-115990476D01*
X121676190Y-115914285D01*
X121638095Y-115800000D01*
X121638095Y-115723809D01*
X121676190Y-115609523D01*
X121714285Y-115571428D01*
X121980952Y-115571428D01*
X121980952Y-115723809D01*
X121638095Y-115228571D02*
X122438095Y-115228571D01*
X121638095Y-114771428D01*
X122438095Y-114771428D01*
X121638095Y-114390476D02*
X122438095Y-114390476D01*
X122438095Y-114200000D01*
X122400000Y-114085714D01*
X122323809Y-114009523D01*
X122247619Y-113971428D01*
X122095238Y-113933333D01*
X121980952Y-113933333D01*
X121828571Y-113971428D01*
X121752380Y-114009523D01*
X121676190Y-114085714D01*
X121638095Y-114200000D01*
X121638095Y-114390476D01*
X124438095Y-115533333D02*
X124819047Y-115800000D01*
X124438095Y-115990476D02*
X125238095Y-115990476D01*
X125238095Y-115685714D01*
X125200000Y-115609523D01*
X125161904Y-115571428D01*
X125085714Y-115533333D01*
X124971428Y-115533333D01*
X124895238Y-115571428D01*
X124857142Y-115609523D01*
X124819047Y-115685714D01*
X124819047Y-115990476D01*
X125238095Y-115266666D02*
X124438095Y-114733333D01*
X125238095Y-114733333D02*
X124438095Y-115266666D01*
D10*
X138000000Y-113600000D02*
X115200000Y-113600000D01*
X115200000Y-111800000D02*
X138000000Y-111800000D01*
X138000000Y-111800000D02*
X138000000Y-116400000D01*
X115200000Y-111800000D02*
X115200000Y-111800000D01*
X115200000Y-111800000D02*
X115200000Y-116400000D01*
X115200000Y-116400000D02*
X138000000Y-116400000D01*
X133400000Y-97600000D02*
X108400000Y-97600000D01*
D12*
X114600000Y-98390476D02*
X114561904Y-98314285D01*
X114561904Y-98200000D01*
X114600000Y-98085714D01*
X114676190Y-98009523D01*
X114752380Y-97971428D01*
X114904761Y-97933333D01*
X115019047Y-97933333D01*
X115171428Y-97971428D01*
X115247619Y-98009523D01*
X115323809Y-98085714D01*
X115361904Y-98200000D01*
X115361904Y-98276190D01*
X115323809Y-98390476D01*
X115285714Y-98428571D01*
X115019047Y-98428571D01*
X115019047Y-98276190D01*
X115361904Y-98771428D02*
X114561904Y-98771428D01*
X115361904Y-99228571D01*
X114561904Y-99228571D01*
X115361904Y-99609523D02*
X114561904Y-99609523D01*
X114561904Y-99800000D01*
X114600000Y-99914285D01*
X114676190Y-99990476D01*
X114752380Y-100028571D01*
X114904761Y-100066666D01*
X115019047Y-100066666D01*
X115171428Y-100028571D01*
X115247619Y-99990476D01*
X115323809Y-99914285D01*
X115361904Y-99800000D01*
X115361904Y-99609523D01*
D10*
X108400000Y-102200000D02*
X108400000Y-97600000D01*
X119600000Y-102200000D02*
X108400000Y-102200000D01*
X108400000Y-100400000D02*
X133400000Y-100400000D01*
X119600000Y-102200000D02*
X119600000Y-97600000D01*
X133400000Y-102200000D02*
X119600000Y-102200000D01*
X133400000Y-97600000D02*
X133400000Y-102200000D01*
D11*
X122385714Y-100747619D02*
X122385714Y-101747619D01*
X122719047Y-101033333D01*
X123052380Y-101747619D01*
X123052380Y-100747619D01*
X124100000Y-100842857D02*
X124052380Y-100795238D01*
X123909523Y-100747619D01*
X123814285Y-100747619D01*
X123671428Y-100795238D01*
X123576190Y-100890476D01*
X123528571Y-100985714D01*
X123480952Y-101176190D01*
X123480952Y-101319047D01*
X123528571Y-101509523D01*
X123576190Y-101604761D01*
X123671428Y-101700000D01*
X123814285Y-101747619D01*
X123909523Y-101747619D01*
X124052380Y-101700000D01*
X124100000Y-101652380D01*
X124528571Y-101747619D02*
X124528571Y-100938095D01*
X124576190Y-100842857D01*
X124623809Y-100795238D01*
X124719047Y-100747619D01*
X124909523Y-100747619D01*
X125004761Y-100795238D01*
X125052380Y-100842857D01*
X125100000Y-100938095D01*
X125100000Y-101747619D01*
X126338095Y-100747619D02*
X126338095Y-101747619D01*
X126576190Y-101747619D01*
X126719047Y-101700000D01*
X126814285Y-101604761D01*
X126861904Y-101509523D01*
X126909523Y-101319047D01*
X126909523Y-101176190D01*
X126861904Y-100985714D01*
X126814285Y-100890476D01*
X126719047Y-100795238D01*
X126576190Y-100747619D01*
X126338095Y-100747619D01*
X127338095Y-101271428D02*
X127671428Y-101271428D01*
X127814285Y-100747619D02*
X127338095Y-100747619D01*
X127338095Y-101747619D01*
X127814285Y-101747619D01*
X128576190Y-101271428D02*
X128719047Y-101223809D01*
X128766666Y-101176190D01*
X128814285Y-101080952D01*
X128814285Y-100938095D01*
X128766666Y-100842857D01*
X128719047Y-100795238D01*
X128623809Y-100747619D01*
X128242857Y-100747619D01*
X128242857Y-101747619D01*
X128576190Y-101747619D01*
X128671428Y-101700000D01*
X128719047Y-101652380D01*
X128766666Y-101557142D01*
X128766666Y-101461904D01*
X128719047Y-101366666D01*
X128671428Y-101319047D01*
X128576190Y-101271428D01*
X128242857Y-101271428D01*
X129242857Y-101747619D02*
X129242857Y-100938095D01*
X129290476Y-100842857D01*
X129338095Y-100795238D01*
X129433333Y-100747619D01*
X129623809Y-100747619D01*
X129719047Y-100795238D01*
X129766666Y-100842857D01*
X129814285Y-100938095D01*
X129814285Y-101747619D01*
X130814285Y-101700000D02*
X130719047Y-101747619D01*
X130576190Y-101747619D01*
X130433333Y-101700000D01*
X130338095Y-101604761D01*
X130290476Y-101509523D01*
X130242857Y-101319047D01*
X130242857Y-101176190D01*
X130290476Y-100985714D01*
X130338095Y-100890476D01*
X130433333Y-100795238D01*
X130576190Y-100747619D01*
X130671428Y-100747619D01*
X130814285Y-100795238D01*
X130861904Y-100842857D01*
X130861904Y-101176190D01*
X130671428Y-101176190D01*
D12*
X120829000Y-97914285D02*
X120829000Y-98714285D01*
X121961904Y-98561904D02*
X121580952Y-98295238D01*
X121961904Y-98104761D02*
X121161904Y-98104761D01*
X121161904Y-98409523D01*
X121200000Y-98485714D01*
X121238095Y-98523809D01*
X121314285Y-98561904D01*
X121428571Y-98561904D01*
X121504761Y-98523809D01*
X121542857Y-98485714D01*
X121580952Y-98409523D01*
X121580952Y-98104761D01*
X120829000Y-98714285D02*
X120829000Y-99476190D01*
X121923809Y-98866666D02*
X121961904Y-98980952D01*
X121961904Y-99171428D01*
X121923809Y-99247619D01*
X121885714Y-99285714D01*
X121809523Y-99323809D01*
X121733333Y-99323809D01*
X121657142Y-99285714D01*
X121619047Y-99247619D01*
X121580952Y-99171428D01*
X121542857Y-99019047D01*
X121504761Y-98942857D01*
X121466666Y-98904761D01*
X121390476Y-98866666D01*
X121314285Y-98866666D01*
X121238095Y-98904761D01*
X121200000Y-98942857D01*
X121161904Y-99019047D01*
X121161904Y-99209523D01*
X121200000Y-99323809D01*
X120829000Y-99476190D02*
X120829000Y-100085714D01*
X121161904Y-99552380D02*
X121161904Y-100009523D01*
X121961904Y-99780952D02*
X121161904Y-99780952D01*
X124561904Y-97980952D02*
X123761904Y-97980952D01*
X123761904Y-98171428D01*
X123800000Y-98285714D01*
X123876190Y-98361904D01*
X123952380Y-98400000D01*
X124104761Y-98438095D01*
X124219047Y-98438095D01*
X124371428Y-98400000D01*
X124447619Y-98361904D01*
X124523809Y-98285714D01*
X124561904Y-98171428D01*
X124561904Y-97980952D01*
X124561904Y-98780952D02*
X123761904Y-98780952D01*
X123761904Y-99314285D02*
X123761904Y-99466666D01*
X123800000Y-99542857D01*
X123876190Y-99619047D01*
X124028571Y-99657142D01*
X124295238Y-99657142D01*
X124447619Y-99619047D01*
X124523809Y-99542857D01*
X124561904Y-99466666D01*
X124561904Y-99314285D01*
X124523809Y-99238095D01*
X124447619Y-99161904D01*
X124295238Y-99123809D01*
X124028571Y-99123809D01*
X123876190Y-99161904D01*
X123800000Y-99238095D01*
X123761904Y-99314285D01*
X126885714Y-98523809D02*
X126923809Y-98485714D01*
X126961904Y-98371428D01*
X126961904Y-98295238D01*
X126923809Y-98180952D01*
X126847619Y-98104761D01*
X126771428Y-98066666D01*
X126619047Y-98028571D01*
X126504761Y-98028571D01*
X126352380Y-98066666D01*
X126276190Y-98104761D01*
X126200000Y-98180952D01*
X126161904Y-98295238D01*
X126161904Y-98371428D01*
X126200000Y-98485714D01*
X126238095Y-98523809D01*
X126961904Y-99247619D02*
X126961904Y-98866666D01*
X126161904Y-98866666D01*
X126961904Y-99514285D02*
X126161904Y-99514285D01*
X126961904Y-99971428D02*
X126504761Y-99628571D01*
X126161904Y-99971428D02*
X126619047Y-99514285D01*
X128800000Y-98390476D02*
X128761904Y-98314285D01*
X128761904Y-98200000D01*
X128800000Y-98085714D01*
X128876190Y-98009523D01*
X128952380Y-97971428D01*
X129104761Y-97933333D01*
X129219047Y-97933333D01*
X129371428Y-97971428D01*
X129447619Y-98009523D01*
X129523809Y-98085714D01*
X129561904Y-98200000D01*
X129561904Y-98276190D01*
X129523809Y-98390476D01*
X129485714Y-98428571D01*
X129219047Y-98428571D01*
X129219047Y-98276190D01*
X129561904Y-98771428D02*
X128761904Y-98771428D01*
X129561904Y-99228571D01*
X128761904Y-99228571D01*
X129561904Y-99609523D02*
X128761904Y-99609523D01*
X128761904Y-99800000D01*
X128800000Y-99914285D01*
X128876190Y-99990476D01*
X128952380Y-100028571D01*
X129104761Y-100066666D01*
X129219047Y-100066666D01*
X129371428Y-100028571D01*
X129447619Y-99990476D01*
X129523809Y-99914285D01*
X129561904Y-99800000D01*
X129561904Y-99609523D01*
X131361904Y-98038095D02*
X132161904Y-98304761D01*
X131361904Y-98571428D01*
X131857142Y-98838095D02*
X131857142Y-99447619D01*
X132161904Y-99142857D02*
X131552380Y-99142857D01*
D11*
X110228571Y-100747619D02*
X110228571Y-101747619D01*
X110561904Y-101033333D01*
X110895238Y-101747619D01*
X110895238Y-100747619D01*
X111942857Y-100842857D02*
X111895238Y-100795238D01*
X111752380Y-100747619D01*
X111657142Y-100747619D01*
X111514285Y-100795238D01*
X111419047Y-100890476D01*
X111371428Y-100985714D01*
X111323809Y-101176190D01*
X111323809Y-101319047D01*
X111371428Y-101509523D01*
X111419047Y-101604761D01*
X111514285Y-101700000D01*
X111657142Y-101747619D01*
X111752380Y-101747619D01*
X111895238Y-101700000D01*
X111942857Y-101652380D01*
X112371428Y-101747619D02*
X112371428Y-100938095D01*
X112419047Y-100842857D01*
X112466666Y-100795238D01*
X112561904Y-100747619D01*
X112752380Y-100747619D01*
X112847619Y-100795238D01*
X112895238Y-100842857D01*
X112942857Y-100938095D01*
X112942857Y-101747619D01*
X114180952Y-101747619D02*
X114180952Y-100938095D01*
X114228571Y-100842857D01*
X114276190Y-100795238D01*
X114371428Y-100747619D01*
X114561904Y-100747619D01*
X114657142Y-100795238D01*
X114704761Y-100842857D01*
X114752380Y-100938095D01*
X114752380Y-101747619D01*
X115180952Y-101033333D02*
X115657142Y-101033333D01*
X115085714Y-100747619D02*
X115419047Y-101747619D01*
X115752380Y-100747619D01*
X116657142Y-100747619D02*
X116323809Y-101223809D01*
X116085714Y-100747619D02*
X116085714Y-101747619D01*
X116466666Y-101747619D01*
X116561904Y-101700000D01*
X116609523Y-101652380D01*
X116657142Y-101557142D01*
X116657142Y-101414285D01*
X116609523Y-101319047D01*
X116561904Y-101271428D01*
X116466666Y-101223809D01*
X116085714Y-101223809D01*
X116942857Y-101747619D02*
X117514285Y-101747619D01*
X117228571Y-100747619D02*
X117228571Y-101747619D01*
X109561904Y-98038095D02*
X110361904Y-98304761D01*
X109561904Y-98571428D01*
X110057142Y-98838095D02*
X110057142Y-99447619D01*
X110361904Y-99142857D02*
X109752380Y-99142857D01*
X111961904Y-97990476D02*
X111961904Y-98447619D01*
X112761904Y-98219047D02*
X111961904Y-98219047D01*
X111961904Y-98638095D02*
X112761904Y-99171428D01*
X111961904Y-99171428D02*
X112761904Y-98638095D01*
D12*
X117961904Y-98466666D02*
X117580952Y-98200000D01*
X117961904Y-98009523D02*
X117161904Y-98009523D01*
X117161904Y-98314285D01*
X117200000Y-98390476D01*
X117238095Y-98428571D01*
X117314285Y-98466666D01*
X117428571Y-98466666D01*
X117504761Y-98428571D01*
X117542857Y-98390476D01*
X117580952Y-98314285D01*
X117580952Y-98009523D01*
X117161904Y-98733333D02*
X117961904Y-99266666D01*
X117161904Y-99266666D02*
X117961904Y-98733333D01*
M02*
