M48
; DRILL file {KiCad (5.1.7)-1} date 12/10/20 13:10:35
; FORMAT={-:-/ absolute / metric / decimal}
; #@! TF.CreationDate,2020-12-10T13:10:35+02:00
; #@! TF.GenerationSoftware,Kicad,Pcbnew,(5.1.7)-1
; #@! TF.FileFunction,Plated,1,4,PTH
FMAT,2
METRIC
T1C0.200
T2C0.400
T3C0.800
T4C1.000
T5C1.100
%
G90
G05
T1
X166.26Y-107.725
X166.26Y-108.875
X167.2Y-107.725
X167.2Y-108.875
X168.14Y-107.725
X168.14Y-108.875
T2
X101.301Y-102.87
X101.301Y-105.72
X101.301Y-108.57
X101.301Y-132.32
X101.301Y-135.17
X101.301Y-138.02
X103.201Y-103.82
X103.201Y-137.07
X104.25Y-134.525
X104.25Y-135.5
X104.275Y-131.625
X104.275Y-132.6
X105.101Y-102.87
X105.101Y-138.02
X106.051Y-109.52
X106.35Y-134.0
X106.375Y-131.1
X107.001Y-103.82
X107.001Y-137.07
X107.3Y-135.0
X107.325Y-132.1
X107.951Y-105.72
X107.951Y-108.57
X108.7Y-115.9
X108.901Y-102.87
X108.901Y-134.22
X108.901Y-138.02
X109.25Y-99.28
X109.25Y-100.6
X110.25Y-121.6
X112.1Y-115.8
X112.25Y-121.65
X112.6Y-97.4
X112.701Y-103.82
X112.701Y-106.67
X112.701Y-109.52
X112.701Y-112.37
X112.9Y-114.7
X113.7Y-97.4
X114.0Y-116.1
X114.1Y-114.8
X114.25Y-121.65
X115.3Y-114.8
X115.8Y-100.6
X117.25Y-116.143
X117.451Y-100.02
X117.451Y-109.52
X118.401Y-98.12
X118.6Y-112.6
X119.351Y-95.27
X120.1Y-112.6
X120.301Y-109.52
X120.6Y-116.8
X120.8Y-106.6
X121.2Y-112.6
X121.9Y-97.3
X122.061Y-101.3
X122.201Y-102.87
X124.1Y-97.301
X124.2Y-112.4
X124.661Y-101.3
X125.4Y-116.4
X126.001Y-112.37
X126.797Y-97.297
X127.221Y-101.24
X128.0Y-97.3
X128.2Y-113.6
X128.3Y-114.9
X129.801Y-102.901
X130.5Y-112.5
X131.2Y-116.8
X131.7Y-112.5
X131.975Y-98.275
X132.2Y-116.8
X134.0Y-102.8
X134.0Y-113.6
X134.551Y-106.67
X134.921Y-98.694
X135.895Y-97.726
X136.3Y-103.2
X136.3Y-106.75
X136.4Y-104.2
X137.57Y-105.93
X137.7Y-114.7
X137.75Y-113.2
X138.85Y-113.2
X138.85Y-114.7
X138.984Y-102.224
X139.0Y-101.2
X139.2Y-104.9
X140.0Y-99.05
X140.45Y-116.35
X140.476Y-114.124
X140.707Y-111.785
X140.829Y-96.5
X140.996Y-109.75
X141.8Y-99.0
X142.3Y-104.7
X142.798Y-107.003
X142.8Y-97.8
X143.6Y-107.6
X144.006Y-108.514
X144.4Y-116.2
X144.681Y-96.78
X145.044Y-114.058
X145.05Y-114.95
X145.095Y-113.055
X145.3Y-116.2
X145.725Y-96.5
X146.152Y-108.28
X146.318Y-97.305
X146.45Y-101.65
X148.801Y-104.77
X148.9Y-101.65
X149.5Y-118.9
X150.3Y-107.1
X151.05Y-95.65
X151.05Y-96.65
X151.2Y-118.9
X151.3Y-111.3
X152.0Y-114.75
X152.0Y-116.25
X152.061Y-99.086
X153.0Y-116.25
X153.226Y-112.467
X153.4Y-119.2
X153.5Y-108.7
X153.533Y-114.967
X153.8Y-97.8
X154.3Y-103.1
X154.4Y-97.2
X154.75Y-106.27
X155.0Y-116.75
X155.8Y-100.4
X156.165Y-110.752
X156.391Y-102.889
X156.75Y-98.25
X156.75Y-99.25
X157.0Y-100.4
X157.128Y-105.678
X157.9Y-97.95
X158.1Y-104.4
X158.2Y-107.5
X158.4Y-110.2
X158.5Y-102.4
X158.8Y-97.95
X159.0Y-101.0
X159.5Y-110.5
X160.0Y-101.0
X160.0Y-102.0
X160.553Y-109.82
X160.793Y-108.593
X161.0Y-101.0
X161.0Y-102.0
X161.5Y-106.65
X161.5Y-107.65
X162.0Y-101.0
X162.0Y-102.0
X162.84Y-111.242
X163.0Y-101.0
X163.0Y-102.0
X163.069Y-112.216
X163.1Y-108.75
X163.157Y-109.689
X163.9Y-110.8
X164.0Y-101.0
X164.0Y-116.7
X164.903Y-117.742
X164.951Y-98.12
X165.615Y-111.153
X166.7Y-117.0
X167.4Y-112.1
X168.4Y-117.0
X168.712Y-111.985
X169.421Y-116.979
X169.9Y-103.15
X169.9Y-105.25
X170.9Y-103.15
X170.9Y-105.25
X171.8Y-98.8
X171.9Y-107.85
X171.9Y-108.85
X171.9Y-109.85
X172.65Y-113.0
X173.05Y-98.5
X173.296Y-101.35
X173.4Y-103.85
X173.4Y-104.8
X173.4Y-105.75
X173.4Y-106.75
X173.6Y-111.8
X173.6Y-113.0
X174.6Y-98.3
X174.65Y-105.35
X174.8Y-111.15
X174.8Y-112.05
X175.55Y-104.65
X175.65Y-111.15
X175.65Y-112.05
X175.8Y-98.3
X176.5Y-111.15
X176.5Y-112.05
X177.1Y-103.65
X177.35Y-111.15
X177.35Y-112.05
X177.7Y-99.8
X177.7Y-100.75
X177.7Y-101.75
X177.7Y-102.75
X178.1Y-134.17
X178.1Y-124.5
X178.1Y-127.7
X178.16Y-136.67
X178.47Y-143.67
X178.7Y-106.6
X178.8Y-101.2
X179.033Y-114.372
X179.1Y-102.65
X179.2Y-124.5
X179.2Y-127.7
X179.201Y-146.57
X179.335Y-144.845
X180.1Y-102.65
X180.151Y-95.27
X180.151Y-131.37
X180.3Y-124.5
X180.3Y-127.7
X180.89Y-144.9
X181.101Y-133.27
X181.101Y-136.12
X181.101Y-140.87
X181.17Y-125.88
X181.17Y-126.88
X181.17Y-124.93
X182.051Y-146.57
X182.1Y-131.0
X182.4Y-128.6
X182.77Y-143.68
X182.834Y-122.833
X182.955Y-118.295
X183.001Y-107.62
X183.001Y-110.47
X183.001Y-113.32
X183.001Y-138.97
X183.001Y-141.82
X183.75Y-123.685
X183.951Y-145.62
X184.23Y-118.8
X184.901Y-95.27
X184.901Y-108.57
X184.901Y-117.12
X184.901Y-133.27
X184.901Y-138.02
X185.851Y-97.17
X185.851Y-135.17
X185.851Y-139.92
X185.851Y-144.67
X186.05Y-100.8
X186.05Y-101.8
X186.1Y-106.6
X186.6Y-130.18
X186.801Y-110.47
X186.801Y-113.32
X186.801Y-119.02
X186.801Y-146.57
X187.4Y-124.895
X187.55Y-102.3
X187.55Y-106.55
X188.01Y-143.66
X188.2Y-126.0
X188.65Y-102.3
X188.65Y-106.55
X188.701Y-111.42
X189.651Y-138.02
X189.651Y-140.87
X189.651Y-146.57
X189.7Y-102.4
X189.79Y-144.65
X190.8Y-102.4
X191.11Y-138.22
X191.11Y-140.22
X191.2Y-135.4
X191.95Y-102.3
X191.95Y-106.55
X192.11Y-139.22
X192.5Y-136.1
X192.5Y-141.0
X192.501Y-108.57
X192.501Y-117.12
X192.501Y-145.62
X193.05Y-102.3
X193.05Y-106.55
X193.451Y-110.47
X193.451Y-113.32
X194.2Y-118.7
X194.2Y-128.74
X194.35Y-107.7
X194.401Y-103.82
X194.401Y-146.57
X194.423Y-125.16
X194.51Y-114.955
X195.28Y-128.75
X195.351Y-134.22
X196.301Y-102.87
X196.4Y-137.6
X198.201Y-138.02
X198.25Y-115.4
X198.3Y-103.8
X198.65Y-107.7
X198.8Y-123.2
X198.82Y-124.3
X199.3Y-103.8
X199.35Y-115.4
X200.0Y-125.0
X200.0Y-126.0
X200.0Y-127.0
X200.0Y-128.0
X200.0Y-130.0
X200.0Y-131.0
X200.05Y-129.0
X201.051Y-138.02
X201.65Y-104.15
X201.65Y-109.05
X202.001Y-114.27
X202.001Y-117.12
X202.001Y-119.97
X202.001Y-122.82
X202.001Y-125.67
X202.001Y-128.52
X202.001Y-131.37
X202.65Y-104.15
X202.65Y-109.05
T3
X163.5Y-98.25
X167.0Y-98.25
T4
X109.85Y-95.75
X112.39Y-95.75
X114.93Y-95.75
X117.47Y-95.75
X128.52Y-118.35
X131.06Y-118.35
X133.6Y-118.35
X136.14Y-118.35
X110.0Y-126.31
X110.0Y-128.85
X117.06Y-118.35
X119.6Y-118.35
X122.14Y-118.35
X124.68Y-118.35
X121.5Y-95.75
X124.04Y-95.75
X126.58Y-95.75
X129.12Y-95.75
X131.66Y-95.75
T5
X111.1Y-132.77
X111.1Y-135.31
X111.1Y-137.85
X183.2Y-95.6
X183.2Y-98.14
T0
M30
