M48
; DRILL file {KiCad (5.1.7)-1} date 01/17/21 22:57:40
; FORMAT={-:-/ absolute / metric / decimal}
; #@! TF.CreationDate,2021-01-17T22:57:40+02:00
; #@! TF.GenerationSoftware,Kicad,Pcbnew,(5.1.7)-1
; #@! TF.FileFunction,Plated,1,4,PTH
FMAT,2
METRIC
T1C0.200
T2C0.400
T3C0.800
T4C1.000
T5C1.100
%
G90
G05
T1
X166.26Y-107.725
X166.26Y-108.875
X167.2Y-107.725
X167.2Y-108.875
X168.14Y-107.725
X168.14Y-108.875
T2
X101.723Y-103.05
X101.723Y-105.9
X101.723Y-108.75
X101.723Y-132.5
X101.723Y-135.35
X101.723Y-138.2
X103.623Y-104.0
X103.623Y-109.7
X103.623Y-137.25
X104.25Y-134.525
X104.25Y-135.5
X104.275Y-131.625
X104.275Y-132.6
X105.523Y-103.05
X105.523Y-138.2
X106.35Y-134.0
X106.375Y-131.1
X106.473Y-109.7
X107.3Y-135.0
X107.325Y-132.1
X107.423Y-104.0
X107.423Y-106.85
X107.423Y-137.25
X108.373Y-108.75
X108.65Y-118.2
X109.25Y-99.28
X109.25Y-100.6
X109.323Y-102.1
X109.323Y-104.95
X109.323Y-110.65
X109.323Y-113.5
X109.323Y-116.35
X110.25Y-122.9
X110.273Y-106.85
X111.223Y-103.05
X111.3Y-109.6
X111.3Y-108.6
X111.4Y-110.9
X111.4Y-111.8
X111.8Y-105.7
X111.8Y-106.7
X112.1Y-117.1
X112.25Y-122.95
X112.4Y-115.6
X112.6Y-97.4
X113.7Y-97.4
X113.9Y-115.65
X114.073Y-138.2
X114.25Y-122.95
X114.3Y-117.3
X115.25Y-115.65
X115.8Y-100.6
X116.2Y-105.9
X116.2Y-107.9
X116.2Y-111.9
X116.245Y-109.855
X117.2Y-113.3
X117.25Y-116.143
X118.0Y-103.7
X119.773Y-97.35
X120.1Y-106.1
X120.1Y-108.5
X120.1Y-110.9
X120.6Y-116.8
X121.2Y-102.826
X121.8Y-105.7
X121.9Y-97.3
X122.2Y-101.3
X122.2Y-110.8
X123.0Y-111.5
X123.8Y-106.5
X123.8Y-107.5
X123.8Y-108.5
X124.1Y-97.301
X124.3Y-111.7
X124.8Y-101.4
X125.0Y-105.4
X125.4Y-116.4
X126.0Y-105.4
X126.0Y-106.3
X126.0Y-107.2
X126.4Y-110.5
X126.445Y-112.645
X126.797Y-97.297
X127.0Y-105.4
X127.4Y-101.3
X127.4Y-110.5
X128.0Y-97.3
X128.2Y-108.5
X128.2Y-113.6
X128.3Y-114.9
X128.39Y-105.35
X129.1Y-108.5
X130.0Y-108.5
X130.13Y-103.51
X130.5Y-112.5
X130.8Y-107.4
X130.9Y-108.5
X131.2Y-116.8
X131.7Y-112.7
X131.75Y-104.25
X131.781Y-107.342
X132.1Y-98.6
X132.2Y-116.8
X132.8Y-104.4
X134.0Y-113.6
X134.25Y-101.35
X134.49Y-107.05
X134.8Y-105.855
X135.053Y-98.563
X135.218Y-103.847
X135.731Y-102.531
X135.895Y-97.726
X135.95Y-99.55
X136.25Y-104.2
X136.555Y-106.255
X136.63Y-108.19
X137.7Y-114.7
X137.7Y-118.0
X137.7Y-119.2
X137.75Y-113.2
X138.15Y-108.95
X138.85Y-113.2
X138.85Y-114.7
X138.9Y-101.08
X138.95Y-118.0
X138.95Y-119.2
X139.249Y-105.933
X139.28Y-102.12
X139.306Y-104.984
X140.02Y-99.0
X140.45Y-116.3
X140.476Y-114.124
X140.599Y-111.84
X140.6Y-109.6
X140.829Y-96.5
X141.85Y-99.15
X142.385Y-104.966
X142.6Y-97.95
X142.701Y-106.953
X142.905Y-104.171
X143.546Y-107.387
X143.81Y-108.3
X144.004Y-104.096
X144.25Y-116.75
X144.47Y-97.68
X144.837Y-96.513
X145.0Y-113.85
X145.05Y-114.9
X145.25Y-116.75
X145.725Y-96.5
X146.152Y-108.28
X146.2Y-105.9
X146.2Y-97.8
X146.25Y-100.85
X146.25Y-116.75
X147.25Y-100.895
X147.25Y-116.75
X148.9Y-101.65
X150.205Y-97.605
X150.5Y-95.0
X150.5Y-116.3
X151.35Y-116.3
X152.0Y-114.75
X152.0Y-99.45
X152.2Y-116.3
X153.05Y-116.3
X153.226Y-112.467
X153.4Y-119.2
X153.5Y-108.5
X153.533Y-114.967
X153.6Y-106.5
X153.8Y-97.8
X154.3Y-103.1
X154.4Y-97.2
X155.0Y-116.75
X155.8Y-100.4
X156.165Y-110.7
X156.35Y-102.85
X156.868Y-105.55
X156.914Y-100.337
X157.26Y-99.24
X157.628Y-107.461
X158.1Y-104.4
X158.15Y-110.3
X158.5Y-102.4
X158.75Y-97.95
X159.6Y-97.95
X159.666Y-110.35
X160.0Y-101.0
X160.0Y-102.0
X160.553Y-109.82
X160.793Y-108.593
X161.0Y-101.0
X161.0Y-102.0
X161.5Y-106.65
X161.5Y-107.65
X162.0Y-100.0
X162.0Y-101.0
X162.0Y-102.0
X162.84Y-111.242
X163.0Y-100.0
X163.0Y-101.0
X163.0Y-102.0
X163.1Y-108.75
X163.157Y-109.689
X163.9Y-110.8
X164.0Y-100.0
X164.0Y-101.0
X164.0Y-102.0
X164.0Y-116.7
X164.216Y-112.616
X164.903Y-117.742
X165.85Y-111.05
X166.7Y-117.0
X167.4Y-112.15
X168.4Y-117.0
X168.712Y-111.985
X169.421Y-116.979
X169.9Y-103.15
X169.9Y-105.25
X170.9Y-103.15
X170.9Y-105.25
X171.8Y-98.8
X171.9Y-107.85
X171.9Y-108.85
X171.9Y-109.85
X172.65Y-113.0
X173.05Y-98.5
X173.296Y-101.35
X173.4Y-103.85
X173.4Y-104.8
X173.4Y-105.75
X173.4Y-106.75
X173.6Y-111.8
X173.6Y-113.0
X174.6Y-98.3
X174.65Y-105.35
X174.8Y-111.15
X174.8Y-112.05
X175.55Y-104.65
X175.65Y-111.15
X175.65Y-112.05
X175.8Y-98.3
X176.5Y-111.15
X176.5Y-112.05
X176.85Y-103.65
X177.35Y-111.15
X177.35Y-112.05
X177.7Y-99.8
X177.7Y-100.8
X177.7Y-102.2
X177.7Y-103.3
X178.1Y-134.17
X178.1Y-124.5
X178.1Y-127.7
X178.16Y-136.67
X178.47Y-143.67
X178.673Y-146.75
X178.7Y-106.8
X178.8Y-102.65
X179.2Y-124.5
X179.2Y-127.7
X179.335Y-144.845
X179.623Y-95.45
X179.623Y-132.5
X179.8Y-102.65
X180.3Y-124.5
X180.3Y-127.7
X180.573Y-134.4
X180.89Y-144.9
X181.0Y-99.4
X181.17Y-125.88
X181.17Y-126.88
X181.17Y-124.93
X181.523Y-141.05
X181.523Y-146.75
X182.1Y-131.0
X182.4Y-128.6
X182.473Y-132.5
X182.473Y-135.35
X182.77Y-143.68
X182.834Y-122.833
X182.955Y-118.295
X183.4Y-116.3
X183.423Y-107.8
X183.423Y-110.65
X183.423Y-113.5
X183.423Y-139.15
X183.423Y-145.8
X183.75Y-123.685
X184.23Y-118.8
X184.8Y-99.6
X185.323Y-95.45
X185.323Y-117.3
X185.323Y-138.2
X185.323Y-144.85
X185.8Y-99.6
X186.0Y-100.8
X186.273Y-110.65
X186.273Y-113.5
X186.273Y-140.1
X186.273Y-146.75
X186.6Y-130.18
X187.223Y-116.35
X187.223Y-119.2
X187.4Y-124.895
X187.55Y-102.3
X187.55Y-106.55
X188.01Y-143.66
X188.173Y-112.55
X188.173Y-145.8
X188.2Y-126.0
X188.65Y-102.3
X188.65Y-106.55
X189.123Y-138.2
X189.123Y-141.05
X189.7Y-102.4
X189.79Y-144.65
X190.073Y-146.75
X190.8Y-102.4
X191.023Y-142.0
X191.11Y-138.22
X191.11Y-140.22
X191.2Y-135.4
X191.95Y-102.3
X191.95Y-106.55
X191.973Y-108.75
X191.973Y-119.2
X192.11Y-139.22
X192.5Y-136.1
X192.5Y-141.0
X192.923Y-117.3
X192.923Y-146.75
X193.05Y-102.3
X193.05Y-106.55
X193.873Y-109.7
X193.873Y-112.55
X194.2Y-118.7
X194.2Y-128.74
X194.35Y-107.7
X194.423Y-125.16
X194.51Y-114.955
X194.823Y-103.05
X194.823Y-145.8
X195.28Y-128.75
X195.773Y-104.95
X195.773Y-134.4
X196.4Y-137.6
X196.723Y-123.0
X198.25Y-115.4
X198.3Y-103.8
X198.623Y-138.2
X198.65Y-107.7
X198.8Y-123.2
X198.8Y-124.2
X199.3Y-103.8
X199.35Y-115.4
X200.0Y-125.0
X200.0Y-126.0
X200.0Y-127.0
X200.0Y-128.0
X200.0Y-130.0
X200.0Y-131.0
X200.05Y-129.0
X200.523Y-123.0
X201.473Y-124.9
X201.473Y-127.75
X201.473Y-130.6
X201.473Y-137.25
X201.65Y-104.15
X201.65Y-109.05
X202.423Y-114.45
X202.423Y-117.3
X202.423Y-120.15
X202.423Y-132.5
X202.423Y-135.35
X202.65Y-104.15
X202.65Y-109.05
T3
X163.5Y-98.25
X167.0Y-98.25
T4
X109.85Y-95.75
X112.39Y-95.75
X114.93Y-95.75
X117.47Y-95.75
X128.52Y-118.35
X131.06Y-118.35
X133.6Y-118.35
X136.14Y-118.35
X110.0Y-126.31
X110.0Y-128.85
X121.5Y-95.75
X124.04Y-95.75
X126.58Y-95.75
X129.12Y-95.75
X131.66Y-95.75
X117.06Y-118.35
X119.6Y-118.35
X122.14Y-118.35
X124.68Y-118.35
T5
X183.2Y-95.6
X183.2Y-98.14
X111.1Y-132.77
X111.1Y-135.31
X111.1Y-137.85
T0
M30
